<?xml version="1.0" encoding="utf-8"?>
<!-- Generator: Adobe Illustrator 25.0.0, SVG Export Plug-In . SVG Version: 6.00 Build 0)  -->
<svg version="1.1" id="Layer_1" xmlns="http://www.w3.org/2000/svg" xmlns:xlink="http://www.w3.org/1999/xlink" x="0px" y="0px"
	 viewBox="0 0 200 200" style="enable-background:new 0 0 200 200;" xml:space="preserve">
<style type="text/css">
	.st0{clip-path:url(#SVGID_5_);}
	.st1{clip-path:url(#SVGID_6_);}
	.st2{clip-path:url(#SVGID_13_);}
	.st3{clip-path:url(#SVGID_14_);}
	.st4{clip-path:url(#SVGID_18_);fill:none;stroke:#FFBA17;stroke-miterlimit:10;}
	.st5{fill:none;stroke:#FFBA17;stroke-miterlimit:10;}
</style>
<g>
	<g>
		<g>
			<defs>
				<path id="SVGID_1_" d="M112.6,112.3l4.1-1.2L116,81.2l-3.3-4.7L95.3,45.9c0,0-9.7-2.8-11.2,1.6c-1.2,3.5,3.6,20.9,3.6,20.9
					L112.6,112.3z"/>
			</defs>
			<clipPath id="SVGID_2_">
				<use xlink:href="#SVGID_1_"  style="overflow:visible;"/>
			</clipPath>
		</g>
		<g>
			<defs>
				<path id="SVGID_3_" d="M84.1,47.5c-1.2,3.5,3.6,20.9,3.6,20.9l25,43.9l4.1-1.2L116,81.2l-3.3-4.7"/>
			</defs>
			<defs>
				<rect id="SVGID_4_" x="26.1" y="2.7" width="138.7" height="194.5"/>
			</defs>
			<clipPath id="SVGID_5_">
				<use xlink:href="#SVGID_3_"  style="overflow:visible;"/>
			</clipPath>
			<clipPath id="SVGID_6_" class="st0">
				<use xlink:href="#SVGID_4_"  style="overflow:visible;"/>
			</clipPath>
			<g class="st1">
				<g>
					<defs>
						<rect id="SVGID_7_" x="83.9" y="45" width="32.9" height="67.4"/>
					</defs>
					<clipPath id="SVGID_8_">
						<use xlink:href="#SVGID_7_"  style="overflow:visible;"/>
					</clipPath>
				</g>
			</g>
		</g>
	</g>
	<g>
		<g>
			<defs>
				<path id="SVGID_9_" d="M78.2,87.5c0,0.3-3.6,0-3.6,3.9c0,6.7-1.8,15.3-1.8,21.6c0,3.6,5.4,10.3,5.4,10.3l17.6,31
					c0,0,7.2-0.8,8.6-5.5c1-3.4-1.5-17.9-1.5-17.9L78.2,87.5z"/>
			</defs>
			<clipPath id="SVGID_10_">
				<use xlink:href="#SVGID_9_"  style="overflow:visible;"/>
			</clipPath>
		</g>
		<g>
			<defs>
				<path id="SVGID_11_" d="M78.2,87.5c0,0.3-3.6,0-3.6,3.9c0,6.7-1.8,15.3-1.8,21.6c0,3.6,5.4,10.3,5.4,10.3l17.6,31
					c0,0,7.2-0.8,8.6-5.5c1-3.4-1.5-17.9-1.5-17.9L78.2,87.5z"/>
			</defs>
			<defs>
				<rect id="SVGID_12_" x="26.1" y="2.7" width="138.7" height="194.5"/>
			</defs>
			<clipPath id="SVGID_13_">
				<use xlink:href="#SVGID_11_"  style="overflow:visible;"/>
			</clipPath>
			<clipPath id="SVGID_14_" class="st2">
				<use xlink:href="#SVGID_12_"  style="overflow:visible;"/>
			</clipPath>
			<g class="st3">
				<g>
					<defs>
						<rect id="SVGID_15_" x="72.6" y="87.4" width="32.2" height="67"/>
					</defs>
					<clipPath id="SVGID_16_">
						<use xlink:href="#SVGID_15_"  style="overflow:visible;"/>
					</clipPath>
				</g>
			</g>
		</g>
	</g>
	<g>
		<g>
			<defs>
				<rect id="SVGID_17_" x="26.1" y="2.7" width="138.7" height="194.5"/>
			</defs>
			<clipPath id="SVGID_18_">
				<use xlink:href="#SVGID_17_"  style="overflow:visible;"/>
			</clipPath>
			<path class="st4" d="M78.2,123.4l-0.1-0.2v35c0,5.1-3.8,9.2-8.6,9.2H34.6c-4.7,0-8.5-4.1-8.5-9.2V12.5c0-5.2,3.9-9.4,8.7-9.4
				s8.7,4.2,8.7,9.4v127c0,5.1,3.8,9.2,8.5,9.2s8.5-4.1,8.5-9.2V10.3c0-7.2,8.8-9.9,12.3-3.7l22.4,39.3c-2.4,7-5.4,16.1-7.6,22.5
				L78,51.6v35.8l0.1,0.2C78.2,88.8,78.2,123.4,78.2,123.4z M156.1,32.2h-34.9c-4.7,0-8.6,4.1-8.6,9.2c0,6.7,0,13.4,0,20.2
				c0,28.8,0,57.7,0,86.5c-3.2-5.7-6.5-11.4-9.7-17.1c-2.1,8.4-4.9,16.7-7.1,23.4l22,38.7c3.5,6.1,12.3,3.5,12.3-3.7V60.2
				c0-5.1,3.8-9.2,8.6-9.2c4.7,0,8.6,4.1,8.6,9.2v127c0,5.2,3.9,9.4,8.7,9.4c4.8,0,8.7-4.2,8.7-9.4V41.4
				C164.6,36.4,160.8,32.2,156.1,32.2z"/>
		</g>
		<path class="st5" d="M112.6,75.7c-4.1-8-13.6-22.3-17.7-30.4"/>
		<path class="st5" d="M112.6,112.3c-6-11.9-19.5-33-25.5-44.9"/>
	</g>
</g>
<path class="st5" d="M102.9,131c-4.1-8-20.8-35.7-24.9-43.8"/>
<path class="st5" d="M95.8,154.4c-4.1-8-13.7-22.6-17.8-30.7"/>
</svg>
