<?xml version="1.0" encoding="utf-8"?>
<!-- Generator: Adobe Illustrator 25.0.0, SVG Export Plug-In . SVG Version: 6.00 Build 0)  -->
<svg version="1.1" id="Layer_1" xmlns="http://www.w3.org/2000/svg" xmlns:xlink="http://www.w3.org/1999/xlink" x="0px" y="0px"
	 viewBox="0 0 200 200" style="enable-background:new 0 0 200 200;" xml:space="preserve">
<style type="text/css">
	.st0{clip-path:url(#SVGID_5_);}
	.st1{clip-path:url(#SVGID_11_);}
	.st2{clip-path:url(#SVGID_14_);fill:none;stroke:#D8547F;stroke-miterlimit:10;}
	.st3{fill:none;stroke:#D8547F;stroke-miterlimit:10;}
</style>
<g>
	<g>
		<g>
			<g>
				<defs>
					<path id="SVGID_1_" d="M91.9,55.6c-1.7,8.8-4.5,11.7-4.2,12.8l25,43.9l-0.1-8.2V82.3l0.1-5.8"/>
				</defs>
				<clipPath id="SVGID_2_">
					<use xlink:href="#SVGID_1_"  style="overflow:visible;"/>
				</clipPath>
				<use xlink:href="#SVGID_1_"  style="overflow:visible;fill:none;stroke:#D8547F;stroke-miterlimit:10;"/>
			</g>
			<g>
				<defs>
					<path id="SVGID_3_" d="M91.9,55.6c-1.2,3.5-4.2,12.8-4.2,12.8l25,43.9l-0.1-8.2V82.3l0.1-5.8"/>
				</defs>
				<defs>
					<rect id="SVGID_4_" x="26.1" y="2.7" width="138.7" height="194.5"/>
				</defs>
				<clipPath id="SVGID_5_">
					<use xlink:href="#SVGID_3_"  style="overflow:visible;"/>
				</clipPath>
				<clipPath id="SVGID_6_" class="st0">
					<use xlink:href="#SVGID_4_"  style="overflow:visible;"/>
				</clipPath>
				<use xlink:href="#SVGID_3_"  style="overflow:visible;fill:none;stroke:#D8547F;stroke-miterlimit:10;"/>
			</g>
		</g>
	</g>
	<g>
		<g>
			<g>
				<defs>
					<path id="SVGID_7_" d="M78.2,87.5c0,0.3-0.1-0.4-0.2,3.5c-0.1,5.8,0.4,9.3,0,22.2c-0.1,2.2,0.4,10.1,0.2,10.1l17.6,31
						c0.1-0.2,2-6.4,2.8-9.3c2.4-7.7,4.3-14.3,4.3-14.1L78.2,87.5z"/>
				</defs>
				<clipPath id="SVGID_8_">
					<use xlink:href="#SVGID_7_"  style="overflow:visible;"/>
				</clipPath>
				<use xlink:href="#SVGID_7_"  style="overflow:visible;fill:none;stroke:#D8547F;stroke-miterlimit:10;"/>
			</g>
			<g>
				<defs>
					<path id="SVGID_9_" d="M78.2,87.5c0,0.3-0.3-0.4-0.2,3.5c0.1,4.9-0.2,13.3,0,22.2c0.1,3.6,0.2,10.1,0.2,10.1l17.6,31
						c0-0.4,3.8-12.6,3.8-12.6c1.3-4.3,3.3-10.8,3.3-10.8L78.2,87.5z"/>
				</defs>
				<defs>
					<rect id="SVGID_10_" x="26.1" y="2.7" width="138.7" height="194.5"/>
				</defs>
				<clipPath id="SVGID_11_">
					<use xlink:href="#SVGID_9_"  style="overflow:visible;"/>
				</clipPath>
				<clipPath id="SVGID_12_" class="st1">
					<use xlink:href="#SVGID_10_"  style="overflow:visible;"/>
				</clipPath>
				<use xlink:href="#SVGID_9_"  style="overflow:visible;fill:none;stroke:#D8547F;stroke-miterlimit:10;"/>
			</g>
		</g>
	</g>
	<g>
		<g>
			<g>
				<defs>
					<rect id="SVGID_13_" x="26.1" y="2.7" width="138.7" height="194.5"/>
				</defs>
				<clipPath id="SVGID_14_">
					<use xlink:href="#SVGID_13_"  style="overflow:visible;"/>
				</clipPath>
				<path class="st2" d="M78.2,123.4L78.2,123.4l-0.1,34.8c0,5.1-3.8,9.2-8.6,9.2H34.6c-4.7,0-8.5-4.1-8.5-9.2V12.5
					c0-5.2,3.9-9.4,8.7-9.4s8.7,4.2,8.7,9.4v127c0,5.1,3.8,9.2,8.5,9.2s8.5-4.1,8.5-9.2V10.3c0-7.2,8.8-9.9,12.3-3.7l22.4,39.3
					c-2.4,7-5.4,16.1-7.6,22.5L78,51.6v35.8l0.1,0.2C78.2,88.8,78.2,123.4,78.2,123.4z M156.1,32.2h-34.9c-4.7,0-8.6,4.1-8.6,9.2
					c0,6.7,0,13.4,0,20.2c0,28.8,0,57.7,0,86.5c-3.2-5.7-6.5-11.4-9.7-17.1c-3.5,12.1-5.4,17-7.1,23.4l22,38.7
					c3.5,6.1,12.3,3.5,12.3-3.7V60.2c0-5.1,3.8-9.2,8.6-9.2c4.7,0,8.6,4.1,8.6,9.2v127c0,5.2,3.9,9.4,8.7,9.4s8.7-4.2,8.7-9.4V41.4
					C164.6,36.4,160.8,32.2,156.1,32.2z"/>
			</g>
		</g>
		<path class="st3" d="M112.6,75.7c-4.1-8-13.6-22.3-17.7-30.4"/>
		<path class="st3" d="M112.6,112.3c-6-11.9-19.5-33-25.5-44.9"/>
	</g>
</g>
<path class="st3" d="M102.9,131c-4.1-8-20.8-35.7-24.9-43.8"/>
<path class="st3" d="M95.8,154.4c-4.1-8-13.7-22.6-17.8-30.7"/>
</svg>
