<svg xmlns="http://www.w3.org/2000/svg" xmlns:xlink="http://www.w3.org/1999/xlink" width="1080" zoomAndPan="magnify" viewBox="0 0 810 809.999993" height="1080" preserveAspectRatio="xMidYMid meet" version="1.0"><defs><clipPath id="d3d88aa856"><path d="M 184 192.300781 L 609 192.300781 L 609 617.550781 L 184 617.550781 Z M 184 192.300781 " clip-rule="nonzero"/></clipPath></defs><g clip-path="url(#d3d88aa856)"><path fill="#000000" d="M 603.550781 238.113281 L 572.621094 238.113281 C 572.609375 235.609375 571.652344 233.109375 569.742188 231.199219 C 567.894531 229.355469 565.492188 228.417969 563.074219 228.347656 L 563.074219 197.640625 C 563.074219 195.660156 561.882812 193.867188 560.046875 193.101562 C 558.230469 192.34375 556.101562 192.746094 554.695312 194.144531 L 521.320312 227.175781 C 520.382812 228.105469 519.855469 229.367188 519.859375 230.683594 L 519.941406 267.097656 L 504.703125 282.339844 C 470.644531 251.738281 425.648438 233.078125 376.367188 233.078125 C 270.371094 233.078125 184.132812 319.3125 184.132812 425.316406 C 184.132812 531.316406 270.371094 617.550781 376.367188 617.550781 C 482.363281 617.550781 568.601562 531.3125 568.601562 425.316406 C 568.601562 375.664062 549.679688 330.347656 518.667969 296.199219 L 533.894531 280.96875 L 570.277344 280.894531 C 571.570312 280.890625 572.8125 280.378906 573.726562 279.472656 L 607.007812 246.53125 C 608.425781 245.128906 608.855469 243.007812 608.097656 241.164062 C 607.339844 239.316406 605.542969 238.113281 603.550781 238.113281 Z M 534.164062 425.316406 C 534.164062 512.324219 463.378906 583.113281 376.367188 583.113281 C 289.355469 583.113281 218.570312 512.324219 218.570312 425.316406 C 218.570312 338.304688 289.359375 267.515625 376.367188 267.515625 C 416.15625 267.515625 452.523438 282.351562 480.3125 306.734375 L 450.691406 336.363281 C 430.546875 319.503906 404.625 309.332031 376.367188 309.332031 C 312.417969 309.332031 260.386719 361.359375 260.386719 425.3125 C 260.386719 489.265625 312.417969 541.292969 376.367188 541.292969 C 440.316406 541.292969 492.347656 489.265625 492.347656 425.3125 C 492.347656 396.691406 481.902344 370.472656 464.65625 350.222656 L 494.277344 320.597656 C 519.066406 348.480469 534.164062 385.160156 534.164062 425.316406 Z M 376.367188 469.957031 C 400.984375 469.957031 421.015625 449.933594 421.015625 425.316406 C 421.015625 416.378906 418.347656 408.066406 413.808594 401.082031 L 443.695312 371.191406 C 455.636719 386.023438 462.832031 404.835938 462.832031 425.316406 C 462.832031 472.988281 424.046875 511.773438 376.367188 511.773438 C 328.6875 511.773438 289.902344 472.988281 289.902344 425.316406 C 289.902344 377.640625 328.6875 338.851562 376.367188 338.851562 C 396.484375 338.851562 414.972656 345.816406 429.679688 357.382812 L 399.726562 387.339844 C 392.921875 383.136719 384.9375 380.667969 376.367188 380.667969 C 351.75 380.667969 331.722656 400.699219 331.722656 425.316406 C 331.722656 449.933594 351.75 469.957031 376.367188 469.957031 Z M 376.367188 469.957031 " fill-opacity="1" fill-rule="nonzero"/></g></svg>