<?xml version="1.0" encoding="UTF-8"?>
<!-- Generator: visioncortex VTracer 0.6.1 -->
<svg version="1.1" xmlns="http://www.w3.org/2000/svg" width="1280" height="1280">
<path d="M0 0 C422.4 0 844.8 0 1280 0 C1280 422.4 1280 844.8 1280 1280 C857.6 1280 435.2 1280 0 1280 C0 857.6 0 435.2 0 0 Z " fill="#003244" transform="translate(0,0)"/>
<path d="M0 0 C0.14668475 39.94332418 0.28922628 79.88666262 0.42902899 119.83001143 C0.43748504 122.24572616 0.44594759 124.66144088 0.45441055 127.07715559 C0.76015686 214.38597408 1.03335168 301.69482874 1.25390625 389.00390625 C1.25773603 390.51863459 1.25773603 390.51863459 1.26164317 392.0639635 C1.35283074 428.13473422 1.44207771 464.20550974 1.5306015 500.27628708 C1.60145084 529.1425272 1.67291873 558.00876567 1.74609375 586.875 C1.74991786 588.38463522 1.74991786 588.38463522 1.75381923 589.92476812 C1.90001263 647.59580023 2.07133997 705.26667782 2.28515625 762.9375 C2.2895745 764.13043811 2.2895745 764.13043811 2.29408202 765.34747598 C2.38710415 790.45644849 2.48286917 815.56541044 2.57924032 840.67437029 C2.91609687 928.44979329 3.16663196 1016.22387629 3 1104 C-2.50997402 1104.93501131 -7.79894817 1105.12880796 -13.3809967 1105.08901978 C-14.31463197 1105.08649763 -15.24826723 1105.08397548 -16.21019447 1105.08137691 C-19.36030068 1105.07163232 -22.51032535 1105.05455771 -25.66040039 1105.03759766 C-27.95665862 1105.02903749 -30.25291864 1105.02094723 -32.54918003 1105.01328278 C-38.26734704 1104.99309569 -43.98548087 1104.96819985 -49.70362141 1104.94162314 C-56.71289807 1104.90941492 -63.72219529 1104.88384958 -70.7315003 1104.85870288 C-83.23618555 1104.81378554 -95.74085599 1104.7656774 -108.24552056 1104.71534945 C-144.0471606 1104.5713489 -179.8488768 1104.44899806 -215.65060833 1104.33022606 C-218.64839261 1104.32026071 -221.64617669 1104.31023439 -224.64396071 1104.30019283 C-300.65299899 1104.04589173 -376.66210741 1103.88552658 -452.67143554 1103.75370507 C-457.8368487 1103.74474523 -463.00226177 1103.73573257 -468.16767478 1103.72668886 C-523.78743241 1103.62933294 -579.40719511 1103.5349719 -635.02697224 1103.44941642 C-713.02574488 1103.32938932 -791.02446051 1103.19617096 -974.09575844 1102.66270873 C-975.92781964 1102.65563692 -975.92781964 1102.65563692 -977.79689217 1102.64842224 C-979.61761818 1102.64138147 -979.61761818 1102.64138147 -981.47512653 1102.63419846 C-989.93006199 1102.60196215 -998.38500429 1102.57471905 -1006.83996391 1102.54969788 C-1016.94026913 1102.51970938 -1027.04051865 1102.48285595 -1037.1407627 1102.43652368 C-1042.24880741 1102.41324268 -1047.35681276 1102.39310455 -1052.46489835 1102.38143349 C-1057.11315099 1102.37069718 -1061.76126903 1102.35087247 -1066.40945257 1102.32348388 C-1068.09183233 1102.31519073 -1069.77423281 1102.31030641 -1071.45663255 1102.30905348 C-1073.72579396 1102.30687082 -1075.99455533 1102.29261728 -1078.26364231 1102.27510834 C-1079.525787 1102.27022699 -1080.78793168 1102.26534564 -1082.08832318 1102.26031637 C-1085 1102 -1085 1102 -1087 1100 C-1087.20332622 1097.3791078 -1087.27958118 1094.86307972 -1087.27006149 1092.24040127 C-1087.27497021 1091.42271802 -1087.27987893 1090.60503478 -1087.2849364 1089.76257325 C-1087.2991418 1086.98151415 -1087.29895568 1084.20063336 -1087.29901123 1081.41954041 C-1087.30630714 1079.4047655 -1087.31447951 1077.38999362 -1087.32345176 1075.37522548 C-1087.34586435 1069.76112598 -1087.35566708 1064.14706073 -1087.36367571 1058.53292474 C-1087.37467405 1052.38024696 -1087.39730586 1046.22761036 -1087.41847992 1040.07496071 C-1087.45446701 1029.14763964 -1087.48301757 1018.22032365 -1087.50678253 1007.29297066 C-1087.53263298 995.42978957 -1087.56277036 983.56663071 -1087.5981369 971.70347404 C-1087.60037968 970.95049821 -1087.60262245 970.19752237 -1087.60493319 969.42172908 C-1087.61643477 965.56800257 -1087.62801378 961.7142763 -1087.63962683 957.86055013 C-1087.66369134 949.86532584 -1087.6871624 941.87009981 -1087.71043015 933.87487316 C-1087.71279495 933.06246099 -1087.71515975 932.25004881 -1087.71759622 931.41301808 C-1087.75474721 918.61333223 -1087.78928356 905.81364062 -1087.82237625 893.01394367 C-1087.82464594 892.13659414 -1087.82691563 891.25924461 -1087.8292541 890.35530874 C-1087.83852128 886.77118823 -1087.8477769 883.1870677 -1087.85702568 879.60294715 C-1087.9450088 845.51531621 -1088.04190727 811.42772485 -1088.14916992 777.34014893 C-1088.15241574 776.30805522 -1088.15566155 775.27596152 -1088.15900572 774.21259225 C-1088.19567806 762.55644349 -1088.23256177 750.9002954 -1088.26951885 739.24414754 C-1088.53792979 654.57497943 -1088.78367948 569.9057671 -1089.01042483 485.23647726 C-1089.03531766 475.94558085 -1089.06029366 466.65468467 -1089.0853185 457.36378862 C-1089.09159093 455.0350185 -1089.09785963 452.70624837 -1089.10412461 450.37747823 C-1089.2065799 412.31304968 -1089.31972164 374.24866141 -1089.43798744 336.18427897 C-1089.56145622 296.42912034 -1089.67521901 256.67394602 -1089.77630918 216.91872387 C-1089.79051553 211.33290509 -1089.80482919 205.74708658 -1089.81920624 200.16126823 C-1089.82343934 198.51428402 -1089.82343934 198.51428402 -1089.82775796 196.8340274 C-1089.87320705 179.25906582 -1089.92882974 161.68415091 -1089.98837199 144.10923204 C-1090.04736271 126.6315592 -1090.09553871 109.15388381 -1090.13235691 91.67614991 C-1090.15450315 81.31958218 -1090.18508834 70.96311817 -1090.22757968 60.60661349 C-1090.2550619 53.70914373 -1090.27176304 46.81170395 -1090.27945871 39.91418383 C-1090.28415922 35.98187405 -1090.29373526 32.04973531 -1090.31641868 28.11748464 C-1090.34065666 23.89719782 -1090.34193955 19.67722795 -1090.34070206 15.45687199 C-1090.35150594 14.22269894 -1090.36230983 12.98852589 -1090.3734411 11.71695367 C-1090.36930983 10.60071512 -1090.36517856 9.48447658 -1090.3609221 8.33441263 C-1090.36366199 7.36920883 -1090.36640188 6.40400502 -1090.3692248 5.40955261 C-1090 3 -1090 3 -1088.65791123 1.18954122 C-1086.02989241 -0.69604629 -1083.68399386 -0.36569782 -1080.48979187 -0.35545349 C-1079.48269599 -0.35833308 -1079.48269599 -0.35833308 -1078.45525473 -0.36127084 C-1076.17263108 -0.36394134 -1073.89069468 -0.34480856 -1071.6081543 -0.32592773 C-1069.94158149 -0.32304518 -1068.27500609 -0.3214355 -1066.60843086 -0.32097816 C-1061.94871189 -0.31553839 -1057.28926309 -0.29051935 -1052.62963319 -0.26237035 C-1048.57474022 -0.24031831 -1044.51984752 -0.22942734 -1040.4649114 -0.2185809 C-1026.30775081 -0.18053867 -1012.15087992 -0.10339492 -997.99391079 -0.02243328 C-993.91310235 0.00048809 -989.83228966 0.02231053 -985.75147247 0.04360199 C-985.05651553 0.04722823 -984.36155859 0.05085447 -983.64554235 0.05459059 C-982.9453791 0.05824306 -982.24521585 0.06189554 -981.52383554 0.06565869 C-941.70301032 0.27341604 -901.88262726 0.535139 -862.06226443 0.81688638 C-848.79080217 0.91072268 -835.51931213 0.99967218 -822.24780206 1.08645802 C-808.39301786 1.17709697 -794.53825757 1.27080657 -780.68351668 1.36784559 C-779.11511373 1.37882127 -777.54671074 1.38979234 -775.97830772 1.40075874 C-774.82255831 1.40884001 -774.82255831 1.40884001 -773.64346043 1.41708453 C-768.30005991 1.45425383 -762.95664882 1.48948944 -757.61322975 1.5238781 C-751.12448484 1.56567494 -744.63576822 1.61044617 -738.14706901 1.65883821 C-734.8602527 1.68327735 -731.57344121 1.70606309 -728.28659439 1.7260437 C-715.28654912 1.8059076 -702.29905256 1.99091715 -689.30644226 2.45606995 C-687.62083701 2.51322895 -687.62083701 2.51322895 -685.90117913 2.57154268 C-684.36479548 2.63217853 -684.36479548 2.63217853 -682.79737377 2.69403934 C-681.89218256 2.72880597 -680.98699135 2.7635726 -680.05437011 2.79939276 C-678 3 -678 3 -677 4 C-676.95936168 5.66617115 -676.957279 7.33388095 -677 9 C-711.38304937 9.0769799 -745.76277696 8.87141807 -780.14460375 8.61291331 C-787.82707637 8.55527831 -795.50956581 8.50004237 -803.19205733 8.44499362 C-816.97521389 8.34621672 -830.75836263 8.24639556 -844.54150391 8.14550781 C-845.76734207 8.13653597 -845.76734207 8.13653597 -847.01794465 8.12738287 C-856.09261318 8.06093978 -865.16727956 7.99421015 -874.24194336 7.92712402 C-877.51757811 7.90291137 -880.79321287 7.87869989 -884.06884766 7.85449219 C-884.8771362 7.8485182 -885.68542474 7.84254421 -886.51820688 7.83638918 C-900.2349215 7.73506645 -913.95165037 7.63582203 -927.66839087 7.53806591 C-935.2896648 7.48367692 -942.9109294 7.42836604 -950.53217697 7.37039185 C-981.98086674 7.13161515 -1013.42928545 6.95059807 -1044.87894368 6.91615486 C-1048.08485683 6.91261957 -1051.29075477 6.90694914 -1054.49666095 6.89941216 C-1058.22995445 6.89088497 -1061.96321881 6.8873346 -1065.69652173 6.88783145 C-1067.07269909 6.88725611 -1068.44887687 6.88499028 -1069.82504848 6.88096738 C-1071.7012177 6.87583155 -1073.57740191 6.87748022 -1075.45357704 6.87953186 C-1076.50650149 6.87863084 -1077.55942594 6.87772982 -1078.64425719 6.87680149 C-1080.95737425 6.73430338 -1080.95737425 6.73430338 -1082 8 C-1082.0980214 9.59615384 -1082.12555554 11.1966709 -1082.12584114 12.79583168 C-1082.12844871 13.84271223 -1082.13105628 14.88959278 -1082.13374287 15.96819699 C-1082.13151232 17.1350314 -1082.12928178 18.30186581 -1082.12698364 19.50405884 C-1082.12854523 20.73626439 -1082.13010681 21.96846994 -1082.13171571 23.23801506 C-1082.13503973 26.69113059 -1082.13381381 30.14419233 -1082.13073178 33.5973047 C-1082.12845898 37.34650567 -1082.13191634 41.09570197 -1082.13462734 44.84490204 C-1082.13906862 52.30483557 -1082.13797861 59.76475924 -1082.13515103 67.22469316 C-1082.13293417 73.43569406 -1082.13292844 79.64669163 -1082.13438225 85.85769272 C-1082.13459061 86.75292773 -1082.13479898 87.64816274 -1082.13501366 88.57052609 C-1082.13544705 90.39691886 -1082.13588427 92.22331164 -1082.13632525 94.04970442 C-1082.14051492 112.6805228 -1082.13697522 131.31133537 -1082.13081557 149.94215286 C-1082.13013302 152.00974456 -1082.12945208 154.07733627 -1082.12877274 156.14492798 C-1082.12843498 157.17262183 -1082.12809722 158.20031568 -1082.12774923 159.25915176 C-1082.12445179 169.66811703 -1082.12303436 180.07708234 -1082.1217161 190.48604801 C-1082.10757428 299.26902999 -1081.98691399 408.05167336 -1081 787 C-1080.99699221 787.99569138 -1080.99398443 788.99138276 -1080.9908855 790.0172466 C-1080.72873355 876.79246025 -1080.45277699 963.56762762 -1080 1095 C-1043.81966046 1095.15288907 -1007.63927687 1095.29410745 -971.4588663 1095.42902899 C-969.94720845 1095.43466668 -968.43555061 1095.44030892 -966.9238928 1095.44595575 C-870.3539638 1095.8066661 -773.78396595 1096.06032674 -677.2135441 1096.24612632 C-673.83884174 1096.25261957 -670.46413942 1096.25913284 -667.08943712 1096.26565313 C-613.39282225 1096.36939629 -559.69620112 1096.46952636 -505.99956349 1096.5607914 C-477.49775556 1096.60924153 -448.99595068 1096.65922803 -420.49414971 1096.71162996 C-417.91685187 1096.71636794 -415.339554 1096.72109528 -412.76225612 1096.72581187 C-325.02588479 1096.88650199 -237.2900694 1097.14754813 -4 1098 C-4.17623658 1031.09141455 -4.35262462 964.18282951 -4.52967834 897.27424622 C-4.53235976 896.26092493 -4.53504118 895.24760365 -4.53780385 894.20357565 C-4.59627919 872.10574352 -4.65477757 850.00791144 -4.71329921 827.91007943 C-4.74205722 817.05097419 -4.77081021 806.19186893 -4.79956055 795.33276367 C-4.80241947 794.25296929 -4.8052784 793.1731749 -4.80822396 792.06065948 C-4.89301743 760.03400473 -4.97754629 728.0073493 -5.06186046 695.98069329 C-5.1928569 646.22352706 -5.32432646 596.4663621 -5.45659334 546.70919923 C-5.46209383 544.63996515 -5.46759378 542.57073107 -5.4730932 540.50149699 C-5.74519879 438.11895548 -6.02529715 335.73644156 -7 7 C-57.13310165 6.98289034 -107.2662035 6.9669686 -157.39930725 6.95765686 C-158.51138309 6.95744977 -158.51138309 6.95744977 -159.6459251 6.95723851 C-175.75621964 6.95424595 -191.86651422 6.95147572 -207.97680884 6.94893467 C-215.87671046 6.94768728 -223.77661207 6.94639073 -231.67651367 6.94506836 C-232.46267017 6.9449376 -233.24882667 6.94480684 -234.05880609 6.94467212 C-259.56376926 6.9404069 -285.06873021 6.93289271 -310.57369204 6.92370278 C-336.77221915 6.91428004 -362.97074504 6.90811685 -389.16927382 6.90608501 C-392.8653116 6.90579683 -396.56134938 6.9054712 -400.25738716 6.90512276 C-400.98485689 6.90505533 -401.71232662 6.90498791 -402.46184089 6.90491844 C-414.19613928 6.90373438 -425.9304339 6.89909003 -437.66473075 6.89316797 C-449.44709099 6.8872949 -461.22944715 6.88510971 -473.01180881 6.88649862 C-479.40165283 6.88714235 -485.79148574 6.88612055 -492.18132782 6.88079453 C-498.02070393 6.87596255 -503.86006135 6.87566001 -509.69943828 6.87910111 C-511.82191886 6.879527 -513.94440057 6.87822957 -516.06687891 6.87511682 C-518.93201451 6.87115624 -521.7970809 6.87323447 -524.66221523 6.87695217 C-525.50347392 6.87432516 -526.34473261 6.87169814 -527.21148399 6.86899152 C-530.9077099 6.5260633 -530.9077099 6.5260633 -534 8 C-534.12533087 10.98223174 -534.18611578 13.94241634 -534.20532227 16.92602539 C-534.22017166 18.33075859 -534.22017166 18.33075859 -534.23532104 19.76387024 C-534.26703753 22.87510608 -534.29173341 25.98635722 -534.31640625 29.09765625 C-534.33696703 31.24857492 -534.35796325 33.39948946 -534.37937927 35.55039978 C-534.4346905 41.22377189 -534.48405972 46.89718101 -534.53222656 52.57061768 C-534.58237567 58.35505484 -534.63809606 64.13943796 -534.69335938 69.92382812 C-534.80105158 81.28250598 -534.90247182 92.64123065 -535 104 C-536.98 103.67 -538.96 103.34 -541 103 C-541.06945809 90.16112074 -541.12279004 77.32228605 -541.15543652 64.48325729 C-541.17110383 58.52181113 -541.19236176 52.56049336 -541.22631836 46.59912109 C-541.25887349 40.84791041 -541.27684499 35.09682335 -541.28463173 29.34552765 C-541.29018213 27.14943749 -541.30102048 24.95335423 -541.31719017 22.75731659 C-541.33891304 19.68539212 -541.34196904 16.6139809 -541.34057617 13.54199219 C-541.35675491 12.17497917 -541.35675491 12.17497917 -541.3732605 10.78034973 C-541.36913651 9.94184982 -541.36501251 9.10334991 -541.36076355 8.23944092 C-541.36352893 7.51306805 -541.36629431 6.78669518 -541.36914349 6.038311 C-540.84484838 3.14329449 -540.16502621 2.0407165 -538 0 C-534.9813713 -0.40149234 -532.32432335 -0.54132399 -529.30235386 -0.510602 C-527.94657182 -0.52050702 -527.94657182 -0.52050702 -526.56340024 -0.53061214 C-523.50650243 -0.54800514 -520.45036625 -0.53668589 -517.39344788 -0.52571106 C-515.19106033 -0.53229658 -512.98867744 -0.54063349 -510.78630251 -0.5505802 C-504.71229702 -0.57288632 -498.63851621 -0.57014031 -492.56448281 -0.56346452 C-486.69361466 -0.5608843 -480.82281872 -0.57700659 -474.95197536 -0.5926936 C-462.93812971 -0.62412463 -450.92433182 -0.63678377 -438.91044807 -0.63868141 C-427.00891994 -0.64059322 -415.10744225 -0.65030539 -403.20593071 -0.6706295 C-402.46640825 -0.67188601 -401.72688578 -0.67314253 -400.96495355 -0.67443712 C-397.96320248 -0.67956432 -394.96145151 -0.68475131 -391.95970067 -0.69001587 C-364.58780555 -0.7380188 -337.21592479 -0.76698112 -309.84399414 -0.78393555 C-283.9914307 -0.79996396 -258.13891362 -0.82720687 -232.28637695 -0.86791992 C-231.49007793 -0.86917094 -230.6937789 -0.87042195 -229.8733496 -0.87171088 C-225.86267072 -0.87801384 -221.85199187 -0.88433541 -217.84131303 -0.89066355 C-217.04991145 -0.89191203 -216.25850987 -0.89316051 -215.44312642 -0.89444682 C-213.84733307 -0.89696647 -212.25153973 -0.89949012 -210.65574639 -0.90201776 C-185.25698579 -0.94219552 -159.85821423 -0.97401591 -134.45943939 -1.00367621 C-127.01859772 -1.0123775 -119.57775671 -1.0213906 -112.1369164 -1.03119111 C-96.48487849 -1.05170389 -80.83284718 -1.06945335 -65.18079741 -1.07772396 C-58.70549826 -1.08124474 -52.23021073 -1.08631156 -45.75491714 -1.09566307 C-39.8340876 -1.10413782 -33.91327441 -1.10796965 -27.99243896 -1.10798021 C-25.84374891 -1.10878917 -23.69505872 -1.11130431 -21.5463729 -1.11564348 C-18.6387237 -1.12124828 -15.73113956 -1.12073587 -12.82348728 -1.11860371 C-11.55545498 -1.12323566 -11.55545498 -1.12323566 -10.26180586 -1.12796119 C-6.67004853 -1.11942463 -3.45611602 -0.9694937 0 0 Z " fill="#76CA5B" transform="translate(1177,82)"/>
<path d="M0 0 C0.66 0.33 1.32 0.66 2 1 C2.02578125 2.21816406 2.0515625 3.43632812 2.078125 4.69140625 C2.13443941 6.31513835 2.19178597 7.93883489 2.25 9.5625 C2.26417969 10.36236328 2.27835938 11.16222656 2.29296875 11.98632812 C2.32519531 12.77587891 2.35742188 13.56542969 2.390625 14.37890625 C2.41157227 15.0963501 2.43251953 15.81379395 2.45410156 16.55297852 C2.92005969 19.26861868 2.92005969 19.26861868 5.01367188 22.26757812 C7.44008325 26.31656469 7.52179291 29.70529776 7.390625 34.33984375 C7.38496521 35.10680069 7.37930542 35.87375763 7.37347412 36.66395569 C7.35126494 39.08913314 7.30110262 41.51277694 7.25 43.9375 C7.2299148 45.59177538 7.21166758 47.24607416 7.1953125 48.90039062 C7.15145159 52.93417548 7.08253637 56.96682866 7 61 C6.17000488 61.12334717 5.34000977 61.24669434 4.48486328 61.3737793 C3.39931152 61.54304932 2.31375977 61.71231934 1.1953125 61.88671875 C0.11781738 62.05131592 -0.95967773 62.21591309 -2.06982422 62.38549805 C-5.67365064 63.14127468 -7.59959413 64.19952649 -10 67 C-12.04399538 70.69865831 -12.35657603 73.81023159 -12 78 C-11.12372423 80.78815018 -10.20617243 81.83131346 -7.9375 83.6875 C-3.98393405 85.45398691 -0.33146369 86.12600622 4 86 C7.19963492 84.74796894 8.58410658 83.50501344 10.75 80.875 C12.20286106 77.53341956 12.44574514 74.69972281 12.59375 71.0859375 C13.1019243 68.4766579 13.88173 67.57257984 16 66 C19.1875 65.8125 19.1875 65.8125 22 66 C23.19257386 68.38514771 23.20771658 70.1558799 23.375 72.8125 C23.77905322 76.93621964 24.12408485 79.83649334 27 83 C31.78157631 85.86894578 35.46380215 86.516231 40.98046875 85.6328125 C43.25307602 85.06492833 43.25307602 85.06492833 45.5 82.875 C48.04651393 77.99418164 48.48883501 74.60229255 46.875 69.3125 C44.81924338 65.68066331 43.64901612 64.01860466 40 62 C37.39231048 61.55167483 34.84885264 61.31440756 32.20703125 61.17578125 C30 61 30 61 28 60 C27.90067724 55.55263258 27.82831997 51.10586287 27.78027344 46.65771484 C27.76023209 45.14653264 27.73299095 43.63542728 27.69824219 42.12451172 C27.64938891 39.94479357 27.62695776 37.76610569 27.609375 35.5859375 C27.5779541 33.62213135 27.5779541 33.62213135 27.54589844 31.61865234 C28.07494104 27.40280856 29.51457572 25.38515502 32 22 C32.96116504 19.22994227 33.17039775 16.59204497 33.31640625 13.671875 C33.35830078 12.87265625 33.40019531 12.0734375 33.44335938 11.25 C33.48267578 10.425 33.52199219 9.6 33.5625 8.75 C33.62727539 7.48929688 33.62727539 7.48929688 33.69335938 6.203125 C33.79908543 4.13559329 33.90001295 2.06781719 34 0 C37.90044983 2.60029989 37.93184427 5.1197651 38.8125 9.4375 C42.22696146 23.853758 47.76963701 30.12101959 59.93359375 38.2421875 C74.12965297 47.73618324 84.53143566 64.43533718 88.3125 81 C91.34180272 101.12738633 88.66614184 120.48987737 77.26953125 137.59765625 C75.59871337 139.82668789 73.85286121 141.92058808 72 144 C71.43023438 144.66257812 70.86046875 145.32515625 70.2734375 146.0078125 C58.1312794 159.18334576 41.30403353 166.48067021 23.50390625 167.23828125 C2.31832875 167.71758328 -15.30278291 162.5078137 -31.5078125 148.39453125 C-45.56394238 134.88919016 -53.5115536 117.05277636 -54.25 97.5 C-53.99399374 78.78309756 -45.9772026 59.74640124 -33.234375 46.08984375 C-29.15290889 42.27238856 -24.59738299 39.15860956 -20 36 C-18.51349902 34.94778562 -17.0334883 33.88629407 -15.5625 32.8125 C-14.96566406 32.38582031 -14.36882813 31.95914062 -13.75390625 31.51953125 C-9.19087783 27.56626164 -7.2304223 23.52263209 -5.4375 17.8125 C-5.12389526 16.82817993 -5.12389526 16.82817993 -4.80395508 15.82397461 C-4.19027659 13.88622967 -3.59245918 11.9443248 -3 10 C-2.67515625 8.94296875 -2.3503125 7.8859375 -2.015625 6.796875 C-1.33054086 4.53480474 -0.65706291 2.27033931 0 0 Z " fill="#76CA5B" transform="translate(621,226)"/>
<path d="M0 0 C7.04292206 6.65798502 11.28947587 13.89147542 12.05078125 23.6796875 C12.24402808 36.52426563 10.62292811 43.84481627 1.515625 53.3515625 C-7.87935919 61.71150606 -18.12302414 62.5028649 -30.25 61.8125 C-41.21552374 60.27817126 -48.88658361 54.30624753 -55.80859375 45.890625 C-61.01971462 38.37757269 -61.13099122 29.68180488 -60.25 20.8125 C-58.15310291 11.52454907 -53.72413382 4.03475017 -45.9375 -1.5 C-31.75641669 -10.27082127 -13.25422284 -10.83979135 0 0 Z " fill="#F4F8F9" transform="translate(519.25,737.1875)"/>
<path d="M0 0 C8.49769272 8.42552548 12.98720826 16.33920556 13.3125 28.375 C13.12039522 38.14974319 10.81171529 45.83382893 4 53 C-4.56534375 60.96902235 -14.46612998 63.19840373 -26 63 C-38.24316005 61.55384692 -46.47722005 56.64839998 -54.33984375 47.28515625 C-59.17857777 40.62478119 -60.48079464 32.61218471 -59.78515625 24.4921875 C-58.18869385 14.79177784 -53.91155513 6.02199925 -46 0 C-31.74229326 -8.89037767 -14.08542161 -10.02231922 0 0 Z " fill="#F4F8F9" transform="translate(448,612)"/>
<path d="M0 0 C0.7186322 -0.00807175 1.4372644 -0.01614349 2.17767334 -0.02445984 C3.70761706 -0.03831301 5.23759185 -0.04902964 6.76757812 -0.05688477 C8.30738605 -0.06828243 9.84715845 -0.08853466 11.38671875 -0.1184082 C23.57893191 -0.35480402 36.03512643 -0.13058891 45.921875 7.98828125 C52.83369734 14.90010359 57.03482041 22.45607036 57.23925781 32.35424805 C57.23764648 33.079104 57.23603516 33.80395996 57.234375 34.55078125 C57.23276367 35.30335205 57.23115234 36.05592285 57.22949219 36.83129883 C57.09955651 42.72362685 56.03720055 47.20672413 52.859375 52.23828125 C52.281875 53.29015625 51.704375 54.34203125 51.109375 55.42578125 C45.59134088 62.3233239 38.35388783 66.49028713 29.51875305 67.50785828 C27.09569225 67.59792118 24.69004861 67.6026738 22.265625 67.56640625 C21.3928894 67.56453308 20.52015381 67.56265991 19.62097168 67.56072998 C17.79577758 67.55406033 15.97059651 67.54024882 14.14550781 67.51953125 C11.33905909 67.48805338 8.53317121 67.47852168 5.7265625 67.47265625 C3.94790974 67.46349783 2.16926273 67.4531258 0.390625 67.44140625 C-0.4509314 67.43715637 -1.29248779 67.43290649 -2.1595459 67.42852783 C-8.02338175 67.3555245 -8.02338175 67.3555245 -9.140625 66.23828125 C-9.23471979 64.21333894 -9.25805622 62.18508255 -9.25415039 60.15795898 C-9.25407486 58.85668564 -9.25399933 57.55541229 -9.25392151 56.21470642 C-9.24881409 54.78376223 -9.24359808 53.35281843 -9.23828125 51.921875 C-9.23641703 50.46598865 -9.23499315 49.01010168 -9.23399353 47.55421448 C-9.23016865 43.71548746 -9.22033864 39.87679806 -9.20928955 36.03808594 C-9.19907478 32.12370309 -9.19449577 28.20931419 -9.18945312 24.29492188 C-9.17871634 16.60935782 -9.16164029 8.9238248 -9.140625 1.23828125 C-6.20435175 -0.22985538 -3.22151207 0.03451519 0 0 Z " fill="#F4F8F9" transform="translate(688.140625,605.76171875)"/>
<path d="M0 0 C1.24458984 -0.00386719 2.48917969 -0.00773438 3.77148438 -0.01171875 C5.07537109 -0.00011719 6.37925781 0.01148438 7.72265625 0.0234375 C8.99173828 0.01183594 10.26082031 0.00023437 11.56835938 -0.01171875 C22.49421617 0.02191652 33.10267582 0.5027503 41.1640625 8.59765625 C41.69902344 9.19191406 42.23398437 9.78617188 42.78515625 10.3984375 C43.58953125 11.2646875 44.39390625 12.1309375 45.22265625 13.0234375 C48.25779049 19.57932746 48.71274297 27.2934185 46.78515625 34.2734375 C44.94852674 38.8735142 41.82558337 42.54259015 37.78515625 45.3984375 C36.79515625 45.3984375 35.80515625 45.3984375 34.78515625 45.3984375 C36.92283221 50.8669109 39.63580465 55.45618527 42.97265625 60.2734375 C47.78515625 67.28804112 47.78515625 67.28804112 47.78515625 68.3984375 C45.89133461 68.53435771 43.99465921 68.6308469 42.09765625 68.7109375 C41.04191406 68.76894531 39.98617187 68.82695313 38.8984375 68.88671875 C34.6658027 68.22288017 33.45375288 66.70450779 30.78515625 63.3984375 C30.07101226 62.22765257 29.37886741 61.04322104 28.70703125 59.84765625 C25.01950048 52.86543341 25.01950048 52.86543341 18.66503906 48.75732422 C13.50284964 48.15597826 9.05882556 48.81247424 3.78515625 49.3984375 C3.78515625 55.6684375 3.78515625 61.9384375 3.78515625 68.3984375 C-6.96484375 68.5234375 -6.96484375 68.5234375 -9.21484375 67.3984375 C-9.28432217 59.10571841 -9.33764376 50.81312071 -9.37028027 42.52018261 C-9.38594335 38.66951919 -9.40719298 34.81905475 -9.44116211 30.96850586 C-9.47373321 27.25322321 -9.49169192 23.53813206 -9.49947548 19.82271767 C-9.50502309 18.40450335 -9.51585619 16.98629963 -9.53203392 15.56816673 C-9.55377565 13.58355283 -9.55506888 11.59874664 -9.55541992 9.61401367 C-9.56208176 8.48372238 -9.56874359 7.35343109 -9.5756073 6.18888855 C-9.21484375 3.3984375 -9.21484375 3.3984375 -7.86932373 1.53422546 C-5.30523165 -0.22600431 -3.07570638 0.00926883 0 0 Z " fill="#F4F8F9" transform="translate(580.21484375,729.6015625)"/>
<path d="M0 0 C2.17952332 -0.00959192 4.35805628 -0.04055595 6.53735352 -0.07226562 C25.72833769 -0.21915188 25.72833769 -0.21915188 33.21899414 5.55273438 C39.02198135 11.63879414 40.9327454 16.23315337 41.03149414 24.55273438 C41.05727539 25.84824219 41.08305664 27.14375 41.10961914 28.47851562 C40.60572444 34.25530849 38.36155974 38.08885385 34.28149414 42.11523438 C33.69368164 42.71078125 33.10586914 43.30632813 32.50024414 43.91992188 C30.78149414 45.24023438 30.78149414 45.24023438 27.78149414 45.24023438 C30.09355139 50.17928025 32.90148992 54.56743933 35.96899414 59.05273438 C40.78149414 66.11419126 40.78149414 66.11419126 40.78149414 67.24023438 C30.55204542 68.44962733 30.55204542 68.44962733 26.63696289 65.77539062 C24.80833421 63.69083649 23.28839309 61.5676839 21.78149414 59.24023438 C21.20270508 58.42683594 20.62391602 57.6134375 20.02758789 56.77539062 C15.78149414 50.69687591 15.78149414 50.69687591 15.78149414 48.24023438 C9.84149414 48.24023438 3.90149414 48.24023438 -2.21850586 48.24023438 C-2.54850586 54.51023437 -2.87850586 60.78023437 -3.21850586 67.24023438 C-11.71459961 67.33789062 -11.71459961 67.33789062 -14.21850586 67.24023438 C-15.21850586 66.24023438 -15.21850586 66.24023438 -15.33876038 63.65232849 C-15.33653976 62.49983109 -15.33431915 61.34733368 -15.33203125 60.15991211 C-15.33195572 58.85863876 -15.33188019 57.55736542 -15.33180237 56.21665955 C-15.32669495 54.78571536 -15.32147894 53.35477155 -15.31616211 51.92382812 C-15.31429789 50.46794178 -15.31287401 49.0120548 -15.31187439 47.5561676 C-15.30804951 43.71744058 -15.2982195 39.87875118 -15.28717041 36.04003906 C-15.27695563 32.12565622 -15.27237663 28.21126732 -15.26733398 24.296875 C-15.2565972 16.61131094 -15.23952115 8.92577792 -15.21850586 1.24023438 C-10.82185366 -0.95809172 -4.88629887 0.0129854 0 0 Z " fill="#F4F8F9" transform="translate(566.218505859375,605.759765625)"/>
<path d="M0 0 C1.29854919 -0.03220139 2.59709839 -0.06440277 3.93499756 -0.09757996 C9.09349714 -0.19958315 14.25239278 -0.27441251 19.41161728 -0.32803631 C23.32578147 -0.36901667 27.23744508 -0.42940332 31.15039062 -0.53710938 C34.94074809 -0.64107304 38.72887684 -0.69546787 42.52057648 -0.71549416 C43.9608731 -0.73138704 45.4010916 -0.76453071 46.84056854 -0.81564903 C58.09216883 -1.19608001 58.09216883 -1.19608001 62.12472534 2.45942688 C63.91698134 4.99394442 65.34675241 7.48919671 66.71191406 10.2722168 C67.38480469 11.28413086 68.05769531 12.29604492 68.75097656 13.33862305 C71.91897095 18.32470289 74.90571171 23.31768961 77.57128906 28.5925293 C78.68697142 30.60122429 78.68697142 30.60122429 81.71191406 31.2722168 C82.76228484 29.59549787 83.8125048 27.9186843 84.86206055 26.24145508 C85.7671256 24.7953808 86.67289543 23.3497474 87.5793457 21.90454102 C89.7646648 18.41434129 91.93550248 14.91807991 94.05175781 11.38549805 C94.40753906 10.79470459 94.76332031 10.20391113 95.12988281 9.59521484 C96.09816381 7.98257252 97.05953252 6.36578575 98.02050781 4.7487793 C99.71191406 2.2722168 99.71191406 2.2722168 102.71191406 0.2722168 C109.0452474 -0.06111654 109.0452474 -0.06111654 111.71191406 1.2722168 C111.14521784 5.41804706 109.78638798 8.06582514 107.46191406 11.5222168 C105.22205894 14.9253368 103.08136229 18.31021194 101.14941406 21.8972168 C99.48861903 24.96288106 97.68861974 27.83770932 95.71191406 30.7097168 C89.73873992 39.6317763 86.96146192 46.55952464 86.89941406 57.3972168 C86.87427734 58.4490918 86.84914063 59.5009668 86.82324219 60.5847168 C86.76499497 63.14759426 86.72826 65.70878864 86.71191406 68.2722168 C84.92032917 68.29918045 83.12862933 68.31859597 81.33691406 68.3347168 C80.33917969 68.34631836 79.34144531 68.35791992 78.31347656 68.36987305 C75.71191406 68.2722168 75.71191406 68.2722168 73.71191406 67.2722168 C73.74969971 66.69068848 73.78748535 66.10916016 73.82641602 65.51000977 C74.65166529 48.87155203 70.79016115 38.42376997 61.44091797 24.81420898 C59.28031523 21.63767754 57.27571606 18.37899939 55.2722168 15.10205078 C52.34662538 9.90850047 52.34662538 9.90850047 48.71191406 5.2722168 C48.38191406 7.2522168 48.05191406 9.2322168 47.71191406 11.2722168 C46.81098022 11.30980103 46.81098022 11.30980103 45.8918457 11.34814453 C43.18579969 11.4637696 40.48013123 11.58664616 37.77441406 11.7097168 C36.35612305 11.76869141 36.35612305 11.76869141 34.90917969 11.82885742 C34.01005859 11.87075195 33.1109375 11.91264648 32.18457031 11.95581055 C30.9355896 12.01079712 30.9355896 12.01079712 29.66137695 12.06689453 C27.70852549 12.06588783 27.70852549 12.06588783 26.71191406 13.2722168 C26.58884095 14.98995847 26.53404848 16.71264419 26.5065918 18.43457031 C26.48664658 19.53563614 26.46670135 20.63670197 26.44615173 21.77113342 C26.42943924 22.96903 26.41272675 24.16692657 26.39550781 25.40112305 C26.37472672 26.62049057 26.35394562 27.83985809 26.33253479 29.09617615 C26.26690979 33.00896325 26.20809434 36.92181996 26.14941406 40.8347168 C26.10624115 43.47990642 26.06262728 46.12508889 26.01855469 48.77026367 C25.91121526 55.27084016 25.80947339 61.77148658 25.71191406 68.2722168 C23.73282009 68.29908233 21.75362435 68.31855055 19.77441406 68.3347168 C18.67226563 68.34631836 17.57011719 68.35791992 16.43457031 68.36987305 C13.71191406 68.2722168 13.71191406 68.2722168 12.71191406 67.2722168 C12.58884095 65.55447512 12.53404848 63.83178941 12.5065918 62.10986328 C12.48664658 61.00879745 12.46670135 59.90773163 12.44615173 58.77330017 C12.42943924 57.57540359 12.41272675 56.37750702 12.39550781 55.14331055 C12.37472672 53.92394302 12.35394562 52.7045755 12.33253479 51.44825745 C12.26690979 47.53547034 12.20809434 43.62261363 12.14941406 39.7097168 C12.10624115 37.06452717 12.06262728 34.41934471 12.01855469 31.77416992 C11.91121526 25.27359344 11.80947339 18.77294701 11.71191406 12.2722168 C11.1112915 12.24716064 10.51066895 12.22210449 9.8918457 12.19628906 C7.18579969 12.080664 4.48013123 11.95778744 1.77441406 11.8347168 C0.82888672 11.79540039 -0.11664062 11.75608398 -1.09082031 11.71557617 C-1.98994141 11.67368164 -2.8890625 11.63178711 -3.81542969 11.58862305 C-4.6480835 11.55196533 -5.4807373 11.51530762 -6.33862305 11.47753906 C-8.28808594 11.2722168 -8.28808594 11.2722168 -9.28808594 10.2722168 C-9.35988558 8.75293642 -9.37200601 7.23054198 -9.35058594 5.7097168 C-9.3415625 4.88342773 -9.33253906 4.05713867 -9.32324219 3.20581055 C-9.31164062 2.56772461 -9.30003906 1.92963867 -9.28808594 1.2722168 C-6.00571874 0.1780944 -3.45726028 0.08438908 0 0 Z " fill="#F3F7F8" transform="translate(868.2880859375,729.727783203125)"/>
<path d="M0 0 C2.40775574 1.79283344 4.11807852 4.00395349 5.9375 6.375 C6.71879272 7.34010498 6.71879272 7.34010498 7.51586914 8.32470703 C9.02988147 10.20205421 10.51645263 12.09855196 12 14 C13.31204413 15.6253681 14.62448206 17.25041848 15.9375 18.875 C17.29198698 20.58307937 18.64610255 22.2914533 20 24 C22.24145195 26.81943194 24.49342282 29.63016394 26.75 32.4375 C27.30550537 33.13665527 27.86101074 33.83581055 28.43334961 34.55615234 C29.23204468 35.54736084 29.23204468 35.54736084 30.046875 36.55859375 C30.51963867 37.14954834 30.99240234 37.74050293 31.47949219 38.34936523 C33.26537076 40.38849743 33.26537076 40.38849743 37 43 C37.33 29.14 37.66 15.28 38 1 C40.40545638 -0.20272819 41.94996953 -0.10071472 44.625 -0.0625 C45.85089844 -0.04896484 45.85089844 -0.04896484 47.1015625 -0.03515625 C47.72804688 -0.02355469 48.35453125 -0.01195312 49 0 C50.40607756 2.81215512 50.11950486 5.1404422 50.11352539 8.28564453 C50.11367142 8.92967224 50.11381744 9.57369995 50.1139679 10.23724365 C50.1132704 12.36913402 50.10548566 14.50093737 50.09765625 16.6328125 C50.09579149 18.10968986 50.09436786 19.58656784 50.09336853 21.06344604 C50.08954792 24.95312199 50.07972152 28.84276067 50.06866455 32.73242188 C50.05844064 36.70051571 50.05386881 40.66861555 50.04882812 44.63671875 C50.03809885 52.42449616 50.02102789 60.21224286 50 68 C48.41097849 68.07974328 46.82079239 68.13648684 45.23046875 68.18359375 C44.34512451 68.21767334 43.45978027 68.25175293 42.54760742 68.28686523 C38.69711317 67.85329257 37.06418728 65.93715917 34.6171875 63.08984375 C34.08351563 62.40019531 33.54984375 61.71054687 33 61 C32.50757813 60.38253906 32.01515625 59.76507812 31.5078125 59.12890625 C30.3968318 57.71116222 29.29911973 56.28297353 28.2109375 54.84765625 C24.64741822 50.25789379 20.91844072 45.80497248 17.21386719 41.32885742 C13.19389524 36.46607533 9.23715613 31.56403162 5.35546875 26.58984375 C4.90816406 26.06519531 4.46085937 25.54054688 4 25 C3.67 25 3.34 25 3 25 C2.67 39.19 2.34 53.38 2 68 C-8 68 -8 68 -10 67 C-10.06947842 58.70728091 -10.12280001 50.41468321 -10.15543652 42.12174511 C-10.1710996 38.27108169 -10.19234923 34.42061725 -10.22631836 30.57006836 C-10.25888946 26.85478571 -10.27684817 23.13969456 -10.28463173 19.42428017 C-10.29017934 18.00606585 -10.30101244 16.58786213 -10.31719017 15.16972923 C-10.3389319 13.18511533 -10.34022513 11.20030914 -10.34057617 9.21557617 C-10.34723801 8.08528488 -10.35389984 6.95499359 -10.36076355 5.79045105 C-10 3 -10 3 -8.68598938 1.14814758 C-5.68918089 -0.89265912 -3.49950336 -0.55665483 0 0 Z " fill="#F4F8F9" transform="translate(337,730)"/>
<path d="M0 0 C1.15628906 -0.09087891 1.15628906 -0.09087891 2.3359375 -0.18359375 C5.92561193 0.79039641 6.73656441 3.32539202 8.625 6.4375 C9.8096209 8.81828251 10.9357665 11.1832352 12.015625 13.609375 C12.32153061 14.28522644 12.62743622 14.96107788 12.94261169 15.65740967 C13.9252351 17.83182207 14.90024588 20.00955014 15.875 22.1875 C16.55011559 23.68573689 17.22565423 25.18378321 17.90161133 26.68164062 C19.81684935 30.93027423 21.7224933 35.1831529 23.625 39.4375 C24.09147949 40.47970703 24.55795898 41.52191406 25.03857422 42.59570312 C27.24754349 47.53707717 29.43998156 52.48549694 31.625 57.4375 C31.9854541 58.22640625 32.3459082 59.0153125 32.71728516 59.828125 C33.08515137 60.63765625 33.45301758 61.4471875 33.83203125 62.28125 C34.17339111 63.02568359 34.51475098 63.77011719 34.86645508 64.53710938 C35.625 66.4375 35.625 66.4375 35.625 68.4375 C31.57008157 68.78178553 27.6710461 68.94055119 23.625 68.4375 C21.125 66 21.125 66 19.625 62.4375 C18.305 59.4675 16.985 56.4975 15.625 53.4375 C4.735 53.4375 -6.155 53.4375 -17.375 53.4375 C-18.365 56.4075 -19.355 59.3775 -20.375 62.4375 C-21.33223017 64.45831924 -22.31488057 66.46870677 -23.375 68.4375 C-27.335 68.4375 -31.295 68.4375 -35.375 68.4375 C-35.705 67.7775 -36.035 67.1175 -36.375 66.4375 C-35.41268298 63.96619492 -34.38459452 61.61259927 -33.25390625 59.21875 C-32.91877518 58.492892 -32.5836441 57.767034 -32.23835754 57.0191803 C-31.1452019 54.65524087 -30.04138141 52.29644722 -28.9375 49.9375 C-27.81774788 47.52322286 -26.70058563 45.10775782 -25.58343506 42.692276 C-24.84989587 41.10698338 -24.11540317 39.52213161 -23.37994385 37.93772888 C-20.77314406 32.31907905 -18.23236337 26.67480261 -15.75 21 C-6.65362773 0.36473375 -6.65362773 0.36473375 0 0 Z " fill="#F4F8F9" transform="translate(734.375,729.5625)"/>
<path d="M0 0 C0.91007813 0.00902344 1.82015625 0.01804687 2.7578125 0.02734375 C3.80582031 0.04474609 3.80582031 0.04474609 4.875 0.0625 C11.4083152 12.78324901 17.40955859 25.73450489 23.35253906 38.73974609 C24.84820358 42.00401711 26.35618466 45.26233644 27.8671875 48.51953125 C28.78669508 50.51291164 29.70597695 52.50639617 30.625 54.5 C31.05538574 55.42312988 31.48577148 56.34625977 31.92919922 57.29736328 C32.31865723 58.14669434 32.70811523 58.99602539 33.109375 59.87109375 C33.45194336 60.61157959 33.79451172 61.35206543 34.14746094 62.11499023 C34.875 64.0625 34.875 64.0625 34.875 67.0625 C30.81991031 67.40680007 26.9212502 67.5649049 22.875 67.0625 C18.45437612 62.85751631 17.8663455 58.03653651 15.875 52.0625 C4.655 52.3925 -6.565 52.7225 -18.125 53.0625 C-19.115 56.0325 -20.105 59.0025 -21.125 62.0625 C-22.115 64.5375 -22.115 64.5375 -23.125 67.0625 C-27.415 67.0625 -31.705 67.0625 -36.125 67.0625 C-35.35567682 63.2158841 -34.68502851 60.76866276 -33.078125 57.34375 C-32.65152588 56.42529297 -32.22492676 55.50683594 -31.78540039 54.56054688 C-31.0872522 53.07651367 -31.0872522 53.07651367 -30.375 51.5625 C-29.37763554 49.41725699 -28.38160251 47.2713946 -27.38671875 45.125 C-26.85868652 43.98675781 -26.3306543 42.84851563 -25.78662109 41.67578125 C-22.58257351 34.70841359 -19.47094119 27.69915341 -16.35583496 20.69165039 C-7.11484722 -0.09121599 -7.11484722 -0.09121599 0 0 Z " fill="#F4F8F9" transform="translate(851.125,605.9375)"/>
<path d="M0 0 C1.38120529 0.0001133 1.38120529 0.0001133 2.79031372 0.00022888 C4.28412064 0.00797081 4.28412064 0.00797081 5.80810547 0.01586914 C7.33538773 0.01799156 7.33538773 0.01799156 8.89352417 0.02015686 C12.15414332 0.02576639 15.41469448 0.03832051 18.67529297 0.05102539 C20.88232323 0.05603916 23.08935456 0.06060228 25.29638672 0.06469727 C30.71437877 0.07573891 36.13233101 0.09248634 41.55029297 0.11352539 C42.75302116 2.51898177 42.65100769 4.06349492 42.61279297 6.73852539 C42.60376953 7.55579102 42.59474609 8.37305664 42.58544922 9.21508789 C42.57384766 9.84157227 42.56224609 10.46805664 42.55029297 11.11352539 C40.96776733 11.15110962 40.96776733 11.15110962 39.35327148 11.18945312 C35.45258669 11.28336648 31.55208671 11.38362573 27.65161133 11.48583984 C25.96089998 11.52924978 24.27014306 11.57092028 22.5793457 11.61083984 C20.15415691 11.66839633 17.72919882 11.73213188 15.30419922 11.79711914 C14.16356773 11.82218788 14.16356773 11.82218788 12.99989319 11.84776306 C9.47947266 11.63443807 9.47947266 11.63443807 6.55029297 13.11352539 C6.31501524 15.46339801 6.1364288 17.81908578 5.98779297 20.17602539 C5.90400391 21.46637695 5.82021484 22.75672852 5.73388672 24.08618164 C5.67330078 25.08520508 5.61271484 26.08422852 5.55029297 27.11352539 C8.84079046 28.21035789 11.43340551 28.30308338 14.89794922 28.39477539 C16.14253906 28.4321582 17.38712891 28.46954102 18.66943359 28.50805664 C21.3022433 28.57847354 23.93505582 28.64878573 26.56787109 28.71899414 C27.81117188 28.75637695 29.05447266 28.79375977 30.33544922 28.83227539 C32.05066772 28.87771484 32.05066772 28.87771484 33.80053711 28.92407227 C36.55029297 29.11352539 36.55029297 29.11352539 38.55029297 30.11352539 C38.55029297 33.08352539 38.55029297 36.05352539 38.55029297 39.11352539 C23.20529297 39.60852539 23.20529297 39.60852539 7.55029297 40.11352539 C6.04872423 43.11666287 6.45748093 45.90420062 6.48779297 49.23852539 C6.49681641 50.51985352 6.50583984 51.80118164 6.51513672 53.12133789 C6.52673828 54.10875977 6.53833984 55.09618164 6.55029297 56.11352539 C7.63560303 56.13858154 8.72091309 56.1636377 9.83911133 56.18945312 C13.85160896 56.28336294 17.86392679 56.38362306 21.8762207 56.48583984 C23.61543585 56.52925112 25.35469532 56.57092151 27.09399414 56.61083984 C29.58867785 56.66839307 32.08313707 56.73212959 34.57763672 56.79711914 C35.75107887 56.82218788 35.75107887 56.82218788 36.94822693 56.84776306 C42.43642126 56.99965368 42.43642126 56.99965368 43.55029297 58.11352539 C43.62234808 59.79961505 43.63415364 61.48853198 43.61279297 63.17602539 C43.60376953 64.09512695 43.59474609 65.01422852 43.58544922 65.96118164 C43.57384766 66.67145508 43.56224609 67.38172852 43.55029297 68.11352539 C36.5902585 68.13879377 29.63023577 68.15635761 22.67016602 68.16845703 C20.30036985 68.1734988 17.93057682 68.18033204 15.56079102 68.18896484 C12.16275258 68.20103729 8.76475512 68.2067551 5.36669922 68.21118164 C4.30004532 68.21634293 3.23339142 68.22150421 2.13441467 68.2268219 C1.15347336 68.22689743 0.17253204 68.22697296 -0.83813477 68.22705078 C-1.70639389 68.22927139 -2.57465302 68.231492 -3.46922302 68.23377991 C-5.44970703 68.11352539 -5.44970703 68.11352539 -6.44970703 67.11352539 C-6.54384391 65.05795878 -6.56713701 62.99912358 -6.56323242 60.94140625 C-6.56337845 60.29752457 -6.56352448 59.65364288 -6.56367493 58.99024963 C-6.56297588 56.85292237 -6.55518394 54.71568126 -6.54736328 52.57836914 C-6.54549907 51.10006254 -6.54407518 49.62175532 -6.54307556 48.14344788 C-6.53925062 44.24553737 -6.52942055 40.3476639 -6.51837158 36.44976807 C-6.50815695 32.47506206 -6.50357783 28.5003501 -6.49853516 24.52563477 C-6.48779825 16.72158139 -6.47072212 8.91755857 -6.44970703 1.11352539 C-4.07579867 -0.07342879 -2.64725752 -0.00723294 0 0 Z " fill="#F4F8F9" transform="translate(648.44970703125,729.886474609375)"/>
<path d="M0 0 C1.34149109 -0.00956978 1.34149109 -0.00956978 2.71008301 -0.01933289 C3.6778064 -0.02044571 4.64552979 -0.02155853 5.64257812 -0.02270508 C6.6338269 -0.02603348 7.62507568 -0.02936188 8.6463623 -0.03279114 C10.7445428 -0.03785926 12.84273136 -0.0401995 14.94091797 -0.04003906 C18.16061581 -0.04222735 21.37997213 -0.06038928 24.59960938 -0.0793457 C26.63476445 -0.08227921 28.66992116 -0.08426429 30.70507812 -0.08520508 C31.67280151 -0.09239059 32.6405249 -0.09957611 33.63757324 -0.10697937 C34.53190063 -0.10390274 35.42622803 -0.10082611 36.34765625 -0.09765625 C37.13660278 -0.09908127 37.92554932 -0.10050629 38.73840332 -0.10197449 C40.67382812 0.14526367 40.67382812 0.14526367 42.67382812 2.14526367 C42.67382812 5.11526367 42.67382812 8.08526367 42.67382812 11.14526367 C30.79382813 11.14526367 18.91382813 11.14526367 6.67382812 11.14526367 C6.67382812 16.42526367 6.67382812 21.70526367 6.67382812 27.14526367 C8.81625 27.19424805 10.95867188 27.24323242 13.16601562 27.29370117 C15.23786486 27.34769073 17.30959716 27.40500599 19.38134766 27.46264648 C20.82266553 27.50096041 22.26407981 27.5358091 23.70556641 27.56713867 C25.77606698 27.61273813 27.84590245 27.67073811 29.91601562 27.73120117 C31.16237793 27.76262207 32.40874023 27.79404297 33.69287109 27.82641602 C36.67382812 28.14526367 36.67382812 28.14526367 38.67382812 30.14526367 C38.67382812 32.78526367 38.67382812 35.42526367 38.67382812 38.14526367 C22.83382812 38.64026367 22.83382812 38.64026367 6.67382812 39.14526367 C6.34382812 44.75526367 6.01382813 50.36526367 5.67382812 56.14526367 C8.33316406 56.20584961 10.9925 56.26643555 13.73242188 56.32885742 C16.29731225 56.39059897 18.86215637 56.45400644 21.42700195 56.51757812 C23.21472083 56.56099067 25.00248287 56.60266096 26.7902832 56.64257812 C29.35446203 56.70012827 31.91842225 56.7638657 34.48242188 56.82885742 C35.28659042 56.84556992 36.09075897 56.86228241 36.91929626 56.87950134 C42.55995642 57.03139197 42.55995642 57.03139197 43.67382812 58.14526367 C43.74562776 59.66454405 43.7577482 61.18693849 43.73632812 62.70776367 C43.72730469 63.53405273 43.71828125 64.3603418 43.70898438 65.21166992 C43.69738281 65.84975586 43.68578125 66.4878418 43.67382812 67.14526367 C36.71379366 67.17053205 29.75377093 67.18809589 22.79370117 67.20019531 C20.42390501 67.20523709 18.05411197 67.21207032 15.68432617 67.22070312 C12.28628774 67.23277557 8.88829027 67.23849338 5.49023438 67.24291992 C4.42358047 67.24808121 3.35692657 67.25324249 2.25794983 67.25856018 C1.27700851 67.25863571 0.2960672 67.25871124 -0.71459961 67.25878906 C-1.58285873 67.26100967 -2.45111786 67.26323029 -3.34568787 67.26551819 C-5.32617188 67.14526367 -5.32617188 67.14526367 -6.32617188 66.14526367 C-6.42026666 64.12032136 -6.44360309 62.09206497 -6.43969727 60.06494141 C-6.43962173 58.76366806 -6.4395462 57.46239471 -6.43946838 56.12168884 C-6.43436096 54.69074465 -6.42914496 53.25980085 -6.42382812 51.82885742 C-6.42196391 50.37297107 -6.42054002 48.9170841 -6.41954041 47.4611969 C-6.41571553 43.62246988 -6.40588551 39.78378048 -6.39483643 35.94506836 C-6.38462165 32.03068552 -6.38004264 28.11629662 -6.375 24.2019043 C-6.36426321 16.51634024 -6.34718716 8.83080722 -6.32617188 1.14526367 C-3.98979176 -0.02292638 -2.60278308 0.01257536 0 0 Z " fill="#F4F8F9" transform="translate(765.326171875,605.854736328125)"/>
<path d="M0 0 C0.80308594 0.01417969 1.60617187 0.02835938 2.43359375 0.04296875 C3.64208984 0.05263672 3.64208984 0.05263672 4.875 0.0625 C6.87109375 0.23046875 6.87109375 0.23046875 7.87109375 1.23046875 C8.00683414 4.01954241 8.08178212 6.78724864 8.1171875 9.578125 C8.15015704 11.31575966 8.18336811 13.05338974 8.21679688 14.79101562 C8.26399663 17.53373706 8.30835551 20.27644429 8.34790039 23.01928711 C8.38793351 25.66410992 8.43943408 28.30852943 8.4921875 30.953125 C8.50060165 31.76177505 8.50901581 32.57042511 8.51768494 33.40357971 C8.66809931 40.42608755 9.44878538 47.49784679 13.87109375 53.23046875 C19.09327222 56.97972509 23.49076403 57.66303348 29.87109375 57.23046875 C35.60217423 55.27977513 35.60217423 55.27977513 39.87109375 51.23046875 C42.16399989 45.83407625 42.21367416 40.78377982 42.28515625 35.01953125 C42.3045224 34.05139496 42.32388855 33.08325867 42.34384155 32.08578491 C42.40337705 29.00910105 42.44991845 25.93237924 42.49609375 22.85546875 C42.53429748 20.76300498 42.5733506 18.67055653 42.61328125 16.578125 C42.7090572 11.46236479 42.79318417 6.34653099 42.87109375 1.23046875 C45.25075495 0.04063815 46.7859511 0.09696909 49.43359375 0.10546875 C50.64208984 0.10160156 50.64208984 0.10160156 51.875 0.09765625 C53.87109375 0.23046875 53.87109375 0.23046875 54.87109375 1.23046875 C54.9795341 2.61977532 55.0201029 4.0144795 55.03222656 5.40795898 C55.04183411 6.29656113 55.05144165 7.18516327 55.06134033 8.10069275 C55.06559021 9.07035477 55.06984009 10.04001678 55.07421875 11.0390625 C55.07991882 12.03494888 55.0856189 13.03083527 55.0914917 14.05690002 C55.10096405 16.17455986 55.1074845 18.29223458 55.11132812 20.40991211 C55.12095943 23.62315489 55.15193038 26.83573771 55.18359375 30.04882812 C55.19013112 32.10806913 55.1953787 34.1673147 55.19921875 36.2265625 C55.21156555 37.17800644 55.22391235 38.12945038 55.2366333 39.10972595 C55.21022472 47.17874358 54.30032421 54.95732923 48.68359375 61.10546875 C41.54011271 67.49541803 33.82839022 69.61255742 24.359375 69.4375 C15.23825825 68.67860018 8.43319008 65.6011706 1.87109375 59.23046875 C-4.07529481 52.06430818 -4.43494195 44.02705667 -4.39453125 35.11328125 C-4.3964447 34.17491425 -4.39835815 33.23654724 -4.40032959 32.26974487 C-4.40168261 30.30157195 -4.39804831 28.33338984 -4.38964844 26.36523438 C-4.37886371 23.34354928 -4.38961063 20.32244894 -4.40234375 17.30078125 C-4.40102341 15.38411327 -4.39846363 13.46744565 -4.39453125 11.55078125 C-4.39857971 10.64562775 -4.40262817 9.74047424 -4.40679932 8.80789185 C-4.400495 7.97297211 -4.39419067 7.13805237 -4.38769531 6.27783203 C-4.38610413 5.54251251 -4.38451294 4.80719299 -4.38287354 4.04959106 C-3.98219468 1.17959995 -2.81533916 0.30477984 0 0 Z " fill="#F4F8F9" transform="translate(478.12890625,605.76953125)"/>
<path d="M0 0 C0.54398438 0.46019531 1.08796875 0.92039062 1.6484375 1.39453125 C1.3184375 4.03453125 0.9884375 6.67453125 0.6484375 9.39453125 C-3.76095191 10.701017 -6.33891537 9.95956111 -10.6015625 8.39453125 C-17.94566047 5.99628909 -22.59473504 6.25406577 -29.8515625 8.45703125 C-32.70236295 10.6664016 -32.78092578 11.17351255 -33.2265625 14.58203125 C-33.2678125 15.84015625 -33.3090625 17.09828125 -33.3515625 18.39453125 C-26.62988309 22.17353995 -19.97662418 24.4714894 -12.5546875 26.51171875 C-4.72649947 28.66924374 -0.13891219 31.68683224 4.6484375 38.39453125 C6.18186258 42.9948065 6.19173359 47.44772027 4.8984375 52.08203125 C1.55286622 58.27133812 -2.79923705 61.8968331 -9.453125 64.0859375 C-18.15925935 66.28554388 -25.95649731 65.70875909 -34.6015625 63.64453125 C-35.27517822 63.48774902 -35.94879395 63.3309668 -36.64282227 63.16943359 C-41.30376389 61.96716771 -44.54097996 60.21104878 -48.3515625 57.39453125 C-47.95504333 56.07580463 -47.53357559 54.76456024 -47.1015625 53.45703125 C-46.86953125 52.72613281 -46.6375 51.99523437 -46.3984375 51.2421875 C-45.3515625 49.39453125 -45.3515625 49.39453125 -43.5703125 48.48828125 C-40.52773893 48.3597218 -38.8000314 49.44133987 -36.1015625 50.83203125 C-28.6872044 54.09690234 -21.3539097 54.66544072 -13.3515625 53.39453125 C-10.39366745 51.69994406 -10.39366745 51.69994406 -8.3515625 49.39453125 C-7.69130743 45.87317087 -7.8155431 44.21021294 -9.7890625 41.20703125 C-14.15750808 38.11715511 -19.01960882 36.88697378 -24.21875 35.7890625 C-32.67782393 33.9764038 -41.36557409 30.87351387 -46.3515625 23.39453125 C-47.99134799 17.14361963 -47.40159678 12.05204582 -44.3515625 6.39453125 C-40.1400909 -0.24172703 -34.33624873 -2.44211849 -26.82421875 -4.1953125 C-18.15019065 -5.63413233 -7.42825123 -5.07144727 0 0 Z " fill="#F4F8F9" transform="translate(938.3515625,609.60546875)"/>
<path d="M0 0 C4.41550133 3.45560974 7.47697315 7.59571117 9 13 C9.83964021 21.69494088 10.08577193 29.03261139 4.31640625 36.046875 C3.73761719 36.60890625 3.15882813 37.1709375 2.5625 37.75 C1.98628906 38.32234375 1.41007812 38.8946875 0.81640625 39.484375 C-4.59282516 43.99788422 -11.3410968 44.375718 -18.1796875 43.82421875 C-24.37326372 42.59296565 -30.49998001 39.17997048 -34.421875 34.19140625 C-37.88036018 28.36461057 -38.73706402 22.65433853 -38 16 C-36.30255035 9.54969134 -33.69455822 3.74950335 -28 0 C-17.86791291 -4.8976856 -10.02788206 -5.20153746 0 0 Z " fill="#003244" transform="translate(439,620)"/>
<path d="M0 0 C5.64173247 3.37316215 8.96974278 8.36919283 11.5 14.375 C11.81063862 17.12597087 11.97841781 19.57326199 11.9375 22.3125 C11.92920166 23.02325684 11.92090332 23.73401367 11.91235352 24.46630859 C11.69652141 31.12254016 10.51038966 34.26256324 5.88671875 39.04296875 C-0.11682473 44.64716344 -5.73769966 45.80695487 -13.828125 45.62109375 C-17.59261799 45.27436413 -20.21259883 44.23579312 -23.5 42.375 C-24.180625 41.99601563 -24.86125 41.61703125 -25.5625 41.2265625 C-30.86039184 37.85694747 -33.11712331 34.22163386 -34.94140625 28.24609375 C-36.26548697 21.44050402 -35.16798731 15.2374229 -31.796875 9.19140625 C-29.49557838 5.96820465 -26.71130453 3.65559459 -23.5 1.375 C-22.200625 0.446875 -22.200625 0.446875 -20.875 -0.5 C-14.23370729 -2.71376424 -6.46539681 -2.93769931 0 0 Z " fill="#003244" transform="translate(506.5,742.625)"/>
<path d="M0 0 C3.62471857 -0.11783281 7.24893403 -0.18778808 10.875 -0.25 C11.88820313 -0.28351562 12.90140625 -0.31703125 13.9453125 -0.3515625 C21.83155755 -0.45266821 29.33106439 0.44733347 35.21875 6.1484375 C35.85296875 7.25058594 35.85296875 7.25058594 36.5 8.375 C37.18449219 9.56222656 37.18449219 9.56222656 37.8828125 10.7734375 C41.38433308 17.75199251 42.30190254 24.59394005 39.9375 32.125 C37.28878315 38.35508048 32.42921629 42.89334934 26.16748047 45.42651367 C21.59579907 46.63611939 16.8810994 46.34404833 12.1875 46.25 C11.13884766 46.24484375 10.09019531 46.2396875 9.00976562 46.234375 C1.30988726 46.15494363 1.30988726 46.15494363 -1 45 C-1.02467081 38.91276345 -1.04284604 32.82555583 -1.05493164 26.73828125 C-1.05996852 24.66633599 -1.06679825 22.5943943 -1.07543945 20.52246094 C-1.08753321 17.54881918 -1.09323467 14.57522431 -1.09765625 11.6015625 C-1.10281754 10.67131256 -1.10797882 9.74106262 -1.11329651 8.78262329 C-1.11337204 7.92188202 -1.11344757 7.06114075 -1.11352539 6.17431641 C-1.115746 5.41486725 -1.11796661 4.65541809 -1.12025452 3.87295532 C-1 2 -1 2 0 0 Z " fill="#003244" transform="translate(692,617)"/>
<path d="M0 0 C1.08096954 0.00007553 2.16193909 0.00015106 3.27566528 0.00022888 C5.03195755 0.00797081 5.03195755 0.00797081 6.82373047 0.01586914 C8.019487 0.01728409 9.21524353 0.01869904 10.44723511 0.02015686 C14.27848784 0.02576876 18.10968281 0.03832331 21.94091797 0.05102539 C24.53336504 0.05603886 27.12581303 0.06060203 29.71826172 0.06469727 C36.08416695 0.07574206 42.45003833 0.0924918 48.81591797 0.11352539 C49.81591797 2.11352539 49.81591797 2.11352539 49.81591797 11.11352539 C42.55591797 11.44352539 35.29591797 11.77352539 27.81591797 12.11352539 C27.81591797 30.59352539 27.81591797 49.07352539 27.81591797 68.11352539 C23.85591797 68.11352539 19.89591797 68.11352539 15.81591797 68.11352539 C14.12356164 66.42116906 14.64757988 64.2706081 14.6105957 61.95117188 C14.59065048 60.85010605 14.57070526 59.74904022 14.55015564 58.61460876 C14.53344315 57.41671219 14.51673065 56.21881561 14.49951172 54.98461914 C14.47873062 53.76525162 14.45794952 52.54588409 14.4365387 51.28956604 C14.37091369 47.37677894 14.31209825 43.46392223 14.25341797 39.55102539 C14.21024506 36.90583577 14.16663119 34.2606533 14.12255859 31.61547852 C14.01521917 25.11490203 13.9134773 18.6142556 13.81591797 12.11352539 C13.21529541 12.08846924 12.61467285 12.06341309 11.99584961 12.03759766 C9.2898036 11.92197259 6.58413514 11.79909603 3.87841797 11.67602539 C2.93289063 11.63670898 1.98736328 11.59739258 1.01318359 11.55688477 C0.1140625 11.51499023 -0.78505859 11.4730957 -1.71142578 11.42993164 C-2.54407959 11.39327393 -3.3767334 11.35661621 -4.23461914 11.31884766 C-6.18408203 11.11352539 -6.18408203 11.11352539 -7.18408203 10.11352539 C-7.25588167 8.59424501 -7.2680021 7.07185057 -7.24658203 5.55102539 C-7.23755859 4.72473633 -7.22853516 3.89844727 -7.21923828 3.04711914 C-7.20763672 2.4090332 -7.19603516 1.77094727 -7.18408203 1.11352539 C-4.63469388 -0.16116868 -2.85367205 -0.00663645 0 0 Z " fill="#F4F8F9" transform="translate(404.18408203125,729.886474609375)"/>
<path d="M0 0 C3.8560946 -0.69033158 7.17122038 -0.92881446 11 0 C14.15948263 3.23990583 16.01433216 6.96284109 18 11 C18.67818857 12.19284231 19.36406137 13.38140052 20.0625 14.5625 C20.701875 15.696875 21.34125 16.83125 22 18 C23.60293567 20.62515519 25.209826 23.2475653 26.828125 25.86328125 C28 28 28 28 28 30 C29.32 30.33 30.64 30.66 32 31 C32.65802612 29.90328979 32.65802612 29.90328979 33.3293457 28.78442383 C37.88623047 21.18961589 42.44311523 13.59480794 47 6 C47.52746826 5.07276123 48.05493652 4.14552246 48.59838867 3.19018555 C50 1 50 1 52 0 C53.875 -0.1328125 53.875 -0.1328125 56 -0.125 C57.051875 -0.12886719 57.051875 -0.12886719 58.125 -0.1328125 C60 0 60 0 62 1 C60.66320308 6.07982828 58.24604721 10.12428078 55.51171875 14.546875 C54.26465041 16.57054146 53.08545073 18.60713214 51.9375 20.6875 C50.54850364 23.06223571 49.18210424 25.17696567 47.5625 27.375 C44.64570488 31.36876563 42.29456972 35.62551386 40 40 C39.47019531 40.85722656 38.94039063 41.71445312 38.39453125 42.59765625 C36.44840581 47.34576621 36.43310929 51.78873407 36.3125 56.875 C36.27833984 57.84953125 36.24417969 58.8240625 36.20898438 59.828125 C36.12695707 62.21863491 36.05766152 64.60879905 36 67 C34.18757948 67.02687279 32.37504767 67.04633715 30.5625 67.0625 C29.55316406 67.07410156 28.54382813 67.08570313 27.50390625 67.09765625 C25 67 25 67 24 66 C23.93965241 64.52853409 23.93946351 63.05451541 23.96484375 61.58203125 C23.97001257 49.81468915 23.32158629 41.87069966 16.42333984 32.09570312 C13.97232421 28.48686639 11.77553737 24.72298133 9.5300293 20.98413086 C7.69250527 17.92488767 5.83934349 14.87595032 3.9765625 11.83203125 C3.45143066 10.97327393 2.92629883 10.1145166 2.38525391 9.22973633 C1.28940606 7.46583461 0.15188565 5.72782847 -1 4 C-0.625 1.8125 -0.625 1.8125 0 0 Z " fill="#F4F8F9" transform="translate(322,606)"/>
<path d="M0 0 C1.21816406 0.03480469 1.21816406 0.03480469 2.4609375 0.0703125 C3.68683594 0.09738281 3.68683594 0.09738281 4.9375 0.125 C5.87722656 0.15980469 5.87722656 0.15980469 6.8359375 0.1953125 C8.10187189 2.72718128 7.99511944 4.54506041 8.04125977 7.37939453 C8.06120499 8.46036407 8.08115021 9.54133362 8.10169983 10.65505981 C8.11841232 11.82592133 8.13512482 12.99678284 8.15234375 14.203125 C8.17312485 15.39888153 8.19390594 16.59463806 8.21531677 17.82662964 C8.28086039 21.65779714 8.33971968 25.48903488 8.3984375 29.3203125 C8.44161813 31.91276777 8.48523227 34.50521586 8.52929688 37.09765625 C8.63654669 43.46346677 8.7383041 49.82934763 8.8359375 56.1953125 C9.82513184 56.21513184 10.81432617 56.23495117 11.83349609 56.25537109 C15.49765827 56.33134706 19.16141914 56.42007602 22.82519531 56.51269531 C24.41202888 56.55101835 25.99895031 56.58586538 27.5859375 56.6171875 C29.86490316 56.66276681 32.14326218 56.72077088 34.421875 56.78125 C35.13338715 56.79280121 35.84489929 56.80435242 36.57797241 56.81625366 C41.60819409 56.96756909 41.60819409 56.96756909 43.8359375 59.1953125 C44.03125 61.359375 44.03125 61.359375 43.9609375 63.8203125 C43.94289063 64.63757813 43.92484375 65.45484375 43.90625 66.296875 C43.88304687 66.92335938 43.85984375 67.54984375 43.8359375 68.1953125 C37.1607341 68.22058195 30.48554293 68.23814518 23.81030273 68.25024414 C21.53751159 68.25528575 19.2647237 68.26211887 16.99194336 68.27075195 C13.73290199 68.28282511 10.47390333 68.28854237 7.21484375 68.29296875 C6.19193741 68.29813004 5.16903107 68.30329132 4.11512756 68.30860901 C3.17422775 68.30868454 2.23332794 68.30876007 1.26391602 68.30883789 C0.43118668 68.3110585 -0.40154266 68.31327911 -1.25950623 68.31556702 C-3.1640625 68.1953125 -3.1640625 68.1953125 -4.1640625 67.1953125 C-4.26866968 65.18125121 -4.30262078 63.16349339 -4.30932617 61.14672852 C-4.31570602 59.85191055 -4.32208588 58.55709259 -4.32865906 57.22303772 C-4.33018761 55.79843177 -4.33130164 54.37382533 -4.33203125 52.94921875 C-4.33524212 51.49812283 -4.33860606 50.04702723 -4.34211731 48.59593201 C-4.34811496 45.55019378 -4.34995657 42.50448395 -4.34936523 39.45874023 C-4.34926359 35.54995393 -4.36291559 31.64134918 -4.38013744 27.73260593 C-4.39123921 24.7343817 -4.39328501 21.7362016 -4.39275551 18.73795891 C-4.39393839 17.29661369 -4.39837736 15.85526742 -4.40608788 14.41394234 C-4.41585036 12.40041554 -4.41175521 10.38683582 -4.40698242 8.37329102 C-4.40840744 7.22603043 -4.40983246 6.07876984 -4.41130066 4.89674377 C-4.10495239 1.54944986 -3.46354827 0.31259461 0 0 Z " fill="#F4F8F9" transform="translate(783.1640625,729.8046875)"/>
<path d="M0 0 C2 2 2 2 2.24050903 4.74612427 C2.23606781 5.91416595 2.23162659 7.08220764 2.22705078 8.28564453 C2.22734283 8.92967224 2.22763489 9.57369995 2.22793579 10.23724365 C2.22654074 12.36923627 2.21097174 14.50088082 2.1953125 16.6328125 C2.19158298 18.10968841 2.18873572 19.58656678 2.18673706 21.06344604 C2.17909574 24.95317398 2.15944308 28.84275288 2.1373291 32.73242188 C2.11688135 36.70050032 2.10773764 40.66860282 2.09765625 44.63671875 C2.07619756 52.42454716 2.04205572 60.21225271 2 68 C0.20841511 68.02696365 -1.58328473 68.04637917 -3.375 68.0625 C-4.37273437 68.07410156 -5.37046875 68.08570313 -6.3984375 68.09765625 C-9 68 -9 68 -11 67 C-11.06947842 58.70728091 -11.12280001 50.41468321 -11.15543652 42.12174511 C-11.1710996 38.27108169 -11.19234923 34.42061725 -11.22631836 30.57006836 C-11.25888946 26.85478571 -11.27684817 23.13969456 -11.28463173 19.42428017 C-11.29017934 18.00606585 -11.30101244 16.58786213 -11.31719017 15.16972923 C-11.3389319 13.18511533 -11.34022513 11.20030914 -11.34057617 9.21557617 C-11.34723801 8.08528488 -11.35389984 6.95499359 -11.36076355 5.79045105 C-11 3 -11 3 -9.602005 1.13423157 C-6.56036357 -1.0192734 -3.6114457 -0.28662267 0 0 Z " fill="#F4F8F9" transform="translate(307,730)"/>
<path d="M0 0 C1.22589844 0.01353516 1.22589844 0.01353516 2.4765625 0.02734375 C3.41628906 0.04474609 3.41628906 0.04474609 4.375 0.0625 C5.78107756 2.87465512 5.49450486 5.2029422 5.48852539 8.34814453 C5.48867142 8.99217224 5.48881744 9.63619995 5.4889679 10.29974365 C5.4882704 12.43163402 5.48048566 14.56343737 5.47265625 16.6953125 C5.47079149 18.17218986 5.46936786 19.64906784 5.46836853 21.12594604 C5.46454792 25.01562199 5.45472152 28.90526067 5.44366455 32.79492188 C5.43344064 36.76301571 5.42886881 40.73111555 5.42382812 44.69921875 C5.41309885 52.48699616 5.39602789 60.27474286 5.375 68.0625 C3.56257948 68.08937279 1.75004767 68.10883715 -0.0625 68.125 C-1.07183594 68.13660156 -2.08117187 68.14820313 -3.12109375 68.16015625 C-5.625 68.0625 -5.625 68.0625 -6.625 67.0625 C-6.71913687 65.00693339 -6.74242998 62.94809819 -6.73852539 60.89038086 C-6.73867142 60.24649918 -6.73881744 59.60261749 -6.7389679 58.93922424 C-6.73826885 56.80189697 -6.73047691 54.66465587 -6.72265625 52.52734375 C-6.72079204 51.04903715 -6.71936815 49.57072993 -6.71836853 48.09242249 C-6.71454359 44.19451198 -6.70471352 40.29663851 -6.69366455 36.39874268 C-6.68344992 32.42403667 -6.6788708 28.44932471 -6.67382812 24.47460938 C-6.66309122 16.670556 -6.64601509 8.86653318 -6.625 1.0625 C-4.21954362 -0.14022819 -2.67503047 -0.03821472 0 0 Z " fill="#F4F8F9" transform="translate(843.625,729.9375)"/>
<path d="M0 0 C1.20849609 -0.00386719 1.20849609 -0.00386719 2.44140625 -0.0078125 C4.4375 0.125 4.4375 0.125 5.4375 1.125 C5.53163687 3.18056661 5.55492998 5.23940181 5.55102539 7.29711914 C5.55117142 7.94100082 5.55131744 8.58488251 5.5514679 9.24827576 C5.55076885 11.38560303 5.54297691 13.52284413 5.53515625 15.66015625 C5.53329204 17.13846285 5.53186815 18.61677007 5.53086853 20.09507751 C5.52704359 23.99298802 5.51721352 27.89086149 5.50616455 31.78875732 C5.49594992 35.76346333 5.4913708 39.73817529 5.48632812 43.71289062 C5.47559122 51.516944 5.45851509 59.32096682 5.4375 67.125 C3.62507948 67.15187279 1.81254767 67.17133715 0 67.1875 C-1.00933594 67.19910156 -2.01867187 67.21070313 -3.05859375 67.22265625 C-5.5625 67.125 -5.5625 67.125 -6.5625 66.125 C-6.65659479 64.10005769 -6.67993122 62.0718013 -6.67602539 60.04467773 C-6.67594986 58.74340439 -6.67587433 57.44213104 -6.67579651 56.10142517 C-6.67068909 54.67048098 -6.66547308 53.23953718 -6.66015625 51.80859375 C-6.65829203 50.3527074 -6.65686815 48.89682043 -6.65586853 47.44093323 C-6.65204365 43.60220621 -6.64221364 39.76351681 -6.63116455 35.92480469 C-6.62094978 32.01042184 -6.61637077 28.09603294 -6.61132812 24.18164062 C-6.60059134 16.49607657 -6.58351529 8.81054355 -6.5625 1.125 C-4.1828388 -0.0648306 -2.64764265 -0.00849966 0 0 Z " fill="#F4F8F9" transform="translate(654.5625,605.875)"/>
<path d="M0 0 C3.35386761 -0.1171893 6.70720149 -0.18757584 10.0625 -0.25 C11.00544922 -0.28351562 11.94839844 -0.31703125 12.91992188 -0.3515625 C19.19624476 -0.43903738 22.91766307 0.22705664 28 4 C30.88417734 8.59665764 31.58067255 12.56734899 30.77734375 17.84765625 C29.38089376 21.71420872 26.48772337 23.97813138 23 26 C18.64266112 27.31265911 14.38855842 27.18393479 9.875 27.1875 C9.05128906 27.19974609 8.22757813 27.21199219 7.37890625 27.22460938 C5.25129286 27.22983265 3.12408323 27.1226232 1 27 C-1 25 -1 25 -1.24291992 22.69335938 C-1.23881104 21.75298828 -1.23470215 20.81261719 -1.23046875 19.84375 C-1.22853516 18.82152344 -1.22660156 17.79929687 -1.22460938 16.74609375 C-1.21236328 15.67488281 -1.20011719 14.60367188 -1.1875 13.5 C-1.18685547 12.42878906 -1.18621094 11.35757813 -1.18554688 10.25390625 C-1.14030114 2.28060228 -1.14030114 2.28060228 0 0 Z " fill="#003244" transform="translate(564,617)"/>
<path d="M0 0 C0.78246094 -0.02900391 1.56492187 -0.05800781 2.37109375 -0.08789062 C8.19762983 -0.1506974 12.4970746 1.07750233 17.375 4.3125 C20.80303441 7.95478656 21.00038958 11.97312476 20.86328125 16.80078125 C20.05288865 20.96944078 17.73655295 23.79133529 14.375 26.3125 C11.42091449 27.24488697 8.73206906 27.44101615 5.64453125 27.4453125 C4.31711914 27.44724609 4.31711914 27.44724609 2.96289062 27.44921875 C2.04701172 27.44535156 1.13113281 27.44148437 0.1875 27.4375 C-0.73998047 27.44136719 -1.66746094 27.44523438 -2.62304688 27.44921875 C-3.50412109 27.44792969 -4.38519531 27.44664062 -5.29296875 27.4453125 C-6.50376099 27.44362061 -6.50376099 27.44362061 -7.73901367 27.44189453 C-9.625 27.3125 -9.625 27.3125 -10.625 26.3125 C-10.71237645 24.45880389 -10.73198153 22.60182459 -10.72265625 20.74609375 C-10.71943359 19.62138672 -10.71621094 18.49667969 -10.71289062 17.33789062 C-10.70451172 16.15388672 -10.69613281 14.96988281 -10.6875 13.75 C-10.68298828 12.56212891 -10.67847656 11.37425781 -10.67382812 10.15039062 C-10.66199675 7.20437774 -10.64551287 4.25846319 -10.625 1.3125 C-7.30526002 -0.34736999 -3.6461202 0.04375344 0 0 Z " fill="#003244" transform="translate(594.625,740.6875)"/>
<path d="M0 0 C3.42599431 2.66466224 5.85648905 4.56946714 7.25 8.75 C7.39220279 10.41267874 7.47020567 12.0815173 7.5 13.75 C7.52578125 14.61625 7.5515625 15.4825 7.578125 16.375 C7.25 18.75 7.25 18.75 5.95703125 20.5859375 C3.14250407 22.50522605 0.45917945 21.33348717 -2.75 20.75 C-3.41 21.08 -4.07 21.41 -4.75 21.75 C-8.40546065 22.15616229 -10.33917682 21.96434253 -13.625 20.25 C-15.8894644 17.58592424 -16.09587585 17.0042943 -16.1875 13.6875 C-15.75 9.75 -15.75 9.75 -13.75 6.75 C-9.1586284 5.4871473 -4.32626963 5.42140559 0.25 6.75 C0.29898438 7.46027344 0.34796875 8.17054687 0.3984375 8.90234375 C0.47320313 9.82144531 0.54796875 10.74054688 0.625 11.6875 C0.69460938 12.60402344 0.76421875 13.52054688 0.8359375 14.46484375 C0.97257813 15.21894531 1.10921875 15.97304687 1.25 16.75 C1.91 17.08 2.57 17.41 3.25 17.75 C3.74629161 10.23003413 3.74629161 10.23003413 0.25 3.75 C-4.85697031 2.04767656 -9.15375628 2.15879862 -14.125 4 C-16.93713096 5.87475398 -17.54140247 6.69554444 -18.75 9.75 C-19.21195292 12.80103792 -19.22115899 15.69868464 -18.75 18.75 C-15.34329555 23.2922726 -12.05029029 23.94676219 -6.625 24.8125 C-5.52929688 24.98910156 -4.43359375 25.16570312 -3.3046875 25.34765625 C-2.04011719 25.54681641 -2.04011719 25.54681641 -0.75 25.75 C-1.08 26.41 -1.41 27.07 -1.75 27.75 C-7.70135154 28.34075916 -12.35944486 28.63176765 -17.3125 24.9375 C-20.11259469 22.57983191 -22.57222731 20.41322923 -22.98046875 16.59375 C-22.96628906 15.8203125 -22.95210937 15.046875 -22.9375 14.25 C-22.92783203 13.08984375 -22.92783203 13.08984375 -22.91796875 11.90625 C-22.53634917 7.00731962 -20.22752758 4.97913275 -16.75 1.75 C-11.4951341 -1.75324393 -5.7896694 -2.63166791 0 0 Z " fill="#F3F7F8" transform="translate(575.75,1222.25)"/>
<path d="M0 0 C2.6058787 5.11282844 4.87393265 10.37535204 7.1875 15.625 C7.66380859 16.6871875 8.14011719 17.749375 8.63085938 18.84375 C9.07623047 19.85695313 9.52160156 20.87015625 9.98046875 21.9140625 C10.39192139 22.8417041 10.80337402 23.7693457 11.22729492 24.72509766 C11.60978394 25.85117432 11.60978394 25.85117432 12 27 C11.67 27.66 11.34 28.32 11 29 C3.74 29 -3.52 29 -11 29 C-12.30085631 25.09743107 -11.38722257 23.97718094 -9.7265625 20.2734375 C-9.2315625 19.1596875 -8.7365625 18.0459375 -8.2265625 16.8984375 C-7.69804688 15.73570312 -7.16953125 14.57296875 -6.625 13.375 C-6.10421875 12.20453125 -5.5834375 11.0340625 -5.046875 9.828125 C-1.16964286 1.16964286 -1.16964286 1.16964286 0 0 Z " fill="#003244" transform="translate(734,744)"/>
<path d="M0 0 C3.62467251 3.62467251 5.11494538 8.77833977 7.125 13.4375 C7.59292969 14.50033203 8.06085937 15.56316406 8.54296875 16.65820312 C8.98511719 17.67720703 9.42726563 18.69621094 9.8828125 19.74609375 C10.28902832 20.68122803 10.69524414 21.6163623 11.11376953 22.57983398 C12 25 12 25 12 28 C4.41 28 -3.18 28 -11 28 C-10.27433998 24.37169988 -9.62740762 21.79263882 -8.22265625 18.49609375 C-7.87396484 17.67302734 -7.52527344 16.84996094 -7.16601562 16.00195312 C-6.80185547 15.15568359 -6.43769531 14.30941406 -6.0625 13.4375 C-5.70220703 12.58736328 -5.34191406 11.73722656 -4.97070312 10.86132812 C-3.40563335 7.18644053 -1.81519598 3.55943475 0 0 Z " fill="#003244" transform="translate(850,620)"/>
<path d="M0 0 C3.4375 0.1875 3.4375 0.1875 4.4375 1.1875 C4.5258967 3.5631852 4.55280305 5.90958674 4.53515625 8.28515625 C4.5337413 8.99401474 4.53232635 9.70287323 4.53086853 10.43321228 C4.52525443 12.70551712 4.51269963 14.97772475 4.5 17.25 C4.49498681 18.78710796 4.49042359 20.32421745 4.48632812 21.86132812 C4.47528042 25.63675642 4.45800641 29.41211171 4.4375 33.1875 C2.95843108 33.21439216 1.47922517 33.23384621 0 33.25 C-0.82371094 33.26160156 -1.64742187 33.27320313 -2.49609375 33.28515625 C-4.5625 33.1875 -4.5625 33.1875 -5.5625 32.1875 C-5.78059756 27.93001574 -5.74829161 23.66704276 -5.74780273 19.40454102 C-5.74998743 17.26233 -5.76813512 15.12063529 -5.78710938 12.97851562 C-5.79004359 11.6223976 -5.7920282 10.26627712 -5.79296875 8.91015625 C-5.79707764 7.67015869 -5.80118652 6.43016113 -5.80541992 5.15258789 C-5.43773893 0.66466265 -4.4419476 0.23378672 0 0 Z " fill="#76CA5B" transform="translate(639.5625,253.8125)"/>
<path d="M0 0 C2.13163428 3.19745142 2.31975564 4.28757916 2.375 8 C2.40335938 8.86625 2.43171875 9.7325 2.4609375 10.625 C2 13 2 13 0.2734375 14.80078125 C-2.31910241 16.16832378 -3.84400392 16.31570571 -6.75 16.1875 C-7.94882812 16.14689453 -7.94882812 16.14689453 -9.171875 16.10546875 C-9.77515625 16.07066406 -10.3784375 16.03585937 -11 16 C-11.33 17.98 -11.66 19.96 -12 22 C-13.32 21.34 -14.64 20.68 -16 20 C-16.02895976 16.87501937 -16.04678483 13.7500731 -16.0625 10.625 C-16.07087891 9.73554687 -16.07925781 8.84609375 -16.08789062 7.9296875 C-16.09111328 7.07890625 -16.09433594 6.228125 -16.09765625 5.3515625 C-16.10289307 4.56604004 -16.10812988 3.78051758 -16.11352539 2.97119141 C-16 1 -16 1 -15 -1 C-9.76626536 -2.3662802 -4.91846279 -2.39925014 0 0 Z " fill="#F4F8F9" transform="translate(702,1228)"/>
<path d="M0 0 C2.06934295 1.64662681 2.89835433 2.50276038 3.43359375 5.12109375 C3.43987697 8.84704141 3.41151974 11.29698712 1.5 14.5625 C-1.99605097 16.57272931 -5.12062148 16.7543236 -9 16 C-12.52727646 14.04874068 -13.70999803 12.90867283 -14.9375 9.0625 C-15.00801133 5.60744494 -14.88641864 3.90822874 -13 1 C-8.05317984 -1.94906586 -5.20243857 -2.60121929 0 0 Z " fill="#F4F8F9" transform="translate(840,1228)"/>
<path d="M0 0 C2.11854483 1.83607219 2.84278 3.151012 3.3515625 5.8984375 C3.62442775 9.76163501 3.46068209 11.44159746 0.9375 14.5 C-2.74788284 16.38189762 -4.90846373 16.58450518 -9 16 C-11.875 14.4375 -11.875 14.4375 -14 12 C-14.90581342 8.61829657 -15.26121155 6.17545197 -14.5 2.75 C-10.39179291 -2.04290827 -5.43225102 -2.83958576 0 0 Z " fill="#F4F8F9" transform="translate(756,1228)"/>
<path d="M0 0 C2.11854483 1.83607219 2.84278 3.151012 3.3515625 5.8984375 C3.62442775 9.76163501 3.46068209 11.44159746 0.9375 14.5 C-2.79255853 16.40471074 -4.85762067 16.65405989 -9 16 C-11.97181423 14.67067234 -12.81511801 13.67648043 -15 11 C-15.4724686 7.74964373 -15.14578338 5.07521135 -14 2 C-9.28298192 -1.97222575 -5.58296547 -2.44254739 0 0 Z " fill="#F4F8F9" transform="translate(424,1228)"/>
<path d="M0 0 C0.495 2.97 0.495 2.97 1 6 C-4.52106096 8.92362907 -10.04945247 11.83286533 -15.58447266 14.72998047 C-17.65988089 15.82117449 -19.72760595 16.92512999 -21.79296875 18.03515625 C-23.34951172 18.85306641 -23.34951172 18.85306641 -24.9375 19.6875 C-25.83339844 20.16574219 -26.72929688 20.64398438 -27.65234375 21.13671875 C-30.32123149 22.11812339 -31.40851045 22.10264242 -34 21 C-34.66 20.34 -35.32 19.68 -36 19 C-32.88559723 15.52260987 -29.48401696 13.42079536 -25.37109375 11.328125 C-24.74018326 11.00084412 -24.10927277 10.67356323 -23.45924377 10.33636475 C-22.13236765 9.65039595 -20.80354345 8.96818358 -19.47290039 8.28955078 C-17.43541133 7.24893324 -15.40595521 6.19377169 -13.37695312 5.13671875 C-12.08378505 4.47047667 -10.79017986 3.80508218 -9.49609375 3.140625 C-8.32232178 2.53766602 -7.1485498 1.93470703 -5.93920898 1.31347656 C-3 0 -3 0 0 0 Z " fill="#76CA5B" transform="translate(553,361)"/>
<path d="M0 0 C4.32655267 1.20182019 6.23248499 0.45924021 10.375 -1.0625 C12.8206759 0.58833123 13.95081825 1.40895275 15.375 3.9375 C15.82394828 8.30022089 15.66297383 12.56669727 15.375 16.9375 C13.41796875 16.21484375 13.41796875 16.21484375 11.375 14.9375 C10.80078125 12.87890625 10.80078125 12.87890625 10.6875 10.5 C10.52344108 7.65474958 10.28927025 5.68031075 9.375 2.9375 C7.41605639 3.05056697 7.41605639 3.05056697 5.375 3.9375 C3.05178531 7.97255709 2.83799608 12.38470523 2.375 16.9375 C1.715 16.9375 1.055 16.9375 0.375 16.9375 C-0.12786934 14.9799015 -0.6272099 13.02139623 -1.125 11.0625 C-1.4034375 9.97195313 -1.681875 8.88140625 -1.96875 7.7578125 C-2.625 4.9375 -2.625 4.9375 -2.625 2.9375 C-6.35114153 4.05604586 -6.35114153 4.05604586 -8.625 6.9375 C-8.85122081 8.64113822 -9.03388473 10.35078701 -9.1875 12.0625 C-9.27128906 12.97257812 -9.35507812 13.88265625 -9.44140625 14.8203125 C-9.50199219 15.51898437 -9.56257812 16.21765625 -9.625 16.9375 C-10.945 16.2775 -12.265 15.6175 -13.625 14.9375 C-13.65193575 12.81256859 -13.67136628 10.68754088 -13.6875 8.5625 C-13.69910156 7.37914062 -13.71070313 6.19578125 -13.72265625 4.9765625 C-13.625 1.9375 -13.625 1.9375 -12.625 -0.0625 C-8.204584 -1.23874803 -4.37864169 -1.28339498 0 0 Z " fill="#F2F7F7" transform="translate(866.625,1227.0625)"/>
<path d="M0 0 C0.83569336 2.62158203 0.83569336 2.62158203 1 6 C-0.73021322 8.36052593 -2.26489481 10.08634012 -4.37109375 12.0546875 C-4.92740982 12.60109894 -5.48372589 13.14751038 -6.05690002 13.71047974 C-7.83466833 15.44911375 -9.63521324 17.16183071 -11.4375 18.875 C-12.64806866 20.05045392 -13.8570738 21.22752036 -15.06445312 22.40625 C-18.02516206 25.28984701 -21.00653554 28.1504369 -24 31 C-26.475 30.01 -26.475 30.01 -29 29 C-27.59032118 24.51299637 -25.14322475 21.73136298 -21.84375 18.515625 C-21.34081421 18.01456238 -20.83787842 17.51349976 -20.31970215 16.99725342 C-19.26074478 15.94499103 -18.19820917 14.89631874 -17.13232422 13.85107422 C-15.49829768 12.24833027 -13.8753033 10.63504123 -12.25390625 9.01953125 C-11.22197663 7.9967674 -10.18944518 6.97461036 -9.15625 5.953125 C-8.66974976 5.47087463 -8.18324951 4.98862427 -7.68200684 4.49176025 C-3.09310873 0 -3.09310873 0 0 0 Z " fill="#76CA5B" transform="translate(585,409)"/>
<path d="M0 0 C9.50516503 3.63233092 25.75941972 10.61422024 32 19 C32 20.32 32 21.64 32 23 C28.08980297 23.25931499 26.0695649 22.77264571 22.8125 20.625 C17.0712167 16.98015499 11.14108816 13.741472 5.1574707 10.51611328 C4.40554443 10.10474121 3.65361816 9.69336914 2.87890625 9.26953125 C2.2041626 8.90448486 1.52941895 8.53943848 0.83422852 8.16333008 C-1.05965212 6.9621666 -2.48039207 5.64115296 -4 4 C-2.68 2.68 -1.36 1.36 0 0 Z " fill="#76CA5B" transform="translate(728,360)"/>
<path d="M0 0 C1.75296751 2.17294931 3.38721943 4.35079351 5 6.625 C5.48186768 7.29635986 5.96373535 7.96771973 6.46020508 8.65942383 C7.46876261 10.06541653 8.47498348 11.47308798 9.47900391 12.88232422 C10.94861313 14.9284543 12.44362564 16.9529089 13.94921875 18.97265625 C14.86212726 20.21082832 15.77489368 21.44910518 16.6875 22.6875 C17.12126953 23.26258301 17.55503906 23.83766602 18.00195312 24.43017578 C20.36741148 27.67833985 21 28.83086669 21 33 C17.93754067 32.96359632 15.76684652 32.73132366 13.49267578 30.5625 C11.93347286 28.59012137 10.48653933 26.57208984 9.0625 24.5 C8.01637982 23.0359187 6.9695087 21.57237367 5.921875 20.109375 C5.42236328 19.40103516 4.92285156 18.69269531 4.40820312 17.96289062 C2.13997906 14.80121908 -0.32302631 11.80167116 -2.79296875 8.796875 C-4.11178478 6.833589 -4.69744028 5.34239787 -5 3 C-3.38441968 0.84589291 -2.74502455 0 0 0 Z " fill="#76CA5B" transform="translate(701,409)"/>
<path d="M0 0 C0.99 0 1.98 0 3 0 C4.63945963 3.27891925 4.12030178 6.90613534 4.09765625 10.5078125 C4.0962413 11.34843231 4.09482635 12.18905212 4.09336853 13.05514526 C4.08776237 15.74513275 4.07520886 18.43503759 4.0625 21.125 C4.05748579 22.94661338 4.05292275 24.76822807 4.04882812 26.58984375 C4.03779094 31.05992777 4.0205222 35.52994986 4 40 C2.02 39.67 0.04 39.34 -2 39 C-2.04942365 33.927993 -2.08573068 28.85612606 -2.10986328 23.78393555 C-2.11992326 22.05832477 -2.13357276 20.33273105 -2.15087891 18.60717773 C-2.17512754 16.1273986 -2.18648301 13.64784477 -2.1953125 11.16796875 C-2.20563507 10.39599655 -2.21595764 9.62402435 -2.22659302 8.82865906 C-2.22739422 5.00718524 -2.17242595 3.25863893 0 0 Z " fill="#76CA5B" transform="translate(641,426)"/>
<path d="M0 0 C3.99294636 5.05773206 3.29404455 10.87951713 3 17 C-1.03932853 17.28580155 -4.97005043 17.45551292 -9 17 C-11.75 14.5 -11.75 14.5 -13 12 C-11.25 8.125 -11.25 8.125 -9 7 C-6.6670134 6.95977609 -4.33293334 6.95679753 -2 7 C-2.33 5.68 -2.66 4.36 -3 3 C-5.31 3.33 -7.62 3.66 -10 4 C-10.33 3.01 -10.66 2.02 -11 1 C-6.97906411 -1.01046795 -4.30040014 -1.49579135 0 0 Z " fill="#F4F8F9" transform="translate(496,1227)"/>
<path d="M0 0 C2.91200616 2.91200616 3 3.71119388 3 8 C2.21753906 8.04898437 1.43507813 8.09796875 0.62890625 8.1484375 C-0.38300781 8.22320313 -1.39492188 8.29796875 -2.4375 8.375 C-3.44683594 8.44460938 -4.45617187 8.51421875 -5.49609375 8.5859375 C-6.73552734 8.79089844 -6.73552734 8.79089844 -8 9 C-8.33 9.66 -8.66 10.32 -9 11 C-5.7 11.66 -2.4 12.32 1 13 C0.67 13.99 0.34 14.98 0 16 C-7.76785714 16.66964286 -7.76785714 16.66964286 -11.5 13.9375 C-14 11 -14 11 -14.6875 7.5 C-13.8365478 3.1678797 -12.4242043 1.70751037 -9 -1 C-5.15941827 -2.28019391 -3.6601592 -1.60131965 0 0 Z " fill="#D4DFE0" transform="translate(634,1228)"/>
<path d="M0 0 C2.09765625 0.63671875 2.09765625 0.63671875 4.16015625 2.82421875 C5.22800131 6.02775392 5.53493633 8.28423811 5.09765625 11.63671875 C4.03515625 13.51171875 4.03515625 13.51171875 2.09765625 14.63671875 C-1.42434671 15.02093725 -3.96844038 15.00536482 -7.27734375 13.69921875 C-9.80658248 10.48903113 -10.30476651 6.67557989 -9.90234375 2.63671875 C-7.20601868 -1.31673537 -4.32952892 -0.65470925 0 0 Z " fill="#76CA5B" transform="translate(658.90234375,292.36328125)"/>
<path d="M0 0 C1.73219928 1.73219928 1.21291761 4.02026808 1.25 6.375 C1.28867187 7.84066406 1.28867187 7.84066406 1.328125 9.3359375 C1 12 1 12 -0.30078125 13.828125 C-3.15478248 15.79640171 -5.6526813 15.35234934 -9 15 C-11.4375 13.875 -11.4375 13.875 -13 12 C-13.5625 9.125 -13.5625 9.125 -13 6 C-8.79393767 1.01913672 -6.43853416 -0.27398018 0 0 Z " fill="#76CA5B" transform="translate(627,292)"/>
<path d="M0 0 C0.99 0.33 1.98 0.66 3 1 C3 2.65 3 4.3 3 6 C4.216875 5.9175 5.43375 5.835 6.6875 5.75 C9.76975704 5.54103342 11.00741307 6.00421197 13.75 7.5625 C16 10 16 10 16.48828125 13.453125 C16.43027344 14.70609375 16.37226562 15.9590625 16.3125 17.25 C16.24482422 19.14492187 16.24482422 19.14492187 16.17578125 21.078125 C16.11777344 22.04234375 16.05976562 23.0065625 16 24 C14.04296875 23.28125 14.04296875 23.28125 12 22 C11.42578125 19.90625 11.42578125 19.90625 11.3125 17.5 C11.16136685 14.1213829 11.16136685 14.1213829 10 11 C8.35 11.33 6.7 11.66 5 12 C4.34 15.96 3.68 19.92 3 24 C2.34 24 1.68 24 1 24 C-0.25248502 21.49502996 -0.11374406 19.79146726 -0.09765625 16.9921875 C-0.09443359 16.00605469 -0.09121094 15.01992187 -0.08789062 14.00390625 C-0.07951172 12.97136719 -0.07113281 11.93882813 -0.0625 10.875 C-0.05798828 9.83472656 -0.05347656 8.79445313 -0.04882812 7.72265625 C-0.03701952 5.14838038 -0.02055075 2.57421854 0 0 Z " fill="#F3F7F8" transform="translate(715,1220)"/>
<path d="M0 0 C2.23999994 3.39132858 2.21188154 6.25344927 2.125 10.25 C2.10695313 11.32765625 2.08890625 12.4053125 2.0703125 13.515625 C2.04710937 14.33546875 2.02390625 15.1553125 2 16 C1.01 16 0.02 16 -1 16 C-2.13021285 13.73957429 -2.26934344 12.07089004 -2.5 9.5625 C-2.75623248 6.78512294 -3.10887489 4.67337533 -4 2 C-7.72614153 3.11854586 -7.72614153 3.11854586 -10 6 C-10.22622081 7.70363822 -10.40888473 9.41328701 -10.5625 11.125 C-10.64628906 12.03507812 -10.73007812 12.94515625 -10.81640625 13.8828125 C-10.87699219 14.58148437 -10.93757813 15.28015625 -11 16 C-11.99 16 -12.98 16 -14 16 C-15.53266582 12.93466836 -15.10276471 9.73245728 -15.0625 6.375 C-15.05798828 5.66859375 -15.05347656 4.9621875 -15.04882812 4.234375 C-15.03703875 2.48954725 -15.01910324 0.744763 -15 -1 C-3.94447394 -2.58856103 -3.94447394 -2.58856103 0 0 Z " fill="#F4F8F9" transform="translate(452,1228)"/>
<path d="M0 0 C2.42130331 3.63195496 2.21022785 5.38349348 2.125 9.6875 C2.10695313 10.86699219 2.08890625 12.04648438 2.0703125 13.26171875 C2.04710937 14.16535156 2.02390625 15.06898437 2 16 C0.04296875 15.28125 0.04296875 15.28125 -2 14 C-2.57421875 11.90625 -2.57421875 11.90625 -2.6875 9.5 C-2.83863315 6.1213829 -2.83863315 6.1213829 -4 3 C-6.47266765 3.34444881 -6.47266765 3.34444881 -9 4 C-10.21693876 6.43387753 -10.31959896 8.41838846 -10.5625 11.125 C-10.64628906 12.03507812 -10.73007812 12.94515625 -10.81640625 13.8828125 C-10.87699219 14.58148437 -10.93757812 15.28015625 -11 16 C-12.32 15.34 -13.64 14.68 -15 14 C-15.02693575 11.87506859 -15.04636628 9.75004088 -15.0625 7.625 C-15.07410156 6.44164062 -15.08570313 5.25828125 -15.09765625 4.0390625 C-15 1 -15 1 -14 -1 C-9.15305285 -2.24177985 -4.39699854 -2.6648476 0 0 Z " fill="#F4F8F9" transform="translate(608,1228)"/>
<path d="M0 0 C2.1875 1.375 2.1875 1.375 4.1875 4.375 C0.84570721 5.48893093 -0.46241123 5.12876997 -3.8125 4.375 C-4.8025 4.375 -5.7925 4.375 -6.8125 4.375 C-6.8125 6.685 -6.8125 8.995 -6.8125 11.375 C-5.74 11.49875 -4.6675 11.6225 -3.5625 11.75 C-0.43386385 12.27143936 1.52230424 12.77588254 4.1875 14.375 C3.125 15.875 3.125 15.875 1.1875 17.375 C-2.12878758 17.87557171 -4.57028654 18.07218884 -7.56640625 16.390625 C-9.77813432 14.66387826 -11.52170391 12.90527522 -12.875 10.4375 C-12.77242434 7.05250309 -11.70992965 5.1618498 -9.8125 2.375 C-6.20669215 0.23822498 -4.15542929 -0.92342873 0 0 Z " fill="#F4F8F9" transform="translate(812.8125,1226.625)"/>
<path d="M0 0 C1.3125 2.5625 1.3125 2.5625 2 5 C-0.97 4.67 -3.94 4.34 -7 4 C-8.47047336 7.91063224 -8.47047336 7.91063224 -9 12 C-8.37351562 11.98839844 -7.74703125 11.97679687 -7.1015625 11.96484375 C-6.28429687 11.95582031 -5.46703125 11.94679688 -4.625 11.9375 C-3.81289063 11.92589844 -3.00078125 11.91429687 -2.1640625 11.90234375 C0 12 0 12 2 13 C1.34 14.32 0.68 15.64 0 17 C-7.12659698 17.48315912 -7.12659698 17.48315912 -10.9375 15.375 C-13.46366448 12.46608332 -13.92177859 10.83284932 -14 7 C-13.5 4.3125 -13.5 4.3125 -12 2 C-7.89376603 -0.32428338 -4.50562627 -2.05971487 0 0 Z " fill="#F4F8F9" transform="translate(398,1227)"/>
<path d="M0 0 C1.32 0 2.64 0 4 0 C4 0.66 4 1.32 4 2 C8.29299643 3.26264601 10.87831311 2.62950412 15 1 C14.65324219 1.4846875 14.30648437 1.969375 13.94921875 2.46875 C12.57702794 4.67784976 11.61254084 6.46416659 11 9 C12.13720615 12.10242416 13.88408028 14.48232337 16 17 C12.52846619 16.23596585 10.00229182 14.91813089 7 13 C6.01 14.32 5.02 15.64 4 17 C3.01 16.67 2.02 16.34 1 16 C1.62759865 13.07120629 2.58622659 10.63904371 4 8 C3.01 6.576875 3.01 6.576875 2 5.125 C0 2 0 2 0 0 Z " fill="#F4F8F9" transform="translate(646,1227)"/>
<path d="M0 0 C0 0.66 0 1.32 0 2 C0.66 2 1.32 2 2 2 C2 2.99 2 3.98 2 5 C0.906875 4.814375 -0.18625 4.62875 -1.3125 4.4375 C-4.93624133 3.7421932 -4.93624133 3.7421932 -8 5 C-8.33 6.65 -8.66 8.3 -9 10 C-5.52890832 12.31406112 -4.05121887 12.08619615 0 12 C0.66 12.33 1.32 12.66 2 13 C1.34 14.32 0.68 15.64 0 17 C-4.08089366 17.32647149 -6.65623094 17.15000832 -10.4375 15.5 C-13 13 -13 13 -13.6875 9.0625 C-13.42985682 5.69428666 -12.92606662 4.90347586 -10.75 2.0625 C-6.81609937 -0.88792547 -4.6828677 -1.50520748 0 0 Z " fill="#F4F8F9" transform="translate(522,1227)"/>
<path d="M0 0 C1.9375 0.8125 1.9375 0.8125 4 2 C4.33 2.99 4.66 3.98 5 5 C5.99 5 6.98 5 8 5 C8 5.66 8 6.32 8 7 C7.01 7.33 6.02 7.66 5 8 C4.19787372 9.87387216 4.19787372 9.87387216 3.8125 12.0625 C3.65394531 12.79597656 3.49539063 13.52945312 3.33203125 14.28515625 C3.22246094 14.85105469 3.11289062 15.41695312 3 16 C5.475 16.99 5.475 16.99 8 18 C8 18.99 8 19.98 8 21 C4.91200013 21.3431111 3.40015029 21.25565158 0.75 19.5625 C-1.41674035 16.38977306 -1.5980229 13.99298931 -1.82421875 10.21875 C-1.99651809 8.04394942 -2.41376557 6.09709876 -3 4 C-2.34 4 -1.68 4 -1 4 C-0.67 2.68 -0.34 1.36 0 0 Z " fill="#F4F8F9" transform="translate(466,1223)"/>
<path d="M0 0 C1.9375 0.8125 1.9375 0.8125 4 2 C4.33 2.99 4.66 3.98 5 5 C5.66 5 6.32 5 7 5 C7 5.66 7 6.32 7 7 C6.01 7.33 5.02 7.66 4 8 C3.67 10.64 3.34 13.28 3 16 C3.639375 16.268125 4.27875 16.53625 4.9375 16.8125 C7 18 7 18 8 21 C6.02 21 4.04 21 2 21 C2 20.34 2 19.68 2 19 C1.01 18.67 0.02 18.34 -1 18 C-1.09087891 17.11248047 -1.09087891 17.11248047 -1.18359375 16.20703125 C-1.26738281 15.41683594 -1.35117187 14.62664062 -1.4375 13.8125 C-1.52386719 12.99007813 -1.61023438 12.16765625 -1.69921875 11.3203125 C-1.96188879 8.89568247 -1.96188879 8.89568247 -2.75 6.1875 C-3 4 -3 4 -1.5625 1.6875 C-1.046875 1.130625 -0.53125 0.57375 0 0 Z " fill="#F4F8F9" transform="translate(536,1223)"/>
<path d="M0 0 C7.75 -0.125 7.75 -0.125 10 1 C10 1.66 10 2.32 10 3 C9.360625 3.28875 8.72125 3.5775 8.0625 3.875 C5.84793921 4.82823451 5.84793921 4.82823451 5 7 C4.77377919 8.70363822 4.59111527 10.41328701 4.4375 12.125 C4.35371094 13.03507812 4.26992188 13.94515625 4.18359375 14.8828125 C4.12300781 15.58148437 4.06242188 16.28015625 4 17 C2.68 16.34 1.36 15.68 0 15 C0 10.05 0 5.1 0 0 Z " fill="#F4F8F9" transform="translate(769,1227)"/>
<path d="M0 0 C2.625 0.3125 2.625 0.3125 4.5 2 C5.91364911 4.90583428 5.60670152 6.28558697 4.625 9.3125 C3.625 10.3125 3.625 10.3125 0.75 10.5625 C-2.375 10.3125 -2.375 10.3125 -4.25 8.8125 C-4.62125 8.3175 -4.9925 7.8225 -5.375 7.3125 C-3.17453244 0.41770164 -3.17453244 0.41770164 0 0 Z " fill="#003244" transform="translate(695.375,1229.6875)"/>
<path d="M0 0 C0.78375 0.2475 1.5675 0.495 2.375 0.75 C3.74123674 3.48247348 3.503426 5.73198902 3.375 8.75 C2.375 9.75 2.375 9.75 -0.5 10 C-3.625 9.75 -3.625 9.75 -5.5625 8.5625 C-6.625 6.75 -6.625 6.75 -6.5 4.1875 C-5.23687009 0.66878097 -3.73021967 -0.35525902 0 0 Z " fill="#003244" transform="translate(751.625,1230.25)"/>
<path d="M0 0 C2.14915785 3.22373677 2.38286803 4.26703674 2 8 C1.34 8.66 0.68 9.32 0 10 C-6.57692308 9.42307692 -6.57692308 9.42307692 -8 8 C-8.3125 5.625 -8.3125 5.625 -8 3 C-5.18144066 0.08077783 -4.20010777 0 0 0 Z " fill="#003244" transform="translate(421,1230)"/>
<path d="M0 0 C1.36623674 2.73247348 1.128426 4.98198902 1 8 C0 9 0 9 -2.875 9.25 C-6 9 -6 9 -7.875 7.5 C-8.24625 7.005 -8.6175 6.51 -9 6 C-8.39816251 3.97954558 -7.72693904 1.97888961 -7 0 C-4.30234372 -1.34882814 -2.84835666 -0.80338265 0 0 Z " fill="#003244" transform="translate(838,1231)"/>
<path d="M0 0 C1.9375 0.8125 1.9375 0.8125 3.9375 3.8125 C3.62800349 7.11379606 2.40004526 8.6711563 -0.0625 10.8125 C-2.0425 9.4925 -4.0225 8.1725 -6.0625 6.8125 C-5.75 4.4375 -5.75 4.4375 -5.0625 1.8125 C-2.0625 -0.1875 -2.0625 -0.1875 0 0 Z " fill="#003244" transform="translate(569.0625,1231.1875)"/>
<path d="M0 0 C0.99 0.33 1.98 0.66 3 1 C3 6.28 3 11.56 3 17 C1.68 16.34 0.36 15.68 -1 15 C-1.02693575 12.87506859 -1.04636628 10.75004088 -1.0625 8.625 C-1.07410156 7.44164062 -1.08570313 6.25828125 -1.09765625 5.0390625 C-1 2 -1 2 0 0 Z " fill="#F4F8F9" transform="translate(672,1227)"/>
<path d="M0 0 C2.1875 0.3125 2.1875 0.3125 4 1 C4 1.99 4 2.98 4 4 C1.625 4.625 1.625 4.625 -1 5 C-1.66 4.34 -2.32 3.68 -3 3 C-1.75 1.4375 -1.75 1.4375 0 0 Z " fill="#003244" transform="translate(490,1236)"/>
</svg>
