<svg xmlns="http://www.w3.org/2000/svg" xmlns:xlink="http://www.w3.org/1999/xlink" width="1080" zoomAndPan="magnify" viewBox="0 0 810 809.999993" height="1080" preserveAspectRatio="xMidYMid meet" version="1.0"><defs><clipPath id="56b092562b"><path d="M 413 153.777344 L 428 153.777344 L 428 263 L 413 263 Z M 413 153.777344 " clip-rule="nonzero"/></clipPath><clipPath id="bc8e188978"><path d="M 568 478 L 683.136719 478 L 683.136719 493 L 568 493 Z M 568 478 " clip-rule="nonzero"/></clipPath><clipPath id="865eb365a2"><path d="M 126.636719 435 L 188 435 L 188 451 L 126.636719 451 Z M 126.636719 435 " clip-rule="nonzero"/></clipPath></defs><path fill="#ffd00b" d="M 566.238281 424.109375 C 566.238281 427.0625 566.164062 430.011719 566.019531 432.960938 C 565.875 435.910156 565.660156 438.851562 565.371094 441.789062 C 565.082031 444.726562 564.71875 447.65625 564.285156 450.574219 C 563.851562 453.496094 563.347656 456.402344 562.773438 459.296875 C 562.199219 462.191406 561.550781 465.070312 560.835938 467.933594 C 560.117188 470.796875 559.332031 473.640625 558.476562 476.464844 C 557.617188 479.289062 556.695312 482.09375 555.699219 484.871094 C 554.707031 487.652344 553.644531 490.402344 552.515625 493.128906 C 551.386719 495.859375 550.191406 498.554688 548.929688 501.222656 C 547.667969 503.890625 546.34375 506.527344 544.953125 509.132812 C 543.5625 511.734375 542.109375 514.300781 540.589844 516.832031 C 539.074219 519.363281 537.496094 521.859375 535.859375 524.3125 C 534.21875 526.765625 532.519531 529.179688 530.761719 531.550781 C 529.003906 533.921875 527.191406 536.246094 525.320312 538.527344 C 523.449219 540.808594 521.519531 543.042969 519.539062 545.230469 C 517.558594 547.417969 515.523438 549.554688 513.4375 551.644531 C 511.351562 553.730469 509.21875 555.765625 507.03125 557.746094 C 504.84375 559.730469 502.613281 561.65625 500.332031 563.53125 C 498.050781 565.402344 495.726562 567.21875 493.355469 568.976562 C 490.988281 570.734375 488.574219 572.433594 486.121094 574.074219 C 483.667969 575.710938 481.179688 577.292969 478.648438 578.808594 C 476.117188 580.328125 473.550781 581.78125 470.949219 583.171875 C 468.347656 584.5625 465.710938 585.890625 463.046875 587.152344 C 460.378906 588.414062 457.683594 589.609375 454.957031 590.738281 C 452.230469 591.871094 449.480469 592.929688 446.703125 593.925781 C 443.925781 594.921875 441.125 595.847656 438.300781 596.703125 C 435.476562 597.558594 432.636719 598.347656 429.773438 599.0625 C 426.910156 599.78125 424.035156 600.425781 421.140625 601.003906 C 418.246094 601.578125 415.339844 602.082031 412.421875 602.515625 C 409.503906 602.949219 406.578125 603.3125 403.640625 603.601562 C 400.707031 603.890625 397.765625 604.105469 394.816406 604.25 C 391.871094 604.394531 388.921875 604.46875 385.972656 604.46875 C 383.023438 604.46875 380.074219 604.394531 377.128906 604.25 C 374.179688 604.105469 371.238281 603.890625 368.304688 603.601562 C 365.367188 603.3125 362.441406 602.949219 359.523438 602.515625 C 356.605469 602.082031 353.699219 601.578125 350.804688 601.003906 C 347.910156 600.425781 345.035156 599.78125 342.171875 599.0625 C 339.308594 598.347656 336.46875 597.558594 333.644531 596.703125 C 330.820312 595.847656 328.019531 594.921875 325.242188 593.925781 C 322.464844 592.929688 319.714844 591.871094 316.988281 590.738281 C 314.261719 589.609375 311.566406 588.414062 308.898438 587.152344 C 306.234375 585.890625 303.597656 584.5625 300.996094 583.171875 C 298.394531 581.78125 295.828125 580.328125 293.296875 578.808594 C 290.769531 577.292969 288.277344 575.710938 285.824219 574.074219 C 283.371094 572.433594 280.957031 570.734375 278.589844 568.976562 C 276.21875 567.21875 273.894531 565.402344 271.613281 563.53125 C 269.332031 561.65625 267.101562 559.730469 264.914062 557.746094 C 262.730469 555.765625 260.59375 553.730469 258.507812 551.644531 C 256.421875 549.554688 254.386719 547.417969 252.40625 545.230469 C 250.425781 543.042969 248.496094 540.808594 246.625 538.527344 C 244.753906 536.246094 242.941406 533.921875 241.183594 531.550781 C 239.425781 529.179688 237.726562 526.765625 236.089844 524.3125 C 234.449219 521.859375 232.871094 519.363281 231.355469 516.832031 C 229.839844 514.300781 228.382812 511.734375 226.992188 509.132812 C 225.601562 506.527344 224.277344 503.890625 223.015625 501.222656 C 221.753906 498.554688 220.558594 495.859375 219.429688 493.128906 C 218.300781 490.402344 217.238281 487.652344 216.246094 484.871094 C 215.25 482.09375 214.328125 479.289062 213.46875 476.464844 C 212.613281 473.640625 211.828125 470.796875 211.109375 467.933594 C 210.394531 465.070312 209.746094 462.191406 209.171875 459.296875 C 208.597656 456.402344 208.09375 453.496094 207.660156 450.574219 C 207.226562 447.65625 206.867188 444.726562 206.578125 441.789062 C 206.285156 438.851562 206.070312 435.910156 205.925781 432.960938 C 205.78125 430.011719 205.707031 427.0625 205.707031 424.109375 C 205.707031 421.160156 205.78125 418.210938 205.925781 415.261719 C 206.070312 412.3125 206.285156 409.371094 206.578125 406.433594 C 206.867188 403.496094 207.226562 400.566406 207.660156 397.648438 C 208.09375 394.726562 208.597656 391.820312 209.171875 388.925781 C 209.746094 386.03125 210.394531 383.152344 211.109375 380.289062 C 211.828125 377.425781 212.613281 374.582031 213.46875 371.753906 C 214.328125 368.929688 215.25 366.128906 216.246094 363.351562 C 217.238281 360.570312 218.300781 357.816406 219.429688 355.089844 C 220.558594 352.363281 221.753906 349.667969 223.015625 346.996094 C 224.277344 344.328125 225.601562 341.695312 226.992188 339.089844 C 228.382812 336.488281 229.839844 333.921875 231.355469 331.386719 C 232.871094 328.855469 234.449219 326.363281 236.089844 323.910156 C 237.726562 321.457031 239.425781 319.042969 241.183594 316.671875 C 242.941406 314.300781 244.753906 311.976562 246.625 309.691406 C 248.496094 307.410156 250.425781 305.175781 252.40625 302.988281 C 254.386719 300.804688 256.421875 298.664062 258.507812 296.578125 C 260.59375 294.492188 262.730469 292.457031 264.914062 290.472656 C 267.101562 288.492188 269.332031 286.566406 271.613281 284.691406 C 273.894531 282.820312 276.21875 281.003906 278.589844 279.246094 C 280.957031 277.488281 283.371094 275.789062 285.824219 274.148438 C 288.277344 272.507812 290.769531 270.929688 293.296875 269.414062 C 295.828125 267.894531 298.394531 266.441406 300.996094 265.050781 C 303.597656 263.65625 306.234375 262.332031 308.898438 261.070312 C 311.566406 259.808594 314.261719 258.613281 316.988281 257.480469 C 319.714844 256.351562 322.464844 255.289062 325.242188 254.296875 C 328.019531 253.300781 330.820312 252.375 333.644531 251.519531 C 336.46875 250.664062 339.308594 249.875 342.171875 249.15625 C 345.035156 248.441406 347.910156 247.792969 350.804688 247.21875 C 353.699219 246.644531 356.605469 246.136719 359.523438 245.707031 C 362.441406 245.273438 365.367188 244.910156 368.304688 244.621094 C 371.238281 244.332031 374.179688 244.113281 377.128906 243.96875 C 380.074219 243.824219 383.023438 243.753906 385.972656 243.753906 C 388.921875 243.753906 391.871094 243.824219 394.816406 243.96875 C 397.765625 244.113281 400.707031 244.332031 403.640625 244.621094 C 406.578125 244.910156 409.503906 245.273438 412.421875 245.707031 C 415.339844 246.136719 418.246094 246.644531 421.140625 247.21875 C 424.035156 247.792969 426.910156 248.441406 429.773438 249.15625 C 432.636719 249.875 435.476562 250.664062 438.300781 251.519531 C 441.125 252.375 443.925781 253.300781 446.703125 254.296875 C 449.480469 255.289062 452.230469 256.351562 454.957031 257.480469 C 457.683594 258.613281 460.378906 259.808594 463.046875 261.070312 C 465.710938 262.332031 468.347656 263.65625 470.949219 265.050781 C 473.550781 266.441406 476.117188 267.894531 478.648438 269.414062 C 481.179688 270.929688 483.667969 272.507812 486.121094 274.148438 C 488.574219 275.789062 490.988281 277.488281 493.355469 279.246094 C 495.726562 281.003906 498.050781 282.820312 500.332031 284.691406 C 502.613281 286.566406 504.84375 288.492188 507.03125 290.472656 C 509.21875 292.457031 511.351562 294.492188 513.4375 296.578125 C 515.523438 298.664062 517.558594 300.804688 519.539062 302.988281 C 521.519531 305.175781 523.449219 307.410156 525.320312 309.691406 C 527.191406 311.976562 529.003906 314.300781 530.761719 316.671875 C 532.519531 319.042969 534.21875 321.457031 535.859375 323.910156 C 537.496094 326.363281 539.074219 328.855469 540.589844 331.386719 C 542.109375 333.921875 543.5625 336.488281 544.953125 339.089844 C 546.34375 341.695312 547.667969 344.328125 548.929688 346.996094 C 550.191406 349.667969 551.386719 352.363281 552.515625 355.089844 C 553.644531 357.816406 554.707031 360.570312 555.699219 363.351562 C 556.695312 366.128906 557.617188 368.929688 558.476562 371.753906 C 559.332031 374.582031 560.117188 377.425781 560.835938 380.289062 C 561.550781 383.152344 562.199219 386.03125 562.773438 388.925781 C 563.347656 391.820312 563.851562 394.726562 564.285156 397.648438 C 564.71875 400.566406 565.082031 403.496094 565.371094 406.433594 C 565.660156 409.371094 565.875 412.3125 566.019531 415.261719 C 566.164062 418.210938 566.238281 421.160156 566.238281 424.109375 Z M 566.238281 424.109375 " fill-opacity="0.16" fill-rule="nonzero"/><path fill="#ffd00b" d="M 524.609375 427.210938 C 524.609375 429.46875 524.554688 431.730469 524.441406 433.988281 C 524.332031 436.246094 524.164062 438.496094 523.945312 440.746094 C 523.722656 442.996094 523.445312 445.238281 523.113281 447.476562 C 522.785156 449.710938 522.398438 451.9375 521.957031 454.152344 C 521.515625 456.371094 521.019531 458.574219 520.472656 460.769531 C 519.921875 462.960938 519.320312 465.136719 518.664062 467.300781 C 518.007812 469.464844 517.300781 471.609375 516.539062 473.738281 C 515.777344 475.867188 514.964844 477.972656 514.101562 480.0625 C 513.238281 482.152344 512.320312 484.214844 511.355469 486.257812 C 510.390625 488.304688 509.375 490.320312 508.308594 492.316406 C 507.246094 494.308594 506.132812 496.273438 504.96875 498.210938 C 503.808594 500.152344 502.601562 502.058594 501.34375 503.941406 C 500.089844 505.820312 498.789062 507.667969 497.445312 509.480469 C 496.097656 511.296875 494.707031 513.078125 493.277344 514.824219 C 491.84375 516.574219 490.367188 518.285156 488.851562 519.957031 C 487.332031 521.632812 485.777344 523.269531 484.179688 524.867188 C 482.582031 526.464844 480.945312 528.023438 479.269531 529.542969 C 477.597656 531.058594 475.886719 532.535156 474.140625 533.96875 C 472.394531 535.402344 470.613281 536.792969 468.800781 538.140625 C 466.984375 539.488281 465.140625 540.789062 463.261719 542.042969 C 461.382812 543.300781 459.472656 544.507812 457.535156 545.671875 C 455.597656 546.832031 453.632812 547.945312 451.640625 549.011719 C 449.648438 550.078125 447.632812 551.09375 445.589844 552.058594 C 443.546875 553.027344 441.484375 553.941406 439.394531 554.804688 C 437.308594 555.671875 435.203125 556.484375 433.074219 557.246094 C 430.945312 558.007812 428.804688 558.714844 426.640625 559.371094 C 424.480469 560.027344 422.300781 560.632812 420.109375 561.179688 C 417.917969 561.730469 415.714844 562.226562 413.5 562.664062 C 411.285156 563.105469 409.058594 563.492188 406.824219 563.824219 C 404.589844 564.15625 402.347656 564.433594 400.101562 564.65625 C 397.851562 564.875 395.601562 565.042969 393.34375 565.152344 C 391.085938 565.265625 388.828125 565.320312 386.570312 565.320312 C 384.3125 565.320312 382.054688 565.265625 379.796875 565.152344 C 377.542969 565.042969 375.289062 564.875 373.039062 564.65625 C 370.792969 564.433594 368.550781 564.15625 366.316406 563.824219 C 364.082031 563.492188 361.855469 563.105469 359.640625 562.664062 C 357.425781 562.226562 355.222656 561.730469 353.03125 561.179688 C 350.839844 560.632812 348.660156 560.027344 346.5 559.371094 C 344.339844 558.714844 342.195312 558.007812 340.066406 557.246094 C 337.941406 556.484375 335.832031 555.671875 333.746094 554.804688 C 331.660156 553.941406 329.59375 553.027344 327.550781 552.058594 C 325.507812 551.09375 323.492188 550.078125 321.5 549.011719 C 319.507812 547.945312 317.542969 546.832031 315.605469 545.671875 C 313.667969 544.507812 311.757812 543.300781 309.878906 542.042969 C 308.003906 540.789062 306.15625 539.488281 304.339844 538.140625 C 302.527344 536.792969 300.746094 535.402344 299 533.96875 C 297.253906 532.535156 295.542969 531.058594 293.871094 529.542969 C 292.195312 528.023438 290.558594 526.464844 288.964844 524.867188 C 287.367188 523.269531 285.808594 521.632812 284.292969 519.957031 C 282.773438 518.285156 281.300781 516.574219 279.867188 514.824219 C 278.433594 513.078125 277.042969 511.296875 275.699219 509.480469 C 274.351562 507.667969 273.050781 505.820312 271.796875 503.941406 C 270.542969 502.058594 269.332031 500.152344 268.171875 498.210938 C 267.011719 496.273438 265.898438 494.308594 264.832031 492.316406 C 263.765625 490.320312 262.75 488.304688 261.785156 486.257812 C 260.820312 484.214844 259.90625 482.152344 259.039062 480.0625 C 258.175781 477.972656 257.363281 475.867188 256.601562 473.738281 C 255.839844 471.609375 255.132812 469.464844 254.476562 467.300781 C 253.820312 465.136719 253.21875 462.960938 252.667969 460.769531 C 252.121094 458.574219 251.625 456.371094 251.183594 454.152344 C 250.746094 451.9375 250.359375 449.710938 250.027344 447.476562 C 249.695312 445.238281 249.417969 442.996094 249.195312 440.746094 C 248.976562 438.496094 248.808594 436.246094 248.699219 433.988281 C 248.589844 431.730469 248.53125 429.46875 248.53125 427.210938 C 248.53125 424.949219 248.589844 422.691406 248.699219 420.433594 C 248.808594 418.175781 248.976562 415.921875 249.195312 413.671875 C 249.417969 411.421875 249.695312 409.179688 250.027344 406.945312 C 250.359375 404.710938 250.746094 402.484375 251.183594 400.265625 C 251.625 398.050781 252.121094 395.84375 252.667969 393.652344 C 253.21875 391.460938 253.820312 389.28125 254.476562 387.121094 C 255.132812 384.957031 255.839844 382.8125 256.601562 380.683594 C 257.363281 378.554688 258.175781 376.445312 259.039062 374.359375 C 259.90625 372.269531 260.820312 370.203125 261.785156 368.160156 C 262.75 366.117188 263.765625 364.097656 264.832031 362.105469 C 265.898438 360.113281 267.011719 358.144531 268.171875 356.207031 C 269.332031 354.269531 270.542969 352.359375 271.796875 350.480469 C 273.050781 348.601562 274.351562 346.753906 275.699219 344.9375 C 277.042969 343.125 278.433594 341.339844 279.867188 339.59375 C 281.300781 337.847656 282.773438 336.136719 284.292969 334.460938 C 285.808594 332.785156 287.367188 331.148438 288.964844 329.550781 C 290.558594 327.953125 292.195312 326.394531 293.871094 324.878906 C 295.542969 323.359375 297.253906 321.882812 299 320.449219 C 300.746094 319.015625 302.527344 317.625 304.339844 316.28125 C 306.15625 314.933594 308.003906 313.632812 309.878906 312.375 C 311.757812 311.121094 313.667969 309.910156 315.605469 308.75 C 317.542969 307.585938 319.507812 306.472656 321.5 305.410156 C 323.492188 304.34375 325.507812 303.328125 327.550781 302.359375 C 329.59375 301.394531 331.660156 300.480469 333.746094 299.613281 C 335.832031 298.75 337.941406 297.9375 340.066406 297.175781 C 342.195312 296.414062 344.339844 295.703125 346.5 295.046875 C 348.660156 294.390625 350.839844 293.789062 353.03125 293.238281 C 355.222656 292.691406 357.425781 292.195312 359.640625 291.753906 C 361.855469 291.3125 364.082031 290.925781 366.316406 290.59375 C 368.550781 290.265625 370.792969 289.988281 373.039062 289.765625 C 375.289062 289.542969 377.542969 289.378906 379.796875 289.265625 C 382.054688 289.15625 384.3125 289.101562 386.570312 289.101562 C 388.828125 289.101562 391.085938 289.15625 393.34375 289.265625 C 395.601562 289.378906 397.851562 289.542969 400.101562 289.765625 C 402.347656 289.988281 404.589844 290.265625 406.824219 290.59375 C 409.058594 290.925781 411.285156 291.3125 413.5 291.753906 C 415.714844 292.195312 417.917969 292.691406 420.109375 293.238281 C 422.300781 293.789062 424.480469 294.390625 426.640625 295.046875 C 428.804688 295.703125 430.945312 296.414062 433.074219 297.175781 C 435.203125 297.9375 437.308594 298.75 439.394531 299.613281 C 441.484375 300.480469 443.546875 301.394531 445.589844 302.359375 C 447.632812 303.328125 449.648438 304.34375 451.640625 305.410156 C 453.632812 306.472656 455.597656 307.585938 457.535156 308.75 C 459.472656 309.910156 461.382812 311.121094 463.261719 312.375 C 465.140625 313.632812 466.984375 314.933594 468.800781 316.28125 C 470.613281 317.625 472.394531 319.015625 474.140625 320.449219 C 475.886719 321.882812 477.597656 323.359375 479.269531 324.878906 C 480.945312 326.394531 482.582031 327.953125 484.179688 329.550781 C 485.777344 331.148438 487.332031 332.785156 488.851562 334.460938 C 490.367188 336.136719 491.84375 337.847656 493.277344 339.59375 C 494.707031 341.339844 496.097656 343.125 497.445312 344.9375 C 498.789062 346.753906 500.089844 348.601562 501.34375 350.480469 C 502.601562 352.359375 503.808594 354.269531 504.96875 356.207031 C 506.132812 358.144531 507.246094 360.113281 508.308594 362.105469 C 509.375 364.097656 510.390625 366.117188 511.355469 368.160156 C 512.320312 370.203125 513.238281 372.269531 514.101562 374.359375 C 514.964844 376.445312 515.777344 378.554688 516.539062 380.683594 C 517.300781 382.8125 518.007812 384.957031 518.664062 387.121094 C 519.320312 389.28125 519.921875 391.460938 520.472656 393.652344 C 521.019531 395.84375 521.515625 398.050781 521.957031 400.265625 C 522.398438 402.484375 522.785156 404.710938 523.113281 406.945312 C 523.445312 409.179688 523.722656 411.421875 523.945312 413.671875 C 524.164062 415.921875 524.332031 418.175781 524.441406 420.433594 C 524.554688 422.691406 524.609375 424.949219 524.609375 427.210938 Z M 524.609375 427.210938 " fill-opacity="0.3" fill-rule="nonzero"/><path fill="#ffd00b" d="M 484.011719 457.222656 C 482.851562 464.15625 480.863281 470.84375 478.050781 477.285156 C 475.234375 483.726562 471.679688 489.726562 467.382812 495.285156 C 460.164062 505.054688 451.652344 513.519531 441.839844 520.679688 C 434.320312 526.121094 426.457031 531.015625 418.253906 535.359375 C 411.460938 538.949219 406.136719 541.503906 402.441406 543.191406 L 397.003906 545.691406 L 402.003906 544.601562 C 405.429688 543.789062 410.589844 542.484375 417.222656 540.417969 C 425.566406 537.902344 433.664062 534.75 441.515625 530.957031 C 442.058594 530.957031 442.546875 530.410156 443.089844 530.140625 C 443.242188 530.605469 443.367188 531.074219 443.46875 531.554688 C 443.617188 532.824219 443.617188 534.089844 443.46875 535.359375 C 443.210938 537.664062 442.554688 539.847656 441.507812 541.917969 C 440.460938 543.984375 439.085938 545.804688 437.382812 547.375 C 431.453125 552.214844 424.785156 555.601562 417.382812 557.542969 C 407.339844 560.914062 397.03125 562.960938 386.460938 563.6875 C 376.941406 564.304688 367.46875 563.886719 358.039062 562.4375 C 354.003906 561.953125 350.074219 561.03125 346.246094 559.664062 C 344.765625 559.152344 343.398438 558.433594 342.136719 557.507812 C 340.878906 556.582031 339.78125 555.488281 338.855469 554.226562 C 338.125 553.21875 337.675781 552.101562 337.5 550.871094 C 337.328125 549.636719 337.453125 548.4375 337.875 547.265625 C 338.535156 545.0625 339.765625 543.25 341.574219 541.832031 C 342.695312 540.953125 343.945312 540.335938 345.320312 539.980469 L 350.160156 542.429688 L 355.59375 544.875 C 354.941406 544.332031 353.367188 543.242188 350.972656 541.667969 C 346.207031 538.363281 341.695312 534.738281 337.441406 530.792969 C 333.589844 527.15625 329.980469 523.292969 326.609375 519.207031 C 323.242188 515.121094 320.136719 510.839844 317.300781 506.363281 C 314.464844 501.890625 311.917969 497.257812 309.660156 492.464844 C 307.402344 487.671875 305.449219 482.757812 303.800781 477.722656 C 301.59375 470.855469 300.03125 463.84375 299.117188 456.6875 C 298.203125 449.53125 297.953125 442.351562 298.367188 435.148438 C 298.734375 426.914062 299.90625 418.796875 301.890625 410.796875 C 303.878906 402.800781 306.632812 395.074219 310.160156 387.625 C 313.980469 379.5 318.753906 371.984375 324.488281 365.074219 C 330.222656 358.167969 336.734375 352.089844 344.019531 346.847656 C 351.386719 341.519531 359.484375 337.765625 368.308594 335.589844 C 372.613281 334.609375 376.972656 334.191406 381.382812 334.339844 C 385.792969 334.488281 390.113281 335.195312 394.34375 336.460938 C 412.003906 341.625 428.742188 354.949219 443.253906 367.996094 C 450.179688 373.980469 456.441406 380.601562 462.03125 387.851562 C 467.621094 395.101562 472.429688 402.839844 476.457031 411.0625 C 478.183594 414.625 479.644531 418.292969 480.839844 422.070312 C 482.035156 425.84375 482.953125 429.683594 483.589844 433.59375 C 484.230469 437.5 484.585938 441.433594 484.65625 445.394531 C 484.726562 449.351562 484.511719 453.296875 484.011719 457.222656 Z M 484.011719 457.222656 " fill-opacity="1" fill-rule="nonzero"/><path fill="#ffffff" d="M 460.261719 382.1875 C 450.808594 385.972656 442.078125 391.011719 434.070312 397.304688 C 429.839844 400.4375 425.925781 403.921875 422.316406 407.75 C 418.707031 411.582031 415.464844 415.699219 412.589844 420.109375 C 409.714844 424.515625 407.253906 429.144531 405.199219 433.992188 C 403.148438 438.835938 401.539062 443.828125 400.375 448.960938 C 399.527344 454.144531 399.144531 459.359375 399.222656 464.613281 C 399.304688 469.863281 399.847656 475.066406 400.855469 480.222656 C 401.859375 485.378906 403.3125 490.402344 405.214844 495.300781 C 407.113281 500.195312 409.433594 504.886719 412.167969 509.367188 C 417.257812 518.320312 423.523438 526.347656 430.972656 533.457031 C 438.910156 528.273438 446.15625 522.257812 452.710938 515.40625 C 456.21875 511.988281 459.457031 508.332031 462.425781 504.4375 C 465.394531 500.546875 468.0625 496.453125 470.429688 492.167969 C 472.792969 487.878906 474.832031 483.441406 476.546875 478.851562 C 478.257812 474.261719 479.621094 469.574219 480.644531 464.78125 C 484.394531 445.804688 478.957031 425.960938 473.035156 409.972656 C 469.46875 400.394531 465.210938 391.132812 460.261719 382.1875 Z M 460.261719 382.1875 " fill-opacity="0.42" fill-rule="nonzero"/><path fill="#ffd00b" d="M 436.40625 569.453125 C 435.820312 571.125 435.082031 572.730469 434.191406 574.261719 C 433.296875 575.792969 432.269531 577.222656 431.097656 578.554688 C 429.929688 579.890625 428.644531 581.097656 427.242188 582.183594 C 425.839844 583.265625 424.347656 584.207031 422.765625 585.003906 C 418.195312 587.277344 413.445312 589.074219 408.511719 590.394531 C 403.582031 591.710938 398.566406 592.523438 393.472656 592.832031 C 383.960938 593.816406 374.453125 593.816406 364.941406 592.832031 C 356.027344 592.015625 349.179688 589.949219 345.59375 585.167969 C 344.78125 584.140625 344.175781 583.003906 343.773438 581.761719 C 343.371094 580.515625 343.199219 579.242188 343.257812 577.933594 C 343.441406 575.730469 344.253906 573.789062 345.703125 572.117188 C 346.101562 571.640625 346.554688 571.222656 347.0625 570.867188 C 349.378906 571.871094 351.753906 572.722656 354.179688 573.421875 C 359.519531 575.0625 364.960938 576.207031 370.507812 576.855469 C 376.050781 577.503906 381.609375 577.644531 387.183594 577.277344 C 392.753906 576.910156 398.246094 576.042969 403.660156 574.671875 C 409.074219 573.300781 414.320312 571.453125 419.394531 569.125 C 426.117188 566.226562 432.167969 562.292969 437.546875 557.328125 C 438.222656 561.46875 437.84375 565.511719 436.40625 569.453125 Z M 436.40625 569.453125 " fill-opacity="1" fill-rule="nonzero"/><path fill="#ffd00b" d="M 428.90625 603.980469 C 427.609375 606.445312 425.929688 608.613281 423.867188 610.484375 C 421.800781 612.351562 419.476562 613.808594 416.894531 614.855469 C 409.371094 617.851562 401.5625 619.175781 393.472656 618.824219 C 385.832031 618.691406 378.257812 617.894531 370.757812 616.429688 C 364.679688 615.617188 358.921875 613.804688 353.472656 610.992188 C 352.550781 610.421875 351.773438 609.699219 351.136719 608.820312 C 350.578125 608.113281 350.214844 607.3125 350.050781 606.425781 C 349.808594 604.75 350.097656 603.175781 350.917969 601.695312 C 351.195312 601.222656 351.519531 600.785156 351.898438 600.390625 C 355.101562 601.945312 358.4375 603.140625 361.898438 603.980469 C 372.78125 606.773438 383.8125 607.625 394.996094 606.535156 C 400.691406 606.121094 406.253906 605.027344 411.6875 603.261719 C 417.117188 601.496094 422.261719 599.109375 427.113281 596.09375 C 428.351562 595.285156 429.546875 594.417969 430.699219 593.484375 C 430.957031 595.285156 430.933594 597.082031 430.628906 598.875 C 430.320312 600.664062 429.746094 602.367188 428.90625 603.980469 Z M 428.90625 603.980469 " fill-opacity="1" fill-rule="nonzero"/><path fill="#ffd00b" d="M 416.1875 628.230469 C 416.1875 628.664062 415.699219 629.207031 415.484375 629.753906 C 413.839844 633.246094 411.757812 636.457031 409.234375 639.375 C 407.878906 641.050781 406.261719 642.414062 404.382812 643.46875 C 402.503906 644.519531 400.5 645.1875 398.363281 645.464844 C 394.183594 645.847656 390.199219 645.140625 386.40625 643.347656 C 382.980469 641.613281 379.976562 639.328125 377.386719 636.496094 C 375.375 634.410156 373.5625 632.160156 371.953125 629.753906 C 371.953125 629.753906 371.625 629.207031 371.460938 628.992188 C 378.53125 631.257812 385.777344 632.4375 393.199219 632.527344 C 401.175781 632.769531 408.839844 631.339844 416.1875 628.230469 Z M 416.1875 628.230469 " fill-opacity="1" fill-rule="nonzero"/><path fill="#000000" d="M 505.152344 442.816406 C 504.914062 452.578125 503.101562 462.039062 499.71875 471.199219 C 496.753906 478.777344 492.945312 485.902344 488.285156 492.574219 C 483.628906 499.246094 478.253906 505.28125 472.164062 510.675781 C 463.460938 518.488281 453.839844 524.941406 443.308594 530.03125 C 442.765625 530.304688 442.273438 530.628906 441.730469 530.847656 C 433.882812 534.640625 425.785156 537.792969 417.4375 540.308594 C 410.808594 542.375 405.644531 543.679688 402.222656 544.496094 L 397.222656 545.582031 L 402.65625 543.082031 C 406.351562 541.394531 411.679688 538.839844 418.472656 535.25 C 426.597656 530.933594 434.386719 526.078125 441.839844 520.679688 C 451.671875 513.59375 460.222656 505.203125 467.492188 495.503906 C 471.789062 489.941406 475.34375 483.941406 478.160156 477.5 C 480.972656 471.0625 482.960938 464.375 484.121094 457.441406 C 484.617188 453.511719 484.828125 449.566406 484.75 445.609375 C 484.675781 441.648438 484.316406 437.714844 483.671875 433.808594 C 483.027344 429.898438 482.105469 426.058594 480.90625 422.285156 C 479.707031 418.507812 478.242188 414.839844 476.511719 411.277344 C 472.484375 403.054688 467.675781 395.320312 462.085938 388.066406 C 456.492188 380.816406 450.234375 374.199219 443.308594 368.214844 C 428.578125 355.164062 411.839844 341.84375 394.394531 336.679688 C 390.167969 335.410156 385.847656 334.703125 381.4375 334.558594 C 377.027344 334.410156 372.667969 334.828125 368.363281 335.808594 C 359.535156 337.910156 351.417969 341.589844 344.019531 346.847656 C 336.734375 352.089844 330.222656 358.167969 324.488281 365.074219 C 318.753906 371.984375 313.980469 379.5 310.160156 387.625 C 306.605469 395.070312 303.820312 402.789062 301.808594 410.789062 C 299.796875 418.789062 298.59375 426.910156 298.203125 435.148438 C 297.789062 442.351562 298.039062 449.53125 298.953125 456.6875 C 299.867188 463.84375 301.429688 470.855469 303.640625 477.722656 C 305.285156 482.757812 307.238281 487.671875 309.496094 492.464844 C 311.753906 497.257812 314.300781 501.890625 317.140625 506.363281 C 319.976562 510.839844 323.078125 515.121094 326.449219 519.207031 C 329.816406 523.292969 333.429688 527.15625 337.277344 530.792969 C 341.53125 534.738281 346.042969 538.363281 350.8125 541.667969 C 353.203125 543.242188 354.777344 544.332031 355.429688 544.875 L 349.996094 542.429688 L 345.160156 539.980469 L 344.019531 539.871094 C 340.472656 537.949219 337.046875 535.828125 333.746094 533.511719 C 328.910156 530.113281 324.328125 526.394531 320.011719 522.359375 C 315.691406 518.324219 311.671875 514.003906 307.953125 509.40625 C 304.238281 504.808594 300.855469 499.976562 297.8125 494.90625 C 294.769531 489.835938 292.089844 484.582031 289.78125 479.136719 C 286.546875 471.4375 284.085938 463.5 282.394531 455.320312 C 280.703125 447.140625 279.8125 438.878906 279.726562 430.527344 C 279.660156 420.863281 280.605469 411.296875 282.554688 401.832031 C 284.503906 392.367188 287.421875 383.207031 291.300781 374.359375 C 293.4375 369.355469 295.898438 364.519531 298.683594 359.851562 C 301.46875 355.179688 304.550781 350.714844 307.933594 346.457031 C 311.316406 342.199219 314.96875 338.1875 318.890625 334.417969 C 322.8125 330.652344 326.964844 327.164062 331.355469 323.953125 C 336.242188 320.429688 341.429688 317.429688 346.917969 314.945312 C 352.410156 312.464844 358.089844 310.558594 363.960938 309.21875 C 370.253906 307.789062 376.621094 307.183594 383.070312 307.402344 C 389.515625 307.625 395.828125 308.664062 402.003906 310.523438 C 415.324219 314.746094 427.515625 321.125 438.578125 329.664062 C 448.382812 337.023438 457.566406 345.089844 466.132812 353.859375 C 470.21875 357.882812 474.039062 362.140625 477.597656 366.636719 C 481.15625 371.132812 484.421875 375.828125 487.398438 380.730469 C 490.378906 385.628906 493.042969 390.695312 495.394531 395.921875 C 497.746094 401.152344 499.765625 406.507812 501.457031 411.984375 C 504.230469 422.078125 505.460938 432.355469 505.152344 442.816406 Z M 505.152344 442.816406 " fill-opacity="1" fill-rule="nonzero"/><path fill="#000000" d="M 441.132812 553.304688 L 439.503906 555.371094 C 438.9375 556.070312 438.304688 556.707031 437.601562 557.273438 C 432.222656 562.238281 426.171875 566.171875 419.449219 569.070312 C 414.375 571.398438 409.128906 573.246094 403.714844 574.617188 C 398.300781 575.988281 392.808594 576.855469 387.238281 577.222656 C 381.664062 577.589844 376.105469 577.449219 370.558594 576.800781 C 365.015625 576.152344 359.574219 575.007812 354.234375 573.367188 C 351.808594 572.667969 349.433594 571.816406 347.117188 570.8125 L 345.320312 569.941406 C 343.703125 569.171875 342.164062 568.265625 340.703125 567.222656 C 338.667969 565.980469 336.914062 564.425781 335.4375 562.554688 C 333.957031 560.683594 332.851562 558.617188 332.117188 556.347656 C 331.59375 554.191406 331.59375 552.035156 332.117188 549.878906 C 332.394531 548.78125 332.804688 547.738281 333.351562 546.746094 C 333.894531 545.757812 334.554688 544.851562 335.328125 544.027344 C 336.105469 543.203125 336.96875 542.492188 337.925781 541.890625 C 338.882812 541.285156 339.898438 540.8125 340.972656 540.472656 C 343.058594 539.878906 345.140625 539.878906 347.222656 540.472656 C 346.609375 540.441406 345.992188 540.441406 345.375 540.472656 C 344 540.828125 342.75 541.441406 341.625 542.320312 C 339.820312 543.742188 338.589844 545.554688 337.929688 547.757812 C 337.507812 548.859375 337.351562 550 337.46875 551.179688 C 337.582031 552.355469 337.953125 553.445312 338.582031 554.445312 C 339.511719 555.703125 340.605469 556.796875 341.867188 557.726562 C 343.125 558.652344 344.496094 559.371094 345.972656 559.882812 C 349.800781 561.246094 353.734375 562.171875 357.765625 562.65625 C 367.195312 564.105469 376.671875 564.523438 386.191406 563.90625 C 396.761719 563.179688 407.066406 561.128906 417.113281 557.761719 C 424.515625 555.820312 431.179688 552.429688 437.113281 547.59375 C 438.816406 546.023438 440.191406 544.203125 441.238281 542.132812 C 442.285156 540.066406 442.9375 537.878906 443.199219 535.578125 C 443.34375 534.308594 443.34375 533.039062 443.199219 531.769531 C 443.097656 531.292969 442.96875 530.820312 442.820312 530.355469 L 442.546875 528.996094 C 442.546875 528.996094 442.871094 529.703125 443.144531 530.304688 C 443.367188 530.828125 443.617188 531.335938 443.90625 531.824219 C 444.714844 533.199219 445.273438 534.667969 445.589844 536.230469 C 445.835938 537.730469 445.921875 539.238281 445.851562 540.757812 C 445.78125 542.273438 445.554688 543.769531 445.171875 545.238281 C 444.785156 546.710938 444.253906 548.125 443.574219 549.484375 C 442.894531 550.839844 442.082031 552.113281 441.132812 553.304688 Z M 441.132812 553.304688 " fill-opacity="1" fill-rule="nonzero"/><path fill="#000000" d="M 442.765625 572.933594 C 442.097656 577.378906 440.519531 581.472656 438.035156 585.21875 C 436.359375 587.710938 434.402344 589.960938 432.167969 591.960938 L 430.699219 593.320312 C 429.546875 594.253906 428.351562 595.125 427.113281 595.933594 C 422.261719 598.945312 417.117188 601.335938 411.6875 603.101562 C 406.253906 604.867188 400.691406 605.957031 394.996094 606.371094 C 383.8125 607.464844 372.78125 606.613281 361.898438 603.816406 C 358.4375 602.976562 355.101562 601.78125 351.898438 600.226562 L 350.320312 599.683594 C 349.507812 599.25 348.746094 598.757812 347.984375 598.269531 C 346 596.957031 344.265625 595.375 342.78125 593.515625 C 341.296875 591.660156 340.132812 589.621094 339.289062 587.394531 C 338.554688 585.589844 338.1875 583.714844 338.1875 581.769531 C 338.1875 579.820312 338.554688 577.945312 339.289062 576.140625 C 339.859375 574.886719 340.605469 573.757812 341.535156 572.742188 C 342.464844 571.730469 343.527344 570.886719 344.722656 570.214844 C 344.921875 570.167969 345.121094 570.167969 345.320312 570.214844 C 347.039062 569.296875 348.847656 569.027344 350.757812 569.398438 C 349.386719 569.695312 348.136719 570.253906 347.007812 571.082031 C 346.5 571.441406 346.046875 571.859375 345.648438 572.332031 C 344.265625 573.949219 343.46875 575.816406 343.257812 577.933594 C 343.230469 579.242188 343.429688 580.511719 343.859375 581.75 C 344.289062 582.984375 344.921875 584.105469 345.757812 585.113281 C 349.34375 589.898438 356.191406 591.960938 365.105469 592.777344 C 374.613281 593.761719 384.125 593.761719 393.636719 592.777344 C 398.730469 592.46875 403.742188 591.65625 408.675781 590.339844 C 413.605469 589.019531 418.359375 587.222656 422.929688 584.949219 C 424.492188 584.148438 425.96875 583.203125 427.355469 582.121094 C 428.738281 581.035156 430.007812 579.832031 431.164062 578.503906 C 432.316406 577.175781 433.335938 575.75 434.21875 574.230469 C 435.097656 572.707031 435.828125 571.113281 436.40625 569.453125 C 437.816406 565.484375 438.160156 561.421875 437.4375 557.273438 C 437.390625 556.714844 437.285156 556.171875 437.113281 555.640625 C 436.765625 554.421875 436.3125 553.242188 435.753906 552.105469 L 435.320312 550.746094 C 435.695312 551.101562 436.09375 551.425781 436.515625 551.726562 C 437.648438 552.769531 438.644531 553.929688 439.503906 555.207031 C 440.308594 556.519531 440.988281 557.894531 441.539062 559.332031 C 442.089844 560.773438 442.507812 562.25 442.785156 563.765625 C 443.0625 565.28125 443.203125 566.808594 443.199219 568.347656 C 443.195312 569.890625 443.050781 571.417969 442.765625 572.933594 Z M 442.765625 572.933594 " fill-opacity="1" fill-rule="nonzero"/><path fill="#000000" d="M 434.828125 607.675781 C 434.015625 611.3125 432.472656 614.613281 430.210938 617.574219 C 427.605469 621.03125 424.417969 623.820312 420.644531 625.945312 C 419.277344 626.742188 417.863281 627.445312 416.40625 628.066406 C 409.089844 631.160156 401.464844 632.589844 393.527344 632.363281 C 386.105469 632.273438 378.859375 631.09375 371.789062 628.828125 L 370.59375 628.394531 C 369.339844 628.023438 368.105469 627.589844 366.898438 627.089844 C 363.257812 625.679688 359.761719 623.976562 356.410156 621.976562 C 353.1875 620.097656 350.449219 617.667969 348.203125 614.691406 C 347.203125 613.332031 346.523438 611.828125 346.164062 610.179688 C 345.804688 608.53125 345.796875 606.882812 346.136719 605.230469 C 346.433594 604.128906 346.910156 603.109375 347.5625 602.175781 C 348.214844 601.242188 349.007812 600.449219 349.941406 599.792969 L 350.648438 599.410156 C 351.265625 599.007812 351.933594 598.730469 352.65625 598.578125 C 353.378906 598.429688 354.105469 598.417969 354.832031 598.542969 C 353.824219 598.863281 352.953125 599.40625 352.222656 600.171875 C 351.84375 600.570312 351.519531 601.003906 351.246094 601.476562 C 350.421875 602.957031 350.132812 604.535156 350.375 606.207031 C 350.539062 607.097656 350.902344 607.894531 351.464844 608.601562 C 352.097656 609.480469 352.878906 610.207031 353.800781 610.777344 C 359.246094 613.589844 365.007812 615.402344 371.082031 616.214844 C 378.585938 617.675781 386.15625 618.472656 393.796875 618.605469 C 401.890625 618.957031 409.699219 617.632812 417.222656 614.636719 C 419.804688 613.59375 422.125 612.136719 424.191406 610.265625 C 426.257812 608.394531 427.9375 606.226562 429.230469 603.761719 C 430.113281 602.09375 430.707031 600.332031 431.015625 598.472656 C 431.320312 596.609375 431.324219 594.75 431.027344 592.886719 C 430.835938 591.851562 430.566406 590.835938 430.210938 589.84375 C 430.054688 589.53125 429.949219 589.203125 429.882812 588.863281 L 430.808594 589.625 C 431.414062 590.238281 431.976562 590.890625 432.492188 591.582031 C 432.492188 591.910156 432.980469 592.234375 433.199219 592.617188 C 433.84375 593.746094 434.367188 594.933594 434.765625 596.175781 C 435.167969 597.414062 435.4375 598.679688 435.578125 599.976562 C 435.71875 601.273438 435.722656 602.566406 435.597656 603.863281 C 435.472656 605.160156 435.214844 606.433594 434.828125 607.675781 Z M 434.828125 607.675781 " fill-opacity="1" fill-rule="nonzero"/><path fill="#000000" d="M 420.429688 626.109375 C 420.445312 628.183594 420.335938 630.25 420.101562 632.308594 C 419.589844 637.105469 418.050781 641.546875 415.484375 645.628906 C 413.824219 648.195312 411.738281 650.351562 409.234375 652.101562 C 406.234375 654.121094 402.9375 655.316406 399.34375 655.6875 C 397.726562 655.839844 396.109375 655.835938 394.492188 655.675781 C 392.878906 655.515625 391.292969 655.203125 389.738281 654.738281 C 388.183594 654.269531 386.6875 653.660156 385.246094 652.90625 C 383.808594 652.152344 382.457031 651.265625 381.191406 650.25 C 379.316406 648.746094 377.664062 647.023438 376.238281 645.089844 C 374.808594 643.15625 373.652344 641.070312 372.765625 638.832031 C 371.644531 636.050781 370.902344 633.167969 370.539062 630.1875 C 370.539062 629.589844 370.539062 629.046875 370.539062 628.609375 C 370.539062 628.175781 370.539062 627.035156 370.539062 627.035156 L 371.789062 629.046875 C 371.789062 629.046875 372.058594 629.535156 372.277344 629.808594 C 373.890625 632.214844 375.703125 634.460938 377.710938 636.550781 C 380.136719 639.246094 382.945312 641.457031 386.136719 643.183594 C 389.929688 644.980469 393.914062 645.6875 398.09375 645.304688 C 400.261719 645.078125 402.3125 644.453125 404.238281 643.425781 C 406.167969 642.402344 407.832031 641.050781 409.234375 639.375 C 411.738281 636.453125 413.800781 633.242188 415.429688 629.753906 C 415.429688 629.207031 415.917969 628.664062 416.132812 628.230469 L 418.742188 622.792969 L 419.992188 620.347656 C 419.992188 620.347656 419.992188 621.488281 419.992188 623.5 C 420.375 624.152344 420.429688 625.078125 420.429688 626.109375 Z M 420.429688 626.109375 " fill-opacity="1" fill-rule="nonzero"/><path fill="#000000" d="M 358.800781 540.90625 C 358.800781 540.90625 359.722656 526.933594 360.160156 503.605469 L 360.160156 473.480469 C 359.921875 469.855469 359.921875 466.234375 360.160156 462.609375 C 360.179688 461.4375 360.46875 460.339844 361.023438 459.3125 C 361.582031 458.285156 362.34375 457.445312 363.3125 456.789062 C 364.070312 456.355469 364.398438 456.464844 364.5625 456.519531 C 365.113281 456.847656 365.566406 457.28125 365.917969 457.824219 C 366.675781 459.019531 367.21875 460.308594 367.550781 461.683594 C 368.039062 463.859375 368.582031 466.03125 369.070312 468.207031 C 369.835938 471.296875 371.160156 474.125 373.039062 476.691406 C 373.757812 477.632812 374.546875 478.507812 375.40625 479.320312 C 376.269531 480.132812 377.1875 480.867188 378.171875 481.527344 C 379.152344 482.191406 380.179688 482.765625 381.253906 483.261719 C 382.332031 483.753906 383.4375 484.15625 384.582031 484.46875 C 385.722656 484.78125 386.878906 485 388.058594 485.121094 C 389.234375 485.246094 390.414062 485.273438 391.59375 485.203125 C 392.773438 485.132812 393.941406 484.96875 395.097656 484.707031 C 396.25 484.445312 397.375 484.09375 398.472656 483.648438 C 399.804688 483.074219 401.066406 482.367188 402.257812 481.539062 C 403.453125 480.707031 404.550781 479.765625 405.550781 478.714844 C 406.554688 477.667969 407.445312 476.527344 408.21875 475.296875 C 408.996094 474.066406 409.640625 472.773438 410.15625 471.417969 C 411.125 467.652344 411.882812 463.84375 412.4375 459.996094 C 412.40625 459.777344 412.460938 459.582031 412.601562 459.40625 C 412.742188 459.234375 412.921875 459.140625 413.144531 459.128906 C 413.34375 459.023438 413.542969 459.023438 413.742188 459.128906 C 413.753906 459.289062 413.753906 459.453125 413.742188 459.617188 C 414.285156 461.683594 414.558594 465.054688 414.992188 467.828125 L 417.332031 484.140625 C 418.90625 494.253906 420.375 503.0625 421.625 510.292969 C 424.179688 524.8125 425.917969 533.074219 425.917969 533.074219 C 425.917969 533.074219 426.296875 525.625 426.351562 511.328125 C 426.351562 504.257812 426.351562 495.449219 426.027344 485.0625 C 426.027344 479.625 425.699219 474.1875 425.480469 468.261719 L 425.480469 463.640625 C 425.566406 462.226562 425.582031 460.8125 425.535156 459.398438 L 425.535156 457.878906 C 425.535156 457.222656 425.210938 456.410156 425.046875 455.757812 C 424.636719 454.316406 424.039062 452.957031 423.253906 451.679688 C 422.527344 450.378906 421.589844 449.257812 420.433594 448.316406 C 419.277344 447.378906 417.992188 446.6875 416.570312 446.242188 C 415.773438 446.082031 414.972656 445.992188 414.164062 445.976562 C 413.351562 445.960938 412.546875 446.019531 411.75 446.148438 C 410.949219 446.277344 410.167969 446.480469 409.40625 446.75 C 408.640625 447.023438 407.910156 447.363281 407.207031 447.765625 C 406.503906 448.171875 405.84375 448.636719 405.226562 449.160156 C 404.609375 449.683594 404.042969 450.257812 403.527344 450.886719 C 403.015625 451.511719 402.5625 452.179688 402.167969 452.890625 C 401.773438 453.597656 401.449219 454.335938 401.191406 455.105469 C 400.308594 457.371094 399.691406 459.710938 399.34375 462.117188 C 399.136719 463.628906 398.808594 465.117188 398.363281 466.578125 C 397.925781 467.625 397.304688 468.554688 396.507812 469.363281 C 395.707031 470.171875 394.785156 470.800781 393.746094 471.253906 C 392.683594 471.707031 391.578125 471.914062 390.425781 471.867188 C 389.273438 471.816406 388.1875 471.523438 387.167969 470.980469 C 386.058594 470.453125 385.117188 469.707031 384.34375 468.75 C 383.503906 467.71875 382.925781 466.5625 382.601562 465.273438 C 382.058594 463.640625 381.625 461.628906 380.972656 459.289062 C 380.296875 456.558594 379.210938 454.003906 377.710938 451.625 C 376.828125 450.171875 375.746094 448.882812 374.464844 447.761719 C 373.1875 446.636719 371.769531 445.734375 370.210938 445.042969 C 368.476562 444.296875 366.667969 443.925781 364.777344 443.925781 C 362.890625 443.925781 361.078125 444.296875 359.34375 445.042969 C 356.402344 446.429688 354.066406 448.496094 352.332031 451.242188 C 350.746094 453.78125 349.785156 456.535156 349.453125 459.507812 C 349.019531 463.746094 349.128906 467.96875 349.777344 472.175781 C 350.214844 475.875 350.59375 479.464844 350.972656 483.050781 C 351.789062 489.957031 352.605469 496.484375 353.3125 502.410156 C 356.300781 526.007812 358.800781 540.90625 358.800781 540.90625 Z M 358.800781 540.90625 " fill-opacity="1" fill-rule="nonzero"/><path fill="#000000" d="M 259.402344 319.660156 C 259.402344 319.660156 254.671875 314.765625 246.574219 306.988281 C 238.480469 299.214844 227.285156 288.613281 213.96875 276.757812 C 200.652344 264.90625 189.351562 255.007812 180.871094 247.449219 C 172.394531 239.890625 167.015625 235.761719 167.015625 235.761719 C 167.015625 235.761719 167.558594 237.121094 168.753906 239.675781 C 170.527344 243.398438 172.480469 247.023438 174.621094 250.550781 C 182.96875 264.0625 193.042969 276.132812 204.839844 286.761719 C 216.027344 296.84375 228.347656 305.269531 241.792969 312.046875 C 247.484375 315 253.351562 317.539062 259.402344 319.660156 Z M 259.402344 319.660156 " fill-opacity="1" fill-rule="nonzero"/><g clip-path="url(#56b092562b)"><path fill="#000000" d="M 419.230469 153.820312 C 415.039062 171.707031 413.226562 189.828125 413.796875 208.191406 C 414.238281 226.539062 417.027344 244.515625 422.167969 262.132812 C 426.785156 244.289062 428.597656 226.164062 427.601562 207.757812 C 426.957031 189.445312 424.164062 171.464844 419.230469 153.820312 Z M 419.230469 153.820312 " fill-opacity="1" fill-rule="nonzero"/></g><path fill="#000000" d="M 581.617188 357.339844 C 581.617188 357.339844 586.671875 355.328125 594.550781 351.523438 C 602.433594 347.714844 613.191406 342.277344 624.929688 335.210938 C 636.667969 328.140625 646.667969 321.398438 653.679688 316.289062 C 660.691406 311.175781 664.984375 307.640625 664.984375 307.640625 C 660.59375 307.871094 656.265625 308.507812 651.996094 309.546875 C 639.9375 312.457031 628.597656 317.113281 617.976562 323.519531 C 607.84375 329.597656 598.785156 336.992188 590.800781 345.703125 C 587.464844 349.363281 584.402344 353.242188 581.617188 357.339844 Z M 581.617188 357.339844 " fill-opacity="1" fill-rule="nonzero"/><g clip-path="url(#bc8e188978)"><path fill="#000000" d="M 568.519531 484.410156 C 587.261719 489.460938 606.339844 492.144531 625.746094 492.457031 C 645.136719 493.003906 664.300781 491.191406 683.242188 487.019531 C 664.582031 481.515625 645.527344 478.796875 626.070312 478.867188 C 606.675781 478.523438 587.492188 480.371094 568.519531 484.410156 Z M 568.519531 484.410156 " fill-opacity="1" fill-rule="nonzero"/></g><path fill="#000000" d="M 517.21875 571.628906 C 517.953125 574.234375 518.820312 576.792969 519.828125 579.304688 C 520.835938 581.820312 521.972656 584.273438 523.242188 586.664062 C 524.511719 589.054688 525.902344 591.371094 527.417969 593.617188 C 528.933594 595.859375 530.5625 598.015625 532.308594 600.085938 C 534.054688 602.152344 535.90625 604.125 537.859375 605.996094 C 539.816406 607.867188 541.867188 609.628906 544.011719 611.28125 C 546.152344 612.933594 548.378906 614.46875 550.6875 615.882812 C 552.992188 617.296875 555.371094 618.585938 557.8125 619.746094 C 556.523438 614.449219 554.597656 609.394531 552.039062 604.582031 C 549.484375 599.769531 546.371094 595.34375 542.707031 591.308594 C 539.148438 587.21875 535.226562 583.519531 530.9375 580.207031 C 526.644531 576.894531 522.074219 574.035156 517.21875 571.628906 Z M 517.21875 571.628906 " fill-opacity="1" fill-rule="nonzero"/><path fill="#000000" d="M 156.363281 629.699219 C 171.144531 622.996094 184.640625 614.292969 196.851562 603.597656 C 209.160156 592.964844 219.683594 580.785156 228.425781 567.058594 C 220.976562 570.199219 213.851562 573.953125 207.054688 578.328125 C 200.253906 582.703125 193.882812 587.628906 187.9375 593.105469 C 175.753906 603.871094 165.230469 616.070312 156.363281 629.699219 Z M 156.363281 629.699219 " fill-opacity="1" fill-rule="nonzero"/><g clip-path="url(#865eb365a2)"><path fill="#000000" d="M 126.636719 446.566406 C 129.144531 447.425781 131.695312 448.148438 134.285156 448.726562 C 136.875 449.308594 139.488281 449.75 142.125 450.046875 C 144.761719 450.34375 147.40625 450.496094 150.0625 450.507812 C 152.714844 450.515625 155.359375 450.382812 158 450.101562 C 160.640625 449.824219 163.253906 449.402344 165.847656 448.839844 C 168.441406 448.277344 170.996094 447.574219 173.515625 446.734375 C 176.03125 445.890625 178.496094 444.917969 180.90625 443.808594 C 183.316406 442.699219 185.660156 441.460938 187.9375 440.097656 C 182.945312 438.1875 177.792969 436.933594 172.484375 436.332031 C 167.171875 435.734375 161.871094 435.8125 156.578125 436.5625 C 151.304688 437.203125 146.144531 438.367188 141.101562 440.050781 C 136.058594 441.734375 131.238281 443.90625 126.636719 446.566406 Z M 126.636719 446.566406 " fill-opacity="1" fill-rule="nonzero"/></g><path fill="#ffffff" d="M 355.648438 352.828125 C 355.648438 352.828125 353.3125 354.023438 349.179688 356.6875 C 343.328125 360.640625 337.984375 365.1875 333.148438 370.335938 C 325.652344 378.269531 319.566406 387.167969 314.886719 397.03125 C 313.386719 400.160156 312.042969 403.355469 310.851562 406.613281 C 309.664062 409.875 308.640625 413.1875 307.777344 416.546875 C 306.917969 419.90625 306.222656 423.304688 305.695312 426.734375 C 305.167969 430.164062 304.808594 433.609375 304.621094 437.074219 C 304.433594 440.539062 304.414062 444.003906 304.566406 447.472656 C 304.71875 450.9375 305.042969 454.390625 305.535156 457.824219 C 306.027344 461.261719 306.6875 464.664062 307.515625 468.03125 C 308.339844 471.402344 309.332031 474.722656 310.488281 477.996094 C 314.046875 488.304688 319.101562 497.820312 325.648438 506.542969 C 329.882812 512.207031 334.699219 517.316406 340.105469 521.875 C 343.855469 524.972656 346.082031 526.441406 346.082031 526.441406 C 346.082031 526.441406 345.429688 524.214844 344.074219 520.1875 C 342.714844 516.164062 340.867188 510.183594 338.636719 502.625 C 332.980469 481.660156 330.609375 460.328125 331.519531 438.628906 C 332.617188 418.082031 336.695312 398.144531 343.746094 378.816406 C 346.070312 372.421875 348.734375 366.167969 351.734375 360.058594 Z M 355.648438 352.828125 " fill-opacity="1" fill-rule="nonzero"/><path fill="#ffffff" d="M 344.34375 549.605469 C 344.730469 550.710938 345.226562 551.765625 345.828125 552.769531 C 346.433594 553.773438 347.132812 554.707031 347.925781 555.566406 C 348.722656 556.425781 349.59375 557.199219 350.546875 557.878906 C 351.5 558.558594 352.511719 559.136719 353.582031 559.609375 C 354.734375 559.828125 355.898438 559.925781 357.070312 559.90625 C 358.246094 559.886719 359.402344 559.746094 360.546875 559.492188 C 361.695312 559.234375 362.800781 558.863281 363.871094 558.378906 C 364.9375 557.894531 365.949219 557.308594 366.898438 556.621094 C 366.574219 555.480469 366.125 554.394531 365.546875 553.363281 C 364.964844 552.332031 364.277344 551.382812 363.472656 550.511719 C 362.671875 549.644531 361.777344 548.878906 360.796875 548.222656 C 359.8125 547.5625 358.765625 547.027344 357.660156 546.613281 C 355.328125 546.238281 353.015625 546.304688 350.710938 546.824219 C 348.410156 547.339844 346.289062 548.269531 344.34375 549.605469 Z M 344.34375 549.605469 " fill-opacity="1" fill-rule="nonzero"/><path fill="#ffffff" d="M 353.472656 581.359375 C 353.472656 581.359375 356.191406 589.136719 362.277344 590.710938 C 363.375 590.839844 364.472656 590.847656 365.574219 590.746094 C 366.671875 590.640625 367.75 590.417969 368.804688 590.085938 C 369.855469 589.753906 370.863281 589.316406 371.824219 588.769531 C 372.785156 588.226562 373.679688 587.585938 374.507812 586.851562 C 374.203125 585.78125 373.777344 584.765625 373.230469 583.796875 C 372.679688 582.832031 372.027344 581.945312 371.265625 581.136719 C 370.503906 580.324219 369.65625 579.617188 368.726562 579.011719 C 367.792969 578.40625 366.804688 577.921875 365.757812 577.554688 C 363.535156 577.320312 361.359375 577.53125 359.222656 578.195312 C 357.089844 578.855469 355.175781 579.910156 353.472656 581.359375 Z M 353.472656 581.359375 " fill-opacity="1" fill-rule="nonzero"/><path fill="#ffffff" d="M 363.691406 348.257812 C 363.691406 348.257812 369.398438 353.695312 374.070312 351.792969 C 378.746094 349.890625 379.941406 342.441406 379.941406 342.441406 C 379.941406 342.441406 374.507812 337.003906 369.507812 338.960938 C 365.105469 340.484375 363.691406 348.257812 363.691406 348.257812 Z M 363.691406 348.257812 " fill-opacity="1" fill-rule="nonzero"/></svg>