<svg xmlns="http://www.w3.org/2000/svg" xmlns:xlink="http://www.w3.org/1999/xlink" width="1080" zoomAndPan="magnify" viewBox="0 0 810 809.999993" height="1080" preserveAspectRatio="xMidYMid meet" version="1.0"><defs><clipPath id="d386f19946"><path d="M 194.96875 180.226562 L 614.96875 180.226562 L 614.96875 729.226562 L 194.96875 729.226562 Z M 194.96875 180.226562 " clip-rule="nonzero"/></clipPath><clipPath id="942c3fd9ab"><path d="M 274 180.226562 L 536 180.226562 L 536 560 L 274 560 Z M 274 180.226562 " clip-rule="nonzero"/></clipPath><clipPath id="e38c8d7e0a"><path d="M 248 704 L 560 704 L 560 729.226562 L 248 729.226562 Z M 248 704 " clip-rule="nonzero"/></clipPath></defs><g clip-path="url(#d386f19946)"><path stroke-linecap="butt" transform="matrix(0.285181, 0, 0, -0.285343, -201.468296, 1061.367399)" fill="none" stroke-linejoin="miter" d="M 1710.20354 2958.802502 L 1452.500271 2958.802502 C 1452.500271 2958.802502 1416.804793 2432.20221 1836.493757 2487.398934 " stroke="#fabb4c" stroke-width="120" stroke-opacity="1" stroke-miterlimit="10"/><path stroke-linecap="butt" transform="matrix(0.285181, 0, 0, -0.285343, -201.468296, 1061.367279)" fill="none" stroke-linejoin="miter" d="M 2541.801332 2958.801782 L 2799.504601 2958.801782 C 2799.504601 2958.801782 2835.200079 2432.201544 2415.497418 2487.398262 " stroke="#fabb4c" stroke-width="120" stroke-opacity="1" stroke-miterlimit="10"/></g><g clip-path="url(#942c3fd9ab)"><path fill="#fabb4c" d="M 274.613281 180.199219 L 274.613281 279.382812 C 279.148438 453.328125 389.855469 452.160156 389.855469 452.160156 L 389.855469 559.449219 L 419.800781 559.449219 L 419.800781 452.160156 C 419.800781 452.160156 530.507812 453.328125 535.070312 279.382812 L 535.070312 180.199219 L 274.613281 180.199219 " fill-opacity="1" fill-rule="nonzero"/></g><path fill="#fabb4c" d="M 419.800781 559.449219 L 389.855469 559.449219 L 350.785156 594.460938 L 458.871094 594.460938 L 419.800781 559.449219 " fill-opacity="1" fill-rule="nonzero"/><path fill="#3d4176" d="M 533.214844 704.746094 L 276.4375 704.746094 L 276.4375 594.460938 L 533.214844 594.460938 L 533.214844 704.746094 " fill-opacity="1" fill-rule="nonzero"/><g clip-path="url(#e38c8d7e0a)"><path fill="#2c2d53" d="M 559.566406 729.257812 L 248.460938 729.257812 L 248.460938 704.746094 L 559.566406 704.746094 L 559.566406 729.257812 " fill-opacity="1" fill-rule="nonzero"/></g><path fill="#fabb4c" d="M 473.128906 679.378906 L 336.527344 679.378906 L 336.527344 619.855469 L 473.128906 619.855469 L 473.128906 679.378906 " fill-opacity="1" fill-rule="nonzero"/><path fill="#fff766" d="M 404.828125 222.886719 L 424.960938 263.71875 L 470.046875 270.28125 L 437.421875 302.097656 L 445.125 346.984375 L 404.828125 325.78125 L 364.53125 346.984375 L 372.230469 302.097656 L 339.605469 270.28125 L 384.695312 263.71875 L 404.828125 222.886719 " fill-opacity="1" fill-rule="nonzero"/></svg>