<svg width="957" height="1141" viewBox="0 0 957 1141" fill="none" xmlns="http://www.w3.org/2000/svg">
<path d="M344.821 518.424L393.795 502.094L352.983 428.604L312.171 395.943L255.034 363.281L189.735 346.95V404.108L214.222 469.432L279.521 510.259L344.821 518.424Z" stroke="#E8E7E7" stroke-width="2"/>
<path d="M614.18 526.59L565.205 510.259L606.017 436.77L646.829 404.108L703.966 371.446L769.265 355.115V412.274L744.778 477.597L679.479 518.425L614.18 526.59Z" stroke="#E8E7E7" stroke-width="2"/>
<path d="M344.821 518.424L393.795 502.094L352.983 428.604L312.171 395.943L255.034 363.281L189.735 346.95V404.108L214.222 469.432L279.521 510.259L344.821 518.424Z" stroke="#E8E7E7" stroke-width="2"/>
<path d="M614.18 526.59L565.205 510.259L606.017 436.77L646.829 404.108L703.966 371.446L769.265 355.115V412.274L744.778 477.597L679.479 518.425L614.18 526.59Z" stroke="#E8E7E7" stroke-width="2"/>
<path d="M540.718 436.77L483.581 551.086L418.282 428.604M540.718 436.77L622.342 355.115M540.718 436.77L483.581 395.942M622.342 355.115L703.966 306.122M622.342 355.115L540.718 322.453M622.342 355.115V257.129M703.966 306.122L810.077 257.129M703.966 306.122L622.342 257.129M703.966 306.122V224.468M810.077 257.129L883.539 191.806M810.077 257.129L703.966 224.468M810.077 257.129L801.915 191.806M883.539 191.806L932.513 110.151M883.539 191.806H801.915M883.539 191.806V126.482M932.513 110.151L957 4M932.513 110.151L883.539 126.482M957 4L883.539 126.482M957 4L883.539 85.6547L801.915 134.647L703.966 167.309L622.342 191.806L483.581 265.295L328.496 191.806L230.547 167.309L173.41 134.647L99.9487 85.6547L2 4M883.539 126.482L801.915 191.806M801.915 191.806L703.966 224.468M703.966 224.468L622.342 257.129M622.342 257.129L540.718 322.453M540.718 322.453L483.581 395.942M483.581 395.942L418.282 322.453M483.581 395.942L418.282 428.604M418.282 322.453L328.496 257.129M418.282 322.453L328.496 346.95M328.496 257.129L230.547 224.468M328.496 257.129V346.95M328.496 257.129L230.547 297.957M230.547 224.468L173.41 191.806M230.547 224.468V297.957M230.547 224.468L148.923 257.129M173.41 191.806L99.9487 126.482M173.41 191.806L148.923 257.129M173.41 191.806H83.6239M99.9487 126.482L2 4M99.9487 126.482L83.6239 191.806M99.9487 126.482L34.6496 110.151M2 4L34.6496 110.151M34.6496 110.151L83.6239 191.806M83.6239 191.806L148.923 257.129M148.923 257.129L230.547 297.957M230.547 297.957L328.496 346.95M328.496 346.95L418.282 428.604" stroke="#E8E7E7" stroke-width="2"/>
<path d="M442.769 836.878L548.88 747.058M442.769 836.878L426.444 812.381M442.769 836.878L361.145 861.374L263.197 885.871L214.222 918.532L181.573 967.525L165.248 1000.19L124.436 926.698L50.9743 747.058L42.812 600.079L59.1367 453.101L99.9487 346.95M548.88 747.058L393.795 738.892M548.88 747.058L426.444 812.381M393.795 738.892L263.197 681.734M393.795 738.892V796.05M393.795 738.892L263.197 779.719M263.197 681.734L181.573 608.245M263.197 681.734V779.719M263.197 681.734L181.573 738.892M181.573 608.245L180.492 606.083M181.573 608.245L124.436 681.734M132.598 510.259L108.111 436.77M132.598 510.259L91.7863 608.245M132.598 510.259L180.492 606.083M108.111 436.77L99.9487 346.95M108.111 436.77L83.6239 510.259M99.9487 346.95L83.6239 453.101V510.259M83.6239 510.259L91.7863 608.245M91.7863 608.245L124.436 681.734M91.7863 608.245L180.492 606.083M124.436 681.734L181.573 738.892M124.436 681.734H255.034M181.573 738.892L263.197 779.719M263.197 779.719L393.795 796.05M393.795 796.05L426.444 812.381M148.923 1114.5L426.444 1041.01M148.923 1114.5L295.846 1139L426.444 1130.83L581.53 1090.01L728.453 1000.19L810.077 902.201L867.214 820.547L908.026 698.065L916.188 624.576V542.921L899.863 420.439L867.214 346.95M148.923 1114.5L181.573 1008.35M426.444 1041.01L181.573 1008.35M426.444 1041.01L540.718 992.022M426.444 1041.01L361.145 902.201M426.444 1041.01L263.197 926.698M663.154 918.532L777.427 812.381M663.154 918.532V722.561M663.154 918.532L548.88 836.878M663.154 918.532L442.769 885.871M663.154 918.532L540.718 992.022M777.427 812.381L859.051 681.734M777.427 812.381L663.154 722.561M859.051 681.734L891.701 526.59M859.051 681.734L777.427 583.748M859.051 681.734L663.154 722.561M891.701 526.59L867.214 346.95M891.701 526.59L777.427 583.748M867.214 346.95L777.427 583.748M181.573 1008.35L263.197 926.698M263.197 926.698L361.145 902.201M361.145 902.201L442.769 885.871M361.145 902.201L540.718 992.022M442.769 885.871L548.88 836.878M442.769 885.871L540.718 992.022M548.88 836.878L663.154 722.561M663.154 722.561L777.427 583.748" stroke="#E8E7E7" stroke-width="2"/>
</svg>
