<svg width="18" height="19" viewBox="0 0 18 19" fill="none" xmlns="http://www.w3.org/2000/svg">
<g clip-path="url(#clip0_162_591)">
<path d="M14.787 10.5402L13.887 11.4402L9.55798 15.7962C8.77935 16.5291 7.74591 16.93 6.67673 16.9138C5.60756 16.8976 4.58671 16.4657 3.8306 15.7096C3.07449 14.9535 2.64257 13.9327 2.6264 12.8635C2.61023 11.7943 3.01108 10.7609 3.74398 9.98223L10.719 3.00723C10.9483 2.77853 11.2204 2.59724 11.5197 2.47369C11.8191 2.35015 12.1398 2.28678 12.4637 2.28719C12.7875 2.28761 13.1081 2.35181 13.4071 2.47613C13.7062 2.60044 13.9778 2.78244 14.2065 3.01173C14.4352 3.24102 14.6165 3.51311 14.74 3.81246C14.8636 4.11181 14.9269 4.43257 14.9265 4.75641C14.9261 5.08026 14.8619 5.40085 14.7376 5.69988C14.6133 5.99891 14.4313 6.27053 14.202 6.49923L7.81198 12.8892C7.65712 13.0415 7.44865 13.1268 7.23148 13.1268C7.01431 13.1268 6.80584 13.0415 6.65098 12.8892C6.50025 12.7318 6.41612 12.5222 6.41612 12.3042C6.41612 12.0863 6.50025 11.8767 6.65098 11.7192L10.143 8.23623L10.431 7.94823L11.331 7.04823C11.4612 6.88887 11.5273 6.68674 11.5166 6.48125C11.5059 6.27576 11.419 6.08162 11.2729 5.93668C11.1269 5.79174 10.9321 5.70638 10.7265 5.69724C10.5209 5.6881 10.3193 5.75583 10.161 5.88723L9.26098 6.78723L8.99998 7.07523L5.48998 10.5402C5.02452 11.0057 4.76303 11.637 4.76303 12.2952C4.76303 12.6212 4.82723 12.9439 4.95196 13.245C5.07669 13.5462 5.25951 13.8198 5.48998 14.0502C5.72045 14.2807 5.99406 14.4635 6.29518 14.5882C6.5963 14.713 6.91905 14.7772 7.24498 14.7772C7.90323 14.7772 8.53452 14.5157 8.99998 14.0502L15.39 7.66023C16.161 6.88686 16.5931 5.83889 16.5915 4.74687C16.5898 3.65484 16.1544 2.60821 15.381 1.83723C14.6076 1.06625 13.5596 0.634059 12.4676 0.635747C11.3756 0.637435 10.329 1.07286 9.55798 1.84623L8.39698 3.00723L2.58298 8.82123C1.66362 9.92367 1.18979 11.3301 1.25458 12.7641C1.31938 14.1981 1.91812 15.556 2.93315 16.5711C3.94818 17.5861 5.30612 18.1848 6.74013 18.2496C8.17414 18.3144 9.58054 17.8406 10.683 16.9212L15.048 12.5562L15.948 11.6562C16.103 11.501 16.19 11.2906 16.19 11.0712C16.19 10.8519 16.103 10.6415 15.948 10.4862C15.8684 10.4132 15.7751 10.3566 15.6736 10.3198C15.572 10.283 15.4642 10.2666 15.3562 10.2716C15.2483 10.2766 15.1425 10.3029 15.0448 10.349C14.9471 10.3951 14.8595 10.4601 14.787 10.5402Z" fill="#F3F4F7"/>
</g>
<defs>
<clipPath id="clip0_162_591">
<rect width="18" height="18" fill="white" transform="translate(0 0.640137)"/>
</clipPath>
</defs>
</svg>
