<svg width="688" height="812" viewBox="0 0 688 812" fill="none" xmlns="http://www.w3.org/2000/svg">
<path d="M247.298 369.426L282.341 357.832L253.139 305.659L223.937 282.471L183.054 259.283L136.33 247.689V288.268L153.851 334.644L200.575 363.629L247.298 369.426Z" stroke="#FE5920" stroke-width="2"/>
<path d="M440.032 375.223L404.99 363.629L434.192 311.456L463.394 288.268L504.277 265.08L551 253.486V294.065L533.479 340.441L486.756 369.426L440.032 375.223Z" stroke="#FE5920" stroke-width="2"/>
<path d="M247.298 369.426L282.341 357.832L253.139 305.659L223.937 282.471L183.054 259.283L136.33 247.689V288.268L153.851 334.644L200.575 363.629L247.298 369.426Z" stroke="#FE5920" stroke-width="2"/>
<path d="M440.032 375.223L404.99 363.629L434.192 311.456L463.394 288.268L504.277 265.08L551 253.486V294.065L533.479 340.441L486.756 369.426L440.032 375.223Z" stroke="#FE5920" stroke-width="2"/>
<path d="M387.468 311.456L346.585 392.614L299.862 305.659M387.468 311.456L445.873 253.486M387.468 311.456L346.585 282.471M445.873 253.486L504.277 218.704M445.873 253.486L387.468 230.298M445.873 253.486V183.921M504.277 218.704L580.203 183.921M504.277 218.704L445.873 183.921M504.277 218.704V160.733M580.203 183.921L632.766 137.545M580.203 183.921L504.277 160.733M580.203 183.921L574.362 137.545M632.766 137.545L667.809 79.5751M632.766 137.545H574.362M632.766 137.545V91.1691M667.809 79.5751L685.33 4.21375M667.809 79.5751L632.766 91.1691M685.33 4.21375L632.766 91.1691M685.33 4.21375L632.766 62.184L574.362 96.9661L504.277 120.154L445.873 137.545L346.585 189.719L235.617 137.545L165.532 120.154L124.649 96.9661L72.0852 62.184L2 4.21375M632.766 91.1691L574.362 137.545M574.362 137.545L504.277 160.733M504.277 160.733L445.873 183.921M445.873 183.921L387.468 230.298M387.468 230.298L346.585 282.471M346.585 282.471L299.862 230.298M346.585 282.471L299.862 305.659M299.862 230.298L235.617 183.921M299.862 230.298L235.617 247.689M235.617 183.921L165.532 160.733M235.617 183.921V247.689M235.617 183.921L165.532 212.907M165.532 160.733L124.649 137.545M165.532 160.733V212.907M165.532 160.733L107.128 183.921M124.649 137.545L72.0852 91.1691M124.649 137.545L107.128 183.921M124.649 137.545H60.4043M72.0852 91.1691L2 4.21375M72.0852 91.1691L60.4043 137.545M72.0852 91.1691L25.3617 79.5751M2 4.21375L25.3617 79.5751M25.3617 79.5751L60.4043 137.545M60.4043 137.545L107.128 183.921M107.128 183.921L165.532 212.907M165.532 212.907L235.617 247.689M235.617 247.689L299.862 305.659" stroke="#FE5920" stroke-width="2"/>
<path d="M317.383 595.51L393.309 531.743M317.383 595.51L305.702 578.119M317.383 595.51L258.979 612.901L188.894 630.292L153.851 653.48L130.489 688.263L118.809 711.451L89.6065 659.277L37.0426 531.743L31.2021 427.396L42.883 323.05L72.0852 247.689M393.309 531.743L282.341 525.946M393.309 531.743L305.702 578.119M282.341 525.946L188.894 485.367M282.341 525.946V566.525M282.341 525.946L188.894 554.931M188.894 485.367L130.489 433.193M188.894 485.367V554.931M188.894 485.367L130.489 525.946M130.489 433.193L129.716 431.659M130.489 433.193L89.6065 485.367M95.4469 363.629L77.9256 311.456M95.4469 363.629L66.2447 433.193M95.4469 363.629L129.716 431.659M77.9256 311.456L72.0852 247.689M77.9256 311.456L60.4043 363.629M72.0852 247.689L60.4043 323.05V363.629M60.4043 363.629L66.2447 433.193M66.2447 433.193L89.6065 485.367M66.2447 433.193L129.716 431.659M89.6065 485.367L130.489 525.946M89.6065 485.367H183.053M130.489 525.946L188.894 554.931M188.894 554.931L282.341 566.525M282.341 566.525L305.702 578.119M107.128 792.609L305.702 740.436M107.128 792.609L212.255 810L305.702 804.203L416.671 775.218L521.798 711.451L580.203 641.886L621.086 583.916L650.288 496.961L656.128 444.788V386.817L644.447 299.862L621.086 247.689M107.128 792.609L130.489 717.248M305.702 740.436L130.489 717.248M305.702 740.436L387.468 705.654M305.702 740.436L258.979 641.886M305.702 740.436L188.894 659.277M475.075 653.48L556.841 578.119M475.075 653.48V514.352M475.075 653.48L393.309 595.51M475.075 653.48L317.383 630.292M475.075 653.48L387.468 705.654M556.841 578.119L615.245 485.367M556.841 578.119L475.075 514.352M615.245 485.367L638.607 375.223M615.245 485.367L556.841 415.802M615.245 485.367L475.075 514.352M638.607 375.223L621.086 247.689M638.607 375.223L556.841 415.802M621.086 247.689L556.841 415.802M130.489 717.248L188.894 659.277M188.894 659.277L258.979 641.886M258.979 641.886L317.383 630.292M258.979 641.886L387.468 705.654M317.383 630.292L393.309 595.51M317.383 630.292L387.468 705.654M393.309 595.51L475.075 514.352M475.075 514.352L556.841 415.802" stroke="#FE5920" stroke-width="2"/>
</svg>
