<svg width="59" height="71" viewBox="0 0 59 71" fill="none" xmlns="http://www.w3.org/2000/svg">
<path style="mix-blend-mode:multiply" d="M34.546 30.934C36.014 31.7911 37.7042 32.1909 39.4006 32.0822C41.097 31.9736 42.7225 31.3615 44.0692 30.3242C45.4158 29.2868 46.4225 27.8714 46.9604 26.2589C47.4984 24.6464 47.5432 22.9101 47.0891 21.272C44.3386 21.6524 41.7349 22.7437 39.5352 24.4382C37.3354 26.1327 35.6158 28.3716 34.546 30.934Z" fill="url(#paint0_radial_29_209)"/>
<path style="mix-blend-mode:multiply" d="M58.734 0C58.2814 4.78254 56.3395 9.30251 53.182 12.923C48.374 18.112 43.282 17.703 37.333 22.714C33.7845 25.7832 31.0482 29.6808 29.367 34.061C27.6858 29.6808 24.9496 25.7832 21.401 22.714C15.451 17.703 10.36 18.114 5.552 12.923C2.39453 9.30251 0.452653 4.78254 0 0C2.63644 3.54775 6.09851 6.39883 10.086 8.306C14.422 10.306 17.852 10.311 24.11 13.412C25.9235 14.3115 27.6793 15.3231 29.367 16.441C31.0547 15.3231 32.8105 14.3115 34.624 13.412C40.88 10.312 44.312 10.312 48.648 8.306C52.6349 6.39794 56.0968 3.54703 58.734 0Z" fill="url(#paint1_linear_29_209)"/>
<path style="mix-blend-mode:multiply" d="M24.122 30.934C22.6541 31.7916 20.9637 32.1918 19.267 32.0834C17.5704 31.975 15.9447 31.3629 14.5979 30.3255C13.251 29.288 12.2443 27.8723 11.7066 26.2595C11.1688 24.6467 11.1244 22.9101 11.579 21.272C14.3295 21.6525 16.9331 22.7439 19.1328 24.4383C21.3325 26.1328 23.0522 28.3717 24.122 30.934Z" fill="url(#paint2_radial_29_209)"/>
<path style="mix-blend-mode:multiply" d="M33.402 45.797C31.7816 48.0913 29.6498 49.9773 27.175 51.306C22.029 54.006 18.156 52.547 14.258 55.559C12.3822 57.0856 10.9941 59.1279 10.265 61.434C5.94525 55.7904 3.27766 49.0582 2.55956 41.9875C1.84146 34.9169 3.10112 27.7857 6.19805 21.389C5.86957 27.7309 8.06232 33.9455 12.298 38.677C20.548 47.588 32.395 45.955 33.402 45.797Z" fill="url(#paint3_linear_29_209)"/>
<path style="mix-blend-mode:multiply" d="M53.8911 48.017C50.7536 55.7912 44.9155 62.1718 37.45 65.986C24.413 72.886 11.69 69.353 8.97205 68.529V68.523C8.97805 68.5 8.98102 68.477 8.98602 68.451C9.56402 65.205 10.92 60.874 14.512 58.019C18.359 54.961 21.772 55.983 27.312 54.119C34.397 51.736 38.57 46.785 42.538 42.083C47.6012 36.04 51.1586 28.882 52.918 21.197C53.911 23.36 58.9801 34.928 53.8911 48.017Z" fill="url(#paint4_linear_29_209)"/>
<path style="mix-blend-mode:multiply" d="M53.8911 48.017C50.7536 55.7912 44.9155 62.1718 37.45 65.986C24.413 72.886 11.69 69.353 8.97205 68.529V68.523C8.97805 68.5 8.98102 68.477 8.98602 68.451C9.38102 67.27 19.698 67.604 31.886 61.323C37.486 58.437 48.553 52.73 52.735 40.645C54.7893 34.3344 54.8521 27.5445 52.915 21.197C53.911 23.36 58.9801 34.928 53.8911 48.017Z" fill="url(#paint5_linear_29_209)"/>
<path style="mix-blend-mode:multiply" d="M27.175 51.306C22.029 54.006 18.156 52.547 14.258 55.559C12.3822 57.0856 10.9941 59.1279 10.265 61.434C5.94525 55.7904 3.27766 49.0582 2.55956 41.9875C1.84146 34.9169 3.10112 27.7857 6.19805 21.389C4.57005 28.969 3.81499 38.58 9.21599 44.16C15.508 50.664 25.882 47.285 27.175 51.306Z" fill="url(#paint6_linear_29_209)"/>
<path style="mix-blend-mode:multiply" d="M58.734 0C58.2814 4.78254 56.3395 9.30251 53.182 12.923C48.374 18.112 43.282 17.703 37.333 22.714C33.7845 25.7832 31.0482 29.6808 29.367 34.061C27.6858 29.6808 24.9496 25.7832 21.401 22.714C15.451 17.703 10.36 18.114 5.552 12.923C2.39453 9.30251 0.452653 4.78254 0 0C1.85153 4.24844 4.85429 7.89441 8.66901 10.526C13.231 13.558 16.624 13.266 21.643 16.707C24.6924 18.8259 27.2839 21.5371 29.263 24.679C31.0675 21.611 33.5258 18.9783 36.463 16.968C41.294 13.727 44.698 14.205 49.091 11.714C52.015 10.054 55.779 6.854 58.734 0Z" fill="url(#paint7_linear_29_209)"/>
<defs>
<radialGradient id="paint0_radial_29_209" cx="0" cy="0" r="1" gradientUnits="userSpaceOnUse" gradientTransform="translate(-113.521 26.6858) scale(5.94873 5.94443)">
<stop/>
<stop offset="1" stop-color="#4D4D4D"/>
</radialGradient>
<linearGradient id="paint1_linear_29_209" x1="0" y1="17.0305" x2="58.734" y2="17.0305" gradientUnits="userSpaceOnUse">
<stop stop-color="#F9E3CB"/>
<stop offset="1" stop-color="#FE5209"/>
</linearGradient>
<radialGradient id="paint2_radial_29_209" cx="0" cy="0" r="1" gradientUnits="userSpaceOnUse" gradientTransform="translate(-124.032 26.6864) scale(5.94901 5.94504)">
<stop/>
<stop offset="1" stop-color="#4D4D4D"/>
</radialGradient>
<linearGradient id="paint3_linear_29_209" x1="2.36316" y1="41.4115" x2="33.402" y2="41.4115" gradientUnits="userSpaceOnUse">
<stop stop-color="#F9E3CB"/>
<stop offset="1" stop-color="#FE5209"/>
</linearGradient>
<linearGradient id="paint4_linear_29_209" x1="8.97205" y1="45.6812" x2="56.1226" y2="45.6812" gradientUnits="userSpaceOnUse">
<stop stop-color="#F9E3CB"/>
<stop offset="1" stop-color="#FE5209"/>
</linearGradient>
<linearGradient id="paint5_linear_29_209" x1="8.97205" y1="45.6812" x2="56.1225" y2="45.6812" gradientUnits="userSpaceOnUse">
<stop stop-color="#F9E3CB"/>
<stop offset="1" stop-color="#FE5209"/>
</linearGradient>
<linearGradient id="paint6_linear_29_209" x1="2.36316" y1="41.4115" x2="27.175" y2="41.4115" gradientUnits="userSpaceOnUse">
<stop stop-color="#F9E3CB"/>
<stop offset="1" stop-color="#FE5209"/>
</linearGradient>
<linearGradient id="paint7_linear_29_209" x1="0" y1="17.0305" x2="58.734" y2="17.0305" gradientUnits="userSpaceOnUse">
<stop stop-color="#F9E3CB"/>
<stop offset="1" stop-color="#FE5209"/>
</linearGradient>
</defs>
</svg>
